<svg width="4992" height="1343" viewBox="0 0 4992 1343" fill="none" xmlns="http://www.w3.org/2000/svg">
<g clip-path="url(#clip0_66_17)">
<path d="M2818.19 1091.74C2813.98 1099.76 2811.55 1108.91 2812.41 1118.07C2813.27 1127.22 2817.25 1135.55 2823.77 1141.47C2830.29 1147.39 2838.96 1150.56 2848.15 1150.53C2857.35 1150.51 2866.23 1147.22 2873.81 1142.26C2882.7 1136.4 2891.39 1130.37 2899.89 1124.16C2933.89 1099.31 2964.75 1071.62 2992.48 1041.09C3044.48 983.837 3096.48 926.587 3148.48 869.337C3193.55 819.72 3248.09 778.711 3312.11 746.308C3321.96 741.323 3332.03 736.542 3342.33 731.965C3371.12 719.233 3382.23 692.032 3380.01 662.52C3377.72 632.946 3361.08 602.391 3334.96 578.669C3308.85 554.947 3276.84 541.319 3247.18 541.874C3217.59 542.492 3191.58 556.157 3181.67 586.035C3178.1 596.725 3174.31 607.21 3170.29 617.492C3144.17 684.323 3108.58 742.546 3063.52 792.163C3011.52 849.413 2959.52 906.663 2907.52 963.913C2879.78 994.446 2855.18 1027.82 2833.71 1064.04C2828.34 1073.1 2823.17 1082.33 2818.19 1091.74Z" fill="url(#paint0_linear_66_17)"/>
<path d="M3734.24 256.883C3738.79 249.094 3741.7 240.126 3741.36 230.979C3741.04 221.837 3737.58 213.348 3731.47 207.091C3725.37 200.834 3716.96 197.172 3707.83 196.623C3698.7 196.069 3689.66 198.754 3681.76 203.117C3672.97 208.009 3664.35 213.089 3655.93 218.359C3622.22 239.439 3591.46 263.545 3563.66 290.679C3511.54 341.554 3459.41 392.429 3407.29 443.304C3362.11 487.395 3308 522.326 3244.94 548.095C3235.24 552.06 3225.32 555.807 3215.2 559.338C3185.15 569.752 3172.36 596.175 3172.86 625.817C3173.42 655.531 3188.41 687.263 3213.34 712.8C3238.26 738.336 3269.62 754.097 3299.31 755.379C3328.93 756.591 3355.66 744.455 3366.8 714.662C3370.58 704.626 3374.56 694.807 3378.76 685.205C3406.05 622.791 3442.29 569.538 3487.46 525.446C3539.59 474.571 3591.71 423.696 3643.84 372.821C3671.64 345.688 3696.48 315.528 3718.37 282.341C3723.85 274.044 3729.13 265.558 3734.24 256.883Z" fill="url(#paint1_linear_66_17)"/>
<path d="M3683.37 1049.37C3691.54 1053.13 3700.69 1055.22 3709.73 1054.12C3718.77 1053.02 3726.89 1048.9 3732.58 1042.34C3738.28 1035.78 3741.22 1027.17 3741.03 1018.06C3740.86 1008.95 3737.5 1000.19 3732.63 992.633C3727.41 984.603 3722.02 976.773 3716.45 969.143C3694.2 938.622 3669.17 911.294 3641.37 887.161C3589.25 841.911 3537.12 796.661 3485 751.411C3439.82 712.194 3403.04 663.31 3374.65 604.76C3370.28 595.752 3366.11 586.515 3362.14 577.05C3349.77 547.393 3322.44 536.775 3292.89 539.762C3263.28 542.829 3232.69 560.624 3209.05 587.859C3185.41 615.093 3172.09 647.878 3173.21 677.628C3174.4 707.299 3188.76 732.871 3219.86 740.95C3229.79 743.551 3239.52 746.382 3249.05 749.44C3311.01 769.323 3364.58 798.872 3409.75 838.089C3461.88 883.339 3514 928.589 3566.13 973.839C3593.93 997.972 3624.5 1018.91 3657.85 1036.66C3666.18 1041.09 3674.69 1045.33 3683.37 1049.37Z" fill="url(#paint2_linear_66_17)"/>
<path d="M2971.53 206.782C2964.16 201.697 2955.59 198.004 2946.55 197.418C2937.51 196.828 2928.84 199.327 2922.07 204.648C2915.3 209.97 2910.82 217.811 2909.27 226.729C2907.7 235.652 2909.27 244.856 2912.47 253.218C2915.72 261.635 2919.19 269.889 2922.86 277.98C2937.54 310.341 2955.55 340.089 2976.88 367.222C3016.88 418.097 3056.88 468.972 3096.88 519.847C3131.55 563.939 3156.15 615.943 3170.69 675.859C3172.93 685.077 3174.93 694.482 3176.69 704.075C3182.5 736.119 3207.26 751.762 3236.91 754.343C3266.64 756.855 3300.34 744.901 3329.07 722.311C3357.81 699.72 3377.38 669.79 3381.95 640.305C3386.44 610.888 3377.08 583.133 3347.31 569.925C3338.4 565.951 3329.74 561.789 3321.31 557.441C3266.51 529.174 3221.78 492.994 3187.12 448.903C3147.12 398.028 3107.12 347.153 3067.12 296.278C3045.78 269.144 3021.12 244.625 2993.14 222.72C2986.15 217.244 2978.94 211.931 2971.53 206.782Z" fill="url(#paint3_linear_66_17)"/>
<path d="M1280.08 707.113C1271.62 707.113 1264.46 704.997 1258.6 700.766C1252.41 696.534 1245.09 690.512 1236.62 682.699C1228.16 674.887 1218.72 665.284 1208.3 653.891C1204.4 649.333 1202.45 645.264 1202.45 641.684C1202.45 638.103 1204.4 634.034 1208.3 629.477C1228.49 606.69 1246.88 589.926 1263.48 579.184C1267.39 576.579 1272.92 575.277 1280.08 575.277C1302.22 575.277 1321.26 566.977 1337.21 550.375C1353.49 533.773 1361.3 506.918 1360.65 469.809C1360.32 429.77 1350.39 401.775 1330.86 385.824C1311.66 369.874 1285.29 361.898 1251.76 361.898H1228.32C1206.84 361.898 1192.19 366.456 1184.38 375.57C1176.57 384.685 1172.66 400.31 1172.66 422.445V915.121C1172.66 924.887 1170.54 931.723 1166.31 935.629C1162.41 939.21 1155.57 941 1145.8 941H1041.8C1032.04 941 1025.04 939.21 1020.8 935.629C1016.9 931.723 1014.95 924.887 1014.95 915.121V371.664C1014.95 339.112 1017.88 313.396 1023.73 294.516C1029.92 275.31 1041.64 261.638 1058.89 253.5C1076.47 245.036 1102.02 240.805 1135.55 240.805H1251.76C1345.19 240.805 1414.36 259.197 1459.28 295.98C1504.2 332.439 1526.66 388.428 1526.66 463.949C1526.66 520.59 1514.78 566.814 1491.02 602.621C1467.58 638.428 1436.98 664.796 1399.22 681.723C1361.79 698.65 1322.07 707.113 1280.08 707.113ZM1756.64 533.773H1758.6C1783.01 466.065 1826.96 432.211 1890.43 432.211C1898.57 432.211 1905.24 432.699 1910.45 433.676C1915.66 434.327 1919.24 434.978 1921.2 435.629C1926.08 437.257 1928.52 441 1928.52 446.859V564.535C1928.52 574.626 1922.66 577.393 1910.94 572.836C1907.04 571.208 1901.34 569.581 1893.85 567.953C1886.69 566 1876.6 565.023 1863.58 565.023C1830.05 565.023 1803.85 577.393 1784.96 602.133C1766.08 626.547 1756.64 659.913 1756.64 702.23V915.121C1756.64 924.887 1754.53 931.723 1750.3 935.629C1746.39 939.21 1739.55 941 1729.79 941H1629.2C1619.44 941 1612.44 939.21 1608.21 935.629C1604.3 931.723 1602.35 924.887 1602.35 915.121V505.941C1602.35 498.129 1603.98 492.107 1607.23 487.875C1614.07 478.76 1622.2 469.483 1631.64 460.043C1641.41 450.603 1653.29 440.512 1667.29 429.77C1669.89 427.816 1672.5 426.514 1675.1 425.863C1677.71 425.212 1679.98 424.887 1681.94 424.887C1686.49 424.887 1691.05 426.514 1695.61 429.77C1722.63 450.928 1741.51 468.995 1752.25 483.969C1755.18 487.875 1756.64 492.432 1756.64 497.641V533.773ZM2241.51 953.207C2159.48 953.207 2094.54 931.397 2046.68 887.777C1998.83 844.158 1974.91 779.216 1974.91 692.953C1974.91 604.411 1999.65 538.331 2049.12 494.711C2098.93 450.766 2165.34 428.793 2248.34 428.793C2328.42 428.793 2392.55 450.44 2440.73 493.734C2488.9 536.703 2512.99 600.18 2512.99 684.164C2512.99 771.729 2488.9 838.461 2440.73 884.359C2392.55 930.258 2326.14 953.207 2241.51 953.207ZM2246.39 835.043C2282.2 835.043 2309.22 823.975 2327.45 801.84C2345.67 779.379 2354.79 741.13 2354.79 687.094C2354.79 635.661 2345.51 599.529 2326.96 578.695C2308.73 557.536 2281.55 546.957 2245.41 546.957C2210.58 546.957 2183.08 558.35 2162.89 581.137C2143.04 603.598 2133.11 640.219 2133.11 691C2133.11 744.06 2142.55 781.332 2161.43 802.816C2180.64 824.301 2208.96 835.043 2246.39 835.043ZM2604.3 278.891C2604.3 274.659 2605.44 271.078 2607.72 268.148C2610.32 264.893 2613.74 260.661 2617.97 255.453C2627.09 245.036 2637.5 234.294 2649.22 223.227C2661.27 211.833 2673.31 200.928 2685.36 190.512C2692.84 184.327 2698.54 181.234 2702.45 181.234C2706.35 181.234 2712.21 184.327 2720.02 190.512C2745.41 212.322 2767.55 233.969 2786.43 255.453C2790.34 260.336 2793.59 264.405 2796.2 267.66C2799.12 270.915 2800.59 274.659 2800.59 278.891C2800.59 283.122 2799.12 286.866 2796.2 290.121C2793.59 293.051 2790.17 297.283 2785.94 302.816C2777.15 312.908 2766.9 323.487 2755.18 334.555C2743.79 345.622 2732.07 356.365 2720.02 366.781C2715.79 370.688 2712.37 373.292 2709.77 374.594C2707.17 375.57 2704.72 376.059 2702.45 376.059C2700.17 376.059 2697.73 375.57 2695.12 374.594C2692.84 373.292 2689.26 370.688 2684.38 366.781C2671.36 356.365 2659.31 345.622 2648.25 334.555C2637.18 323.161 2627.09 312.257 2617.97 301.84C2613.74 296.632 2610.32 292.562 2607.72 289.633C2605.44 286.703 2604.3 283.122 2604.3 278.891ZM2624.81 902.426V466.879C2624.81 457.113 2626.76 450.44 2630.67 446.859C2634.9 442.953 2641.9 441 2651.66 441H2752.25C2762.02 441 2768.85 442.953 2772.76 446.859C2776.99 450.44 2779.11 457.113 2779.11 466.879V932.211C2779.11 982.667 2772.27 1023.68 2758.6 1055.26C2744.93 1087.16 2727.67 1112.22 2706.84 1130.45C2686.01 1149.01 2664.85 1163.66 2643.36 1174.4C2631.64 1180.26 2621.39 1177.98 2612.6 1167.56L2553.03 1094.81C2547.82 1088.62 2545.22 1083.25 2545.22 1078.7C2545.22 1074.46 2548.64 1070.07 2555.47 1065.51C2562.63 1060.63 2571.59 1053.14 2582.33 1043.05C2593.4 1032.96 2603.16 1016.85 2611.62 994.711C2620.41 972.901 2624.81 942.139 2624.81 902.426Z" fill="black"/>
<path d="M3885.66 953.207C3803.63 953.207 3738.69 931.397 3690.84 887.777C3642.99 844.158 3619.06 779.216 3619.06 692.953C3619.06 604.411 3643.8 538.331 3693.28 494.711C3743.09 450.766 3809.49 428.793 3892.5 428.793C3972.58 428.793 4036.71 450.44 4084.88 493.734C4133.06 536.703 4157.15 600.18 4157.15 684.164C4157.15 771.729 4133.06 838.461 4084.88 884.359C4036.71 930.258 3970.3 953.207 3885.66 953.207ZM3890.55 835.043C3926.35 835.043 3953.37 823.975 3971.6 801.84C3989.83 779.379 3998.95 741.13 3998.95 687.094C3998.95 635.661 3989.67 599.529 3971.11 578.695C3952.88 557.536 3925.7 546.957 3889.57 546.957C3854.74 546.957 3827.23 558.35 3807.05 581.137C3787.19 603.598 3777.27 640.219 3777.27 691C3777.27 744.06 3786.71 781.332 3805.59 802.816C3824.79 824.301 3853.11 835.043 3890.55 835.043ZM4745.53 629.965V915.121C4745.53 924.887 4743.41 931.723 4739.18 935.629C4735.27 939.21 4728.44 941 4718.67 941H4618.09C4608.32 941 4601.32 939.21 4597.09 935.629C4593.18 931.723 4591.23 924.887 4591.23 915.121V655.355C4591.23 619.874 4583.74 593.995 4568.77 577.719C4553.8 561.443 4533.45 553.305 4507.73 553.305C4482.02 553.305 4462.16 558.839 4448.16 569.906C4434.49 580.974 4423.91 594.971 4416.43 611.898V915.121C4416.43 924.887 4414.31 931.723 4410.08 935.629C4406.17 939.21 4399.34 941 4389.57 941H4288.98C4279.22 941 4272.22 939.21 4267.99 935.629C4264.08 931.723 4262.13 924.887 4262.13 915.121V505.941C4262.13 498.129 4263.76 492.107 4267.01 487.875C4273.85 478.76 4281.99 469.483 4291.43 460.043C4301.19 450.603 4313.07 440.512 4327.07 429.77C4331.3 426.514 4335.37 424.887 4339.28 424.887C4342.86 424.887 4346.93 426.514 4351.48 429.77C4365.16 440.512 4376.88 450.766 4386.64 460.531C4396.41 470.297 4405.03 480.388 4412.52 490.805H4414.96C4420.49 483.643 4428.8 475.342 4439.86 465.902C4450.93 456.137 4466.39 447.51 4486.25 440.023C4506.43 432.536 4532.15 428.793 4563.4 428.793C4594 428.793 4623.13 434.978 4650.8 447.348C4678.47 459.717 4701.09 480.551 4718.67 509.848C4736.58 539.145 4745.53 579.184 4745.53 629.965Z" fill="black"/>
<path d="M1057.1 1210C1064.46 1214.32 1072.89 1217.04 1081.45 1216.6C1090.01 1216.17 1097.91 1212.69 1103.7 1206.65C1109.48 1200.61 1112.82 1192.36 1113.23 1183.43C1113.65 1174.49 1111.05 1165.69 1106.9 1158C1106.9 1158 1106.9 1158 1106.9 1158C1102.31 1149.55 1097.55 1141.29 1092.61 1133.21C1072.86 1100.88 1050.3 1071.47 1024.93 1044.99C977.373 995.349 929.815 945.704 882.257 896.059C841.04 853.033 808.31 801.149 784.066 740.405C780.337 731.06 776.808 721.505 773.48 711.74C763.512 682.309 738.611 670.099 710.815 670.946C682.953 671.863 653.319 686.973 629.592 711.74C605.866 736.508 591.391 767.443 590.513 796.528C589.701 825.543 601.398 851.537 629.592 861.942C629.592 861.942 629.592 861.942 629.592 861.942C638.946 865.416 648.1 869.099 657.052 872.993C715.242 898.3 764.946 932.467 806.163 975.492C853.721 1025.14 901.279 1074.78 948.837 1124.43C974.201 1150.9 1002.37 1174.45 1033.34 1195.08C1041.08 1200.23 1049 1205.21 1057.1 1210Z" fill="url(#paint4_linear_66_17)"/>
<path d="M82.9036 134.004C75.5403 129.675 67.1057 126.957 58.5459 127.397C49.9907 127.831 42.0865 131.31 36.3011 137.349C30.5156 143.388 27.1837 151.639 26.7672 160.57C26.346 169.505 28.9498 178.31 33.0964 185.996C33.0964 185.996 33.0964 185.996 33.0964 185.996C37.685 194.445 42.4489 202.711 47.3879 210.794C67.1443 243.125 89.7046 272.529 115.069 299.006C162.627 348.651 210.185 398.296 257.743 447.941C298.96 490.967 331.69 542.851 355.934 603.595C359.663 612.94 363.192 622.495 366.52 632.26C376.488 661.691 401.389 673.901 429.185 673.054C457.047 672.137 486.681 657.027 510.408 632.26C534.134 607.492 548.609 576.557 549.487 547.472C550.299 518.457 538.602 492.463 510.408 482.058C501.054 478.584 491.9 474.901 482.948 471.007C424.758 445.7 375.054 411.533 333.837 368.508C286.279 318.863 238.721 269.218 191.163 219.573C165.799 193.096 137.631 169.546 106.658 148.922C98.9154 143.766 90.9971 138.794 82.9036 134.004Z" fill="url(#paint5_linear_66_17)"/>
<ellipse cx="565.594" cy="675.12" rx="51.36" ry="53.6137" fill="url(#paint6_radial_66_17)" fill-opacity="0.68"/>
<ellipse cx="566.083" cy="675.12" rx="36.1966" ry="38.2955" fill="url(#paint7_radial_66_17)" fill-opacity="0.68"/>
<path d="M602.045 559.769C603.556 554.089 609.664 551.209 614.97 553.675C619.779 555.911 621.991 561.677 619.911 566.555L602.198 608.084C601.224 610.368 599.027 611.832 596.574 611.832C592.386 611.832 589.288 607.71 590.383 603.595L602.045 559.769Z" fill="url(#paint8_linear_66_17)"/>
<path d="M501.711 819.238C500.408 822.155 497.023 823.386 494.151 821.988C491.173 820.538 489.935 816.85 491.439 813.906L527.609 743.043C529.482 739.374 534.975 741.203 534.521 745.344C534.478 745.736 534.375 746.117 534.215 746.473L501.711 819.238Z" fill="url(#paint9_linear_66_17)"/>
<path d="M661.413 684.024C666.847 686.438 668.47 693.667 664.616 698.294C661.486 702.053 656.011 702.436 652.387 699.148L638.231 686.302C635.879 684.168 635.59 680.471 637.581 677.993C639.185 675.998 641.855 675.336 644.163 676.362L661.413 684.024Z" fill="url(#paint10_linear_66_17)"/>
<path d="M623.224 755.41C625.178 760.216 623.834 765.83 619.902 769.285C611.701 776.492 599.326 769.859 600.669 758.978L602.977 740.276C603.289 737.749 604.901 735.559 607.199 734.54C610.727 732.977 614.765 734.608 616.218 738.182L623.224 755.41Z" fill="url(#paint11_linear_66_17)"/>
<path d="M484.216 602.263C482.425 599.954 482.782 596.553 485.014 594.666C487.414 592.637 490.953 593.206 492.617 595.888L505.833 617.193C506.971 619.027 506.497 621.485 504.763 622.743C503.082 623.963 500.793 623.633 499.516 621.986L484.216 602.263Z" fill="url(#paint12_linear_66_17)"/>
<path d="M766.946 566.463C772.248 563.663 778.665 566.052 780.824 571.63C782.857 576.881 780.298 582.913 775.109 585.101L697.311 617.913C694.344 619.164 690.973 618.036 689.375 615.256C687.506 612.005 688.751 607.759 692.091 605.995L766.946 566.463Z" fill="url(#paint13_linear_66_17)"/>
<path d="M390.304 798.721C385.024 808.204 372.257 809.205 365.845 800.638C360.2 793.096 362.552 782.002 370.75 777.504L389.526 767.2C393.416 765.064 398.197 766.284 400.649 770.038C402.506 772.881 402.624 776.597 400.952 779.598L390.304 798.721Z" fill="url(#paint14_linear_66_17)"/>
<path d="M385.986 685.43C380.292 685.534 375.599 681.002 375.503 675.308C375.403 669.303 380.435 664.475 386.43 664.825L468.59 669.625C472.371 669.846 475.321 672.974 475.321 676.762C475.321 680.669 472.188 683.86 468.282 683.931L385.986 685.43Z" fill="url(#paint15_linear_66_17)"/>
</g>
<defs>
<linearGradient id="paint0_linear_66_17" x1="3262.37" y1="659.336" x2="2846.37" y2="1117.34" gradientUnits="userSpaceOnUse">
<stop offset="0.2"/>
<stop offset="1" stop-color="#595959"/>
</linearGradient>
<linearGradient id="paint1_linear_66_17" x1="3290.65" y1="636.642" x2="3707.65" y2="229.642" gradientUnits="userSpaceOnUse">
<stop offset="0.2"/>
<stop offset="1" stop-color="#595959"/>
</linearGradient>
<linearGradient id="paint2_linear_66_17" x1="3291.33" y1="658.622" x2="3708.33" y2="1020.62" gradientUnits="userSpaceOnUse">
<stop offset="0.2"/>
<stop offset="1" stop-color="#595959"/>
</linearGradient>
<linearGradient id="paint3_linear_66_17" x1="3261.61" y1="637.309" x2="2941.61" y2="230.309" gradientUnits="userSpaceOnUse">
<stop offset="0.2"/>
<stop offset="1" stop-color="#595959"/>
</linearGradient>
<linearGradient id="paint4_linear_66_17" x1="701.882" y1="786.48" x2="1098.67" y2="1166.59" gradientUnits="userSpaceOnUse">
<stop/>
<stop offset="1" stop-color="#787878"/>
</linearGradient>
<linearGradient id="paint5_linear_66_17" x1="438.118" y1="557.52" x2="41.3252" y2="177.407" gradientUnits="userSpaceOnUse">
<stop/>
<stop offset="1" stop-color="#787878"/>
</linearGradient>
<radialGradient id="paint6_radial_66_17" cx="0" cy="0" r="1" gradientUnits="userSpaceOnUse" gradientTransform="translate(565.594 675.12) rotate(90) scale(53.6137 51.36)">
<stop offset="0.567308" stop-color="#FF2410"/>
<stop offset="1" stop-color="#FF1500"/>
</radialGradient>
<radialGradient id="paint7_radial_66_17" cx="0" cy="0" r="1" gradientUnits="userSpaceOnUse" gradientTransform="translate(566.083 675.12) rotate(90) scale(38.2955 36.1966)">
<stop offset="0.591346" stop-color="#F7FF10"/>
<stop offset="1" stop-color="#FAA42B"/>
</radialGradient>
<linearGradient id="paint8_linear_66_17" x1="614.294" y1="553.361" x2="589.513" y2="606.68" gradientUnits="userSpaceOnUse">
<stop stop-color="#FF5D5D"/>
<stop offset="1" stop-color="#FFE580"/>
</linearGradient>
<linearGradient id="paint9_linear_66_17" x1="494.013" y1="821.921" x2="531.662" y2="744.575" gradientUnits="userSpaceOnUse">
<stop stop-color="#FF5D5D"/>
<stop offset="1" stop-color="#FFE580"/>
</linearGradient>
<linearGradient id="paint10_linear_66_17" x1="665.687" y1="697.009" x2="639.816" y2="675.465" gradientUnits="userSpaceOnUse">
<stop stop-color="#FF5D5D"/>
<stop offset="1" stop-color="#FFE580"/>
</linearGradient>
<linearGradient id="paint11_linear_66_17" x1="621.454" y1="765.722" x2="607.566" y2="734.379" gradientUnits="userSpaceOnUse">
<stop stop-color="#FF5D5D"/>
<stop offset="1" stop-color="#FFE580"/>
</linearGradient>
<linearGradient id="paint12_linear_66_17" x1="485.238" y1="594.476" x2="507.135" y2="620.38" gradientUnits="userSpaceOnUse">
<stop stop-color="#FF5D5D"/>
<stop offset="1" stop-color="#FFE580"/>
</linearGradient>
<linearGradient id="paint13_linear_66_17" x1="780.657" y1="571.197" x2="687.225" y2="607.359" gradientUnits="userSpaceOnUse">
<stop stop-color="#FF5D5D"/>
<stop offset="1" stop-color="#FFE580"/>
</linearGradient>
<linearGradient id="paint14_linear_66_17" x1="367.129" y1="802.353" x2="403.116" y2="775.419" gradientUnits="userSpaceOnUse">
<stop stop-color="#FF5D5D"/>
<stop offset="1" stop-color="#FFE580"/>
</linearGradient>
<linearGradient id="paint15_linear_66_17" x1="375.384" y1="668.137" x2="475.032" y2="666.471" gradientUnits="userSpaceOnUse">
<stop stop-color="#FF5D5D"/>
<stop offset="1" stop-color="#FFE580"/>
</linearGradient>
<clipPath id="clip0_66_17">
<rect width="4992" height="1343" fill="white"/>
</clipPath>
</defs>
</svg>
