<svg width="1024" height="1024" viewBox="0 0 1024 1024" fill="none" xmlns="http://www.w3.org/2000/svg">
<g clip-path="url(#clip0_78_20)">
<path d="M999.096 1050C1006.46 1054.32 1014.89 1057.04 1023.45 1056.6C1032.01 1056.17 1039.91 1052.69 1045.7 1046.65C1051.48 1040.61 1054.82 1032.36 1055.23 1023.43C1055.65 1014.49 1053.05 1005.69 1048.9 998.004C1048.9 998.004 1048.9 998.004 1048.9 998.004C1044.31 989.555 1039.55 981.289 1034.61 973.206C1014.86 940.875 992.295 911.471 966.931 884.994C919.373 835.349 871.815 785.704 824.257 736.059C783.04 693.033 750.31 641.149 726.066 580.405C722.337 571.06 718.808 561.505 715.48 551.74C705.512 522.309 680.611 510.099 652.815 510.946C624.953 511.863 595.319 526.973 571.592 551.74C547.866 576.508 533.391 607.443 532.513 636.528C531.701 665.543 543.398 691.537 571.592 701.942C571.592 701.942 571.592 701.942 571.592 701.942C580.946 705.416 590.1 709.099 599.052 712.993C657.242 738.3 706.946 772.467 748.163 815.492C795.721 865.137 843.279 914.782 890.837 964.427C916.201 990.904 944.369 1014.45 975.342 1035.08C983.085 1040.23 991.003 1045.21 999.096 1050Z" fill="url(#paint0_linear_78_20)"/>
<path d="M24.9036 -25.9964C17.5403 -30.3249 9.10575 -33.043 0.54586 -32.6033C-8.00929 -32.1686 -15.9135 -28.6904 -21.6989 -22.6511C-27.4844 -16.6118 -30.8163 -8.36074 -31.2328 0.569812C-31.654 9.50531 -29.0502 18.31 -24.9036 25.9964C-24.9036 25.9964 -24.9036 25.9964 -24.9036 25.9964C-20.315 34.445 -15.5511 42.7108 -10.6121 50.7936C9.14429 83.1249 31.7046 112.529 57.0689 139.006C104.627 188.651 152.185 238.296 199.743 287.941C240.96 330.967 273.69 382.851 297.934 443.595C301.663 452.94 305.192 462.495 308.52 472.26C318.488 501.691 343.389 513.901 371.185 513.054C399.047 512.137 428.681 497.027 452.408 472.26C476.134 447.492 490.609 416.557 491.487 387.472C492.299 358.457 480.602 332.463 452.408 322.058C443.054 318.584 433.9 314.901 424.948 311.007C366.758 285.7 317.054 251.533 275.837 208.508C228.279 158.863 180.721 109.218 133.163 59.5731C107.799 33.0958 79.6307 9.54554 48.6585 -11.0777C40.9154 -16.2335 32.9971 -21.2064 24.9036 -25.9964Z" fill="url(#paint1_linear_78_20)"/>
<ellipse cx="507.594" cy="515.12" rx="51.36" ry="53.6137" fill="url(#paint2_radial_78_20)" fill-opacity="0.68"/>
<ellipse cx="508.079" cy="515.12" rx="36.1966" ry="38.2955" fill="url(#paint3_radial_78_20)" fill-opacity="0.68"/>
<path d="M544.041 399.769C545.552 394.089 551.66 391.209 556.966 393.675C561.775 395.911 563.987 401.677 561.907 406.555L544.195 448.084C543.22 450.368 541.023 451.832 538.57 451.832C534.382 451.832 531.284 447.71 532.379 443.595L544.041 399.769Z" fill="url(#paint4_linear_78_20)"/>
<path d="M443.707 659.238C442.404 662.155 439.019 663.386 436.147 661.988C433.169 660.538 431.931 656.85 433.435 653.906L469.605 583.043C471.478 579.374 476.971 581.203 476.517 585.344C476.474 585.736 476.371 586.117 476.212 586.473L443.707 659.238Z" fill="url(#paint5_linear_78_20)"/>
<path d="M603.413 524.024C608.847 526.438 610.47 533.667 606.616 538.294C603.486 542.053 598.011 542.436 594.387 539.148L580.231 526.302C577.879 524.168 577.59 520.471 579.581 517.993C581.185 515.998 583.855 515.336 586.163 516.362L603.413 524.024Z" fill="url(#paint6_linear_78_20)"/>
<path d="M565.22 595.411C567.174 600.217 565.83 605.831 561.898 609.285C553.697 616.492 541.322 609.86 542.665 598.978L544.973 580.277C545.285 577.749 546.897 575.559 549.195 574.541C552.723 572.978 556.761 574.608 558.214 578.183L565.22 595.411Z" fill="url(#paint7_linear_78_20)"/>
<path d="M426.216 442.264C424.425 439.954 424.782 436.553 427.014 434.666C429.414 432.638 432.953 433.207 434.617 435.889L447.833 457.193C448.971 459.028 448.497 461.485 446.763 462.743C445.082 463.963 442.793 463.633 441.516 461.987L426.216 442.264Z" fill="url(#paint8_linear_78_20)"/>
<path d="M708.946 406.463C714.248 403.663 720.665 406.051 722.824 411.629C724.857 416.881 722.298 422.912 717.109 425.101L639.311 457.913C636.344 459.164 632.973 458.035 631.375 455.256C629.506 452.004 630.751 447.758 634.091 445.994L708.946 406.463Z" fill="url(#paint9_linear_78_20)"/>
<path d="M332.304 638.721C327.024 648.204 314.257 649.205 307.845 640.638C302.2 633.096 304.552 622.002 312.75 617.504L331.526 607.2C335.416 605.064 340.197 606.284 342.649 610.038C344.506 612.881 344.624 616.597 342.952 619.598L332.304 638.721Z" fill="url(#paint10_linear_78_20)"/>
<path d="M327.986 525.43C322.292 525.534 317.599 521.002 317.503 515.308C317.403 509.303 322.435 504.475 328.43 504.825L410.59 509.625C414.371 509.846 417.321 512.974 417.321 516.762C417.321 520.669 414.188 523.86 410.282 523.931L327.986 525.43Z" fill="url(#paint11_linear_78_20)"/>
</g>
<defs>
<linearGradient id="paint0_linear_78_20" x1="643.882" y1="626.48" x2="1040.67" y2="1006.59" gradientUnits="userSpaceOnUse">
<stop/>
<stop offset="1" stop-color="#787878"/>
</linearGradient>
<linearGradient id="paint1_linear_78_20" x1="380.118" y1="397.52" x2="-16.6748" y2="17.4065" gradientUnits="userSpaceOnUse">
<stop/>
<stop offset="1" stop-color="#787878"/>
</linearGradient>
<radialGradient id="paint2_radial_78_20" cx="0" cy="0" r="1" gradientUnits="userSpaceOnUse" gradientTransform="translate(507.594 515.12) rotate(90) scale(53.6137 51.36)">
<stop offset="0.567308" stop-color="#FF2410"/>
<stop offset="1" stop-color="#FF1500"/>
</radialGradient>
<radialGradient id="paint3_radial_78_20" cx="0" cy="0" r="1" gradientUnits="userSpaceOnUse" gradientTransform="translate(508.079 515.12) rotate(90) scale(38.2955 36.1966)">
<stop offset="0.591346" stop-color="#F7FF10"/>
<stop offset="1" stop-color="#FAA42B"/>
</radialGradient>
<linearGradient id="paint4_linear_78_20" x1="556.29" y1="393.361" x2="531.51" y2="446.68" gradientUnits="userSpaceOnUse">
<stop stop-color="#FF5D5D"/>
<stop offset="1" stop-color="#FFE580"/>
</linearGradient>
<linearGradient id="paint5_linear_78_20" x1="436.009" y1="661.921" x2="473.658" y2="584.575" gradientUnits="userSpaceOnUse">
<stop stop-color="#FF5D5D"/>
<stop offset="1" stop-color="#FFE580"/>
</linearGradient>
<linearGradient id="paint6_linear_78_20" x1="607.687" y1="537.009" x2="581.816" y2="515.465" gradientUnits="userSpaceOnUse">
<stop stop-color="#FF5D5D"/>
<stop offset="1" stop-color="#FFE580"/>
</linearGradient>
<linearGradient id="paint7_linear_78_20" x1="563.45" y1="605.722" x2="549.562" y2="574.379" gradientUnits="userSpaceOnUse">
<stop stop-color="#FF5D5D"/>
<stop offset="1" stop-color="#FFE580"/>
</linearGradient>
<linearGradient id="paint8_linear_78_20" x1="427.238" y1="434.477" x2="449.135" y2="460.381" gradientUnits="userSpaceOnUse">
<stop stop-color="#FF5D5D"/>
<stop offset="1" stop-color="#FFE580"/>
</linearGradient>
<linearGradient id="paint9_linear_78_20" x1="722.657" y1="411.196" x2="629.225" y2="447.358" gradientUnits="userSpaceOnUse">
<stop stop-color="#FF5D5D"/>
<stop offset="1" stop-color="#FFE580"/>
</linearGradient>
<linearGradient id="paint10_linear_78_20" x1="309.129" y1="642.353" x2="345.116" y2="615.419" gradientUnits="userSpaceOnUse">
<stop stop-color="#FF5D5D"/>
<stop offset="1" stop-color="#FFE580"/>
</linearGradient>
<linearGradient id="paint11_linear_78_20" x1="317.384" y1="508.137" x2="417.032" y2="506.471" gradientUnits="userSpaceOnUse">
<stop stop-color="#FF5D5D"/>
<stop offset="1" stop-color="#FFE580"/>
</linearGradient>
<clipPath id="clip0_78_20">
<rect width="1024" height="1024" fill="white"/>
</clipPath>
</defs>
</svg>
