<svg width="1024" height="1024" viewBox="0 0 1024 1024" fill="none" xmlns="http://www.w3.org/2000/svg">
<g clip-path="url(#clip0_78_20)">
<path d="M1005.14 1043.05C1012.67 1047.29 1021.29 1049.95 1030.04 1049.52C1038.78 1049.1 1046.86 1045.69 1052.78 1039.78C1058.69 1033.86 1062.1 1025.78 1062.52 1017.04C1062.95 1008.29 1060.29 999.668 1056.05 992.142C1056.05 992.142 1056.05 992.142 1056.05 992.142C1051.36 983.869 1046.49 975.775 1041.44 967.86C1021.25 936.2 998.189 907.407 972.261 881.48C923.648 832.866 875.034 784.252 826.421 735.639C784.289 693.507 750.832 642.7 726.05 583.219C722.237 574.068 718.63 564.712 715.228 555.15C705.04 526.331 679.586 514.375 651.174 515.204C622.694 516.102 592.402 530.897 568.15 555.15C543.897 579.402 529.102 609.694 528.204 638.174C527.375 666.586 539.331 692.04 568.15 702.228C568.15 702.228 568.15 702.228 568.15 702.228C577.712 705.63 587.068 709.237 596.219 713.05C655.7 737.832 706.507 771.289 748.639 813.421C797.252 862.034 845.866 910.648 894.48 959.261C920.407 985.189 949.2 1008.25 980.86 1028.44C988.775 1033.49 996.869 1038.36 1005.14 1043.05Z" fill="url(#paint0_linear_78_20)"/>
<path d="M9.32498 -10.5867C1.79846 -14.8253 -6.82317 -17.4869 -15.5729 -17.0563C-24.3178 -16.6306 -32.3973 -13.2248 -38.311 -7.31103C-44.2248 -1.39729 -47.6306 6.68223 -48.0563 15.4271C-48.4869 24.1768 -45.8253 32.7985 -41.5867 40.325C-41.5867 40.325 -41.5867 40.325 -41.5867 40.325C-36.8962 48.5981 -32.0266 56.6921 -26.9779 64.607C-6.7829 96.2665 16.2782 125.06 42.2055 150.987C90.819 199.601 139.433 248.214 188.046 296.828C230.178 338.96 263.635 389.766 288.417 449.248C292.23 458.399 295.837 467.755 299.239 477.317C309.427 506.136 334.881 518.092 363.293 517.263C391.773 516.365 422.064 501.57 446.317 477.317C470.57 453.064 485.365 422.773 486.263 394.293C487.092 365.881 475.136 340.427 446.317 330.239C436.755 326.837 427.399 323.23 418.248 319.417C358.766 294.635 307.96 261.178 265.828 219.046C217.214 170.433 168.601 121.819 119.987 73.2055C94.0599 47.2782 65.2665 24.2171 33.607 4.02213C25.6921 -1.02662 17.5981 -5.89622 9.32498 -10.5867Z" fill="url(#paint1_linear_78_20)"/>
<circle cx="507.268" cy="527.5" r="52.5" fill="url(#paint2_radial_78_20)" fill-opacity="0.68"/>
<ellipse cx="507.768" cy="527.5" rx="37" ry="37.5" fill="url(#paint3_radial_78_20)" fill-opacity="0.68"/>
<path d="M544.439 414.867C546.028 409.143 552.334 406.171 557.76 408.587C562.665 410.771 564.871 416.518 562.687 421.423L544.756 461.698C543.719 464.027 541.408 465.527 538.859 465.527C534.59 465.527 531.497 461.458 532.64 457.345L544.439 414.867Z" fill="url(#paint4_linear_78_20)"/>
<path d="M442.03 668.483C440.662 671.417 437.174 672.686 434.241 671.318C431.196 669.898 429.965 666.215 431.545 663.25L468.427 594.03C470.386 590.354 475.98 592.096 475.506 596.234C475.46 596.637 475.348 597.031 475.177 597.399L442.03 668.483Z" fill="url(#paint5_linear_78_20)"/>
<path d="M605.281 536.247C610.806 538.598 612.431 545.653 608.492 550.184C605.289 553.869 599.704 554.26 596.019 551.056L581.485 538.422C579.097 536.347 578.813 532.74 580.847 530.316C582.488 528.361 585.214 527.708 587.562 528.707L605.281 536.247Z" fill="url(#paint6_linear_78_20)"/>
<path d="M566.075 605.89C568.127 610.726 566.785 616.336 562.766 619.719C554.422 626.743 541.799 619.853 543.192 609.036L545.47 591.355C545.794 588.843 547.426 586.691 549.757 585.701C553.383 584.162 557.57 585.854 559.109 589.48L566.075 605.89Z" fill="url(#paint7_linear_78_20)"/>
<path d="M424.111 456.191C422.265 453.911 422.616 450.566 424.897 448.719C427.35 446.732 430.984 447.31 432.7 449.96L446.164 470.751C447.337 472.562 446.861 474.977 445.089 476.209C443.369 477.404 441.018 477.069 439.7 475.441L424.111 456.191Z" fill="url(#paint8_linear_78_20)"/>
<path d="M713.405 420.94C718.66 418.282 725.063 420.687 727.269 426.146C729.35 431.296 726.862 437.158 721.712 439.238L641.717 471.558C638.791 472.741 635.439 471.618 633.815 468.911C631.898 465.718 633.096 461.569 636.419 459.888L713.405 420.94Z" fill="url(#paint9_linear_78_20)"/>
<path d="M327.978 648.723C322.624 657.934 309.658 658.822 303.099 650.426C297.319 643.028 299.646 632.201 307.957 627.832L327.364 617.629C331.298 615.561 336.158 616.772 338.661 620.444C340.559 623.228 340.69 626.854 338.997 629.767L327.978 648.723Z" fill="url(#paint10_linear_78_20)"/>
<path d="M323.248 537.603C317.663 537.7 313.056 533.251 312.958 527.666C312.856 521.789 317.768 517.062 323.637 517.391L408.383 522.134C412.091 522.342 414.992 525.409 414.992 529.123C414.992 532.941 411.932 536.055 408.114 536.121L323.248 537.603Z" fill="url(#paint11_linear_78_20)"/>
</g>
<defs>
<linearGradient id="paint0_linear_78_20" x1="642.042" y1="628.335" x2="1030.95" y2="1017.24" gradientUnits="userSpaceOnUse">
<stop/>
<stop offset="1" stop-color="#787878"/>
</linearGradient>
<linearGradient id="paint1_linear_78_20" x1="372.424" y1="404.131" x2="-16.4844" y2="15.2227" gradientUnits="userSpaceOnUse">
<stop/>
<stop offset="1" stop-color="#787878"/>
</linearGradient>
<radialGradient id="paint2_radial_78_20" cx="0" cy="0" r="1" gradientUnits="userSpaceOnUse" gradientTransform="translate(507.268 527.5) rotate(90) scale(52.5)">
<stop offset="0.567308" stop-color="#FF2410"/>
<stop offset="1" stop-color="#FF1500"/>
</radialGradient>
<radialGradient id="paint3_radial_78_20" cx="0" cy="0" r="1" gradientUnits="userSpaceOnUse" gradientTransform="translate(507.768 527.5) rotate(90) scale(37.5 37)">
<stop offset="0.591346" stop-color="#F7FF10"/>
<stop offset="1" stop-color="#FAA42B"/>
</radialGradient>
<linearGradient id="paint4_linear_78_20" x1="557.049" y1="408.271" x2="533.459" y2="461.256" gradientUnits="userSpaceOnUse">
<stop stop-color="#FF5D5D"/>
<stop offset="1" stop-color="#FFE580"/>
</linearGradient>
<linearGradient id="paint5_linear_78_20" x1="434.095" y1="671.25" x2="469.979" y2="594.298" gradientUnits="userSpaceOnUse">
<stop stop-color="#FF5D5D"/>
<stop offset="1" stop-color="#FFE580"/>
</linearGradient>
<linearGradient id="paint6_linear_78_20" x1="609.58" y1="548.932" x2="584.072" y2="526.758" gradientUnits="userSpaceOnUse">
<stop stop-color="#FF5D5D"/>
<stop offset="1" stop-color="#FFE580"/>
</linearGradient>
<linearGradient id="paint7_linear_78_20" x1="564.365" y1="616.22" x2="551.158" y2="585.108" gradientUnits="userSpaceOnUse">
<stop stop-color="#FF5D5D"/>
<stop offset="1" stop-color="#FFE580"/>
</linearGradient>
<linearGradient id="paint8_linear_78_20" x1="425.128" y1="448.532" x2="446.398" y2="474.798" gradientUnits="userSpaceOnUse">
<stop stop-color="#FF5D5D"/>
<stop offset="1" stop-color="#FFE580"/>
</linearGradient>
<linearGradient id="paint9_linear_78_20" x1="727.103" y1="425.735" x2="632.701" y2="463.876" gradientUnits="userSpaceOnUse">
<stop stop-color="#FF5D5D"/>
<stop offset="1" stop-color="#FFE580"/>
</linearGradient>
<linearGradient id="paint10_linear_78_20" x1="304.399" y1="652.09" x2="340.037" y2="624.246" gradientUnits="userSpaceOnUse">
<stop stop-color="#FF5D5D"/>
<stop offset="1" stop-color="#FFE580"/>
</linearGradient>
<linearGradient id="paint11_linear_78_20" x1="312.836" y1="520.662" x2="414.693" y2="518.884" gradientUnits="userSpaceOnUse">
<stop stop-color="#FF5D5D"/>
<stop offset="1" stop-color="#FFE580"/>
</linearGradient>
<clipPath id="clip0_78_20">
<rect width="1024" height="1024" fill="white"/>
</clipPath>
</defs>
</svg>
