<svg width="4992" height="1343" viewBox="0 0 4992 1343" fill="none" xmlns="http://www.w3.org/2000/svg">
<g clip-path="url(#clip0_78_77)">
<path d="M2818.19 1091.74C2813.98 1099.76 2811.55 1108.91 2812.41 1118.07C2813.27 1127.22 2817.25 1135.55 2823.77 1141.47C2830.29 1147.39 2838.96 1150.56 2848.15 1150.53C2857.35 1150.51 2866.23 1147.22 2873.81 1142.26C2873.81 1142.26 2873.81 1142.26 2873.81 1142.26C2882.7 1136.4 2891.39 1130.37 2899.89 1124.16C2933.89 1099.31 2964.75 1071.62 2992.48 1041.09C3044.48 983.837 3096.48 926.587 3148.48 869.337C3193.55 819.72 3248.09 778.711 3312.11 746.308C3321.96 741.323 3332.03 736.542 3342.33 731.965C3371.12 719.233 3382.23 692.032 3380.01 662.52C3377.72 632.946 3361.08 602.391 3334.96 578.669C3308.85 554.947 3276.84 541.319 3247.18 541.874C3217.59 542.492 3191.58 556.157 3181.67 586.035C3178.1 596.725 3174.31 607.21 3170.29 617.492C3144.17 684.323 3108.58 742.546 3063.52 792.163C3011.52 849.413 2959.52 906.663 2907.52 963.913C2879.78 994.446 2855.18 1027.82 2833.71 1064.04C2828.34 1073.1 2823.17 1082.33 2818.19 1091.74Z" fill="url(#paint0_linear_78_77)"/>
<path d="M3734.24 256.883C3738.79 249.094 3741.7 240.126 3741.36 230.979C3741.04 221.837 3737.58 213.348 3731.47 207.091C3725.37 200.834 3716.96 197.172 3707.83 196.623C3698.7 196.069 3689.66 198.754 3681.76 203.117C3681.76 203.117 3681.76 203.117 3681.76 203.117C3672.97 208.009 3664.35 213.089 3655.93 218.359C3622.22 239.439 3591.46 263.545 3563.66 290.679C3511.54 341.554 3459.41 392.429 3407.29 443.304C3362.11 487.395 3308 522.326 3244.94 548.095C3235.24 552.06 3225.32 555.807 3215.2 559.338C3185.15 569.752 3172.36 596.175 3172.86 625.817C3173.42 655.531 3188.41 687.263 3213.34 712.8C3238.26 738.336 3269.62 754.097 3299.31 755.379C3328.93 756.591 3355.66 744.455 3366.8 714.662C3366.8 714.662 3366.8 714.662 3366.8 714.662C3370.58 704.626 3374.56 694.807 3378.76 685.205C3406.05 622.791 3442.29 569.538 3487.46 525.446C3539.59 474.571 3591.71 423.696 3643.84 372.821C3671.64 345.688 3696.48 315.528 3718.37 282.341C3723.85 274.044 3729.13 265.558 3734.24 256.883Z" fill="url(#paint1_linear_78_77)"/>
<path d="M3683.37 1049.37C3691.54 1053.13 3700.69 1055.22 3709.73 1054.12C3718.77 1053.02 3726.89 1048.9 3732.58 1042.34C3738.28 1035.78 3741.22 1027.17 3741.03 1018.06C3740.86 1008.95 3737.5 1000.19 3732.63 992.633C3732.63 992.633 3732.63 992.633 3732.63 992.633C3727.41 984.603 3722.02 976.773 3716.45 969.143C3694.2 938.622 3669.17 911.294 3641.37 887.161C3589.25 841.911 3537.12 796.661 3485 751.411C3439.82 712.194 3403.04 663.31 3374.65 604.76C3370.28 595.752 3366.11 586.515 3362.14 577.05C3349.77 547.393 3322.44 536.775 3292.89 539.762C3263.28 542.829 3232.69 560.624 3209.05 587.858C3185.41 615.093 3172.09 647.878 3173.21 677.628C3174.4 707.299 3188.76 732.871 3219.86 740.95C3219.86 740.95 3219.86 740.95 3219.86 740.95C3229.79 743.551 3239.52 746.382 3249.05 749.44C3311.01 769.323 3364.58 798.872 3409.75 838.089C3461.88 883.339 3514 928.589 3566.13 973.839C3593.93 997.972 3624.5 1018.91 3657.85 1036.66C3666.18 1041.09 3674.69 1045.33 3683.37 1049.37Z" fill="url(#paint2_linear_78_77)"/>
<path d="M2971.53 206.782C2964.16 201.697 2955.59 198.004 2946.55 197.418C2937.51 196.828 2928.84 199.327 2922.07 204.648C2915.3 209.97 2910.82 217.811 2909.27 226.729C2907.7 235.652 2909.27 244.856 2912.47 253.218C2912.47 253.218 2912.47 253.218 2912.47 253.218C2915.72 261.635 2919.19 269.889 2922.86 277.98C2937.54 310.341 2955.55 340.089 2976.88 367.222C3016.88 418.097 3056.88 468.972 3096.88 519.847C3131.55 563.939 3156.15 615.943 3170.69 675.859C3172.93 685.077 3174.93 694.482 3176.69 704.075C3182.5 736.119 3207.26 751.762 3236.91 754.343C3266.64 756.855 3300.34 744.902 3329.07 722.311C3357.81 699.72 3377.38 669.79 3381.95 640.305C3386.44 610.888 3377.08 583.133 3347.31 569.925C3338.4 565.951 3329.74 561.789 3321.31 557.441C3266.51 529.174 3221.78 492.994 3187.12 448.903C3147.12 398.028 3107.12 347.153 3067.12 296.278C3045.78 269.144 3021.12 244.625 2993.14 222.72C2986.15 217.244 2978.94 211.931 2971.53 206.782Z" fill="url(#paint3_linear_78_77)"/>
<mask id="path-5-outside-1_78_77" maskUnits="userSpaceOnUse" x="1013" y="180" width="1789" height="999" fill="black">
<rect fill="white" x="1013" y="180" width="1789" height="999"/>
<path d="M1280.08 707.113C1271.62 707.113 1264.46 704.997 1258.6 700.766C1252.41 696.534 1245.09 690.512 1236.62 682.699C1228.16 674.887 1218.72 665.284 1208.3 653.891C1204.4 649.333 1202.45 645.264 1202.45 641.684C1202.45 638.103 1204.4 634.034 1208.3 629.477C1228.49 606.69 1246.88 589.926 1263.48 579.184C1267.39 576.579 1272.92 575.277 1280.08 575.277C1302.22 575.277 1321.26 566.977 1337.21 550.375C1353.49 533.773 1361.3 506.918 1360.65 469.809C1360.32 429.77 1350.39 401.775 1330.86 385.824C1311.66 369.874 1285.29 361.898 1251.76 361.898H1228.32C1206.84 361.898 1192.19 366.456 1184.38 375.57C1176.57 384.685 1172.66 400.31 1172.66 422.445V915.121C1172.66 924.887 1170.54 931.723 1166.31 935.629C1162.41 939.21 1155.57 941 1145.8 941H1041.8C1032.04 941 1025.04 939.21 1020.8 935.629C1016.9 931.723 1014.95 924.887 1014.95 915.121V371.664C1014.95 339.112 1017.88 313.396 1023.73 294.516C1029.92 275.31 1041.64 261.638 1058.89 253.5C1076.47 245.036 1102.02 240.805 1135.55 240.805H1251.76C1345.19 240.805 1414.36 259.197 1459.28 295.98C1504.2 332.439 1526.66 388.428 1526.66 463.949C1526.66 520.59 1514.78 566.814 1491.02 602.621C1467.58 638.428 1436.98 664.796 1399.22 681.723C1361.79 698.65 1322.07 707.113 1280.08 707.113ZM1756.64 533.773H1758.6C1783.01 466.065 1826.96 432.211 1890.43 432.211C1898.57 432.211 1905.24 432.699 1910.45 433.676C1915.66 434.327 1919.24 434.978 1921.2 435.629C1926.08 437.257 1928.52 441 1928.52 446.859V564.535C1928.52 574.626 1922.66 577.393 1910.94 572.836C1907.04 571.208 1901.34 569.581 1893.85 567.953C1886.69 566 1876.6 565.023 1863.58 565.023C1830.05 565.023 1803.85 577.393 1784.96 602.133C1766.08 626.547 1756.64 659.913 1756.64 702.23V915.121C1756.64 924.887 1754.53 931.723 1750.3 935.629C1746.39 939.21 1739.55 941 1729.79 941H1629.2C1619.44 941 1612.44 939.21 1608.21 935.629C1604.3 931.723 1602.35 924.887 1602.35 915.121V505.941C1602.35 498.129 1603.98 492.107 1607.23 487.875C1614.07 478.76 1622.2 469.483 1631.64 460.043C1641.41 450.603 1653.29 440.512 1667.29 429.77C1669.89 427.816 1672.5 426.514 1675.1 425.863C1677.71 425.212 1679.98 424.887 1681.94 424.887C1686.49 424.887 1691.05 426.514 1695.61 429.77C1722.63 450.928 1741.51 468.995 1752.25 483.969C1755.18 487.875 1756.64 492.432 1756.64 497.641V533.773ZM2241.51 953.207C2159.48 953.207 2094.54 931.397 2046.68 887.777C1998.83 844.158 1974.91 779.216 1974.91 692.953C1974.91 604.411 1999.65 538.331 2049.12 494.711C2098.93 450.766 2165.34 428.793 2248.34 428.793C2328.42 428.793 2392.55 450.44 2440.73 493.734C2488.9 536.703 2512.99 600.18 2512.99 684.164C2512.99 771.729 2488.9 838.461 2440.73 884.359C2392.55 930.258 2326.14 953.207 2241.51 953.207ZM2246.39 835.043C2282.2 835.043 2309.22 823.975 2327.45 801.84C2345.67 779.379 2354.79 741.13 2354.79 687.094C2354.79 635.661 2345.51 599.529 2326.96 578.695C2308.73 557.536 2281.55 546.957 2245.41 546.957C2210.58 546.957 2183.08 558.35 2162.89 581.137C2143.04 603.598 2133.11 640.219 2133.11 691C2133.11 744.06 2142.55 781.332 2161.43 802.816C2180.64 824.301 2208.96 835.043 2246.39 835.043ZM2604.3 278.891C2604.3 274.659 2605.44 271.078 2607.72 268.148C2610.32 264.893 2613.74 260.661 2617.97 255.453C2627.09 245.036 2637.5 234.294 2649.22 223.227C2661.27 211.833 2673.31 200.928 2685.36 190.512C2692.84 184.327 2698.54 181.234 2702.45 181.234C2706.35 181.234 2712.21 184.327 2720.02 190.512C2745.41 212.322 2767.55 233.969 2786.43 255.453C2790.34 260.336 2793.59 264.405 2796.2 267.66C2799.12 270.915 2800.59 274.659 2800.59 278.891C2800.59 283.122 2799.12 286.866 2796.2 290.121C2793.59 293.051 2790.17 297.283 2785.94 302.816C2777.15 312.908 2766.9 323.487 2755.18 334.555C2743.79 345.622 2732.07 356.365 2720.02 366.781C2715.79 370.688 2712.37 373.292 2709.77 374.594C2707.17 375.57 2704.72 376.059 2702.45 376.059C2700.17 376.059 2697.73 375.57 2695.12 374.594C2692.84 373.292 2689.26 370.688 2684.38 366.781C2671.36 356.365 2659.31 345.622 2648.25 334.555C2637.18 323.161 2627.09 312.257 2617.97 301.84C2613.74 296.632 2610.32 292.562 2607.72 289.633C2605.44 286.703 2604.3 283.122 2604.3 278.891ZM2624.81 902.426V466.879C2624.81 457.113 2626.76 450.44 2630.67 446.859C2634.9 442.953 2641.9 441 2651.66 441H2752.25C2762.02 441 2768.85 442.953 2772.76 446.859C2776.99 450.44 2779.11 457.113 2779.11 466.879V932.211C2779.11 982.667 2772.27 1023.68 2758.6 1055.26C2744.93 1087.16 2727.67 1112.22 2706.84 1130.45C2686.01 1149.01 2664.85 1163.66 2643.36 1174.4C2631.64 1180.26 2621.39 1177.98 2612.6 1167.56L2553.03 1094.81C2547.82 1088.62 2545.22 1083.25 2545.22 1078.7C2545.22 1074.46 2548.64 1070.07 2555.47 1065.51C2562.63 1060.63 2571.59 1053.14 2582.33 1043.05C2593.4 1032.96 2603.16 1016.85 2611.62 994.711C2620.41 972.901 2624.81 942.139 2624.81 902.426Z"/>
</mask>
<path d="M1280.08 707.113C1271.62 707.113 1264.46 704.997 1258.6 700.766C1252.41 696.534 1245.09 690.512 1236.62 682.699C1228.16 674.887 1218.72 665.284 1208.3 653.891C1204.4 649.333 1202.45 645.264 1202.45 641.684C1202.45 638.103 1204.4 634.034 1208.3 629.477C1228.49 606.69 1246.88 589.926 1263.48 579.184C1267.39 576.579 1272.92 575.277 1280.08 575.277C1302.22 575.277 1321.26 566.977 1337.21 550.375C1353.49 533.773 1361.3 506.918 1360.65 469.809C1360.32 429.77 1350.39 401.775 1330.86 385.824C1311.66 369.874 1285.29 361.898 1251.76 361.898H1228.32C1206.84 361.898 1192.19 366.456 1184.38 375.57C1176.57 384.685 1172.66 400.31 1172.66 422.445V915.121C1172.66 924.887 1170.54 931.723 1166.31 935.629C1162.41 939.21 1155.57 941 1145.8 941H1041.8C1032.04 941 1025.04 939.21 1020.8 935.629C1016.9 931.723 1014.95 924.887 1014.95 915.121V371.664C1014.95 339.112 1017.88 313.396 1023.73 294.516C1029.92 275.31 1041.64 261.638 1058.89 253.5C1076.47 245.036 1102.02 240.805 1135.55 240.805H1251.76C1345.19 240.805 1414.36 259.197 1459.28 295.98C1504.2 332.439 1526.66 388.428 1526.66 463.949C1526.66 520.59 1514.78 566.814 1491.02 602.621C1467.58 638.428 1436.98 664.796 1399.22 681.723C1361.79 698.65 1322.07 707.113 1280.08 707.113ZM1756.64 533.773H1758.6C1783.01 466.065 1826.96 432.211 1890.43 432.211C1898.57 432.211 1905.24 432.699 1910.45 433.676C1915.66 434.327 1919.24 434.978 1921.2 435.629C1926.08 437.257 1928.52 441 1928.52 446.859V564.535C1928.52 574.626 1922.66 577.393 1910.94 572.836C1907.04 571.208 1901.34 569.581 1893.85 567.953C1886.69 566 1876.6 565.023 1863.58 565.023C1830.05 565.023 1803.85 577.393 1784.96 602.133C1766.08 626.547 1756.64 659.913 1756.64 702.23V915.121C1756.64 924.887 1754.53 931.723 1750.3 935.629C1746.39 939.21 1739.55 941 1729.79 941H1629.2C1619.44 941 1612.44 939.21 1608.21 935.629C1604.3 931.723 1602.35 924.887 1602.35 915.121V505.941C1602.35 498.129 1603.98 492.107 1607.23 487.875C1614.07 478.76 1622.2 469.483 1631.64 460.043C1641.41 450.603 1653.29 440.512 1667.29 429.77C1669.89 427.816 1672.5 426.514 1675.1 425.863C1677.71 425.212 1679.98 424.887 1681.94 424.887C1686.49 424.887 1691.05 426.514 1695.61 429.77C1722.63 450.928 1741.51 468.995 1752.25 483.969C1755.18 487.875 1756.64 492.432 1756.64 497.641V533.773ZM2241.51 953.207C2159.48 953.207 2094.54 931.397 2046.68 887.777C1998.83 844.158 1974.91 779.216 1974.91 692.953C1974.91 604.411 1999.65 538.331 2049.12 494.711C2098.93 450.766 2165.34 428.793 2248.34 428.793C2328.42 428.793 2392.55 450.44 2440.73 493.734C2488.9 536.703 2512.99 600.18 2512.99 684.164C2512.99 771.729 2488.9 838.461 2440.73 884.359C2392.55 930.258 2326.14 953.207 2241.51 953.207ZM2246.39 835.043C2282.2 835.043 2309.22 823.975 2327.45 801.84C2345.67 779.379 2354.79 741.13 2354.79 687.094C2354.79 635.661 2345.51 599.529 2326.96 578.695C2308.73 557.536 2281.55 546.957 2245.41 546.957C2210.58 546.957 2183.08 558.35 2162.89 581.137C2143.04 603.598 2133.11 640.219 2133.11 691C2133.11 744.06 2142.55 781.332 2161.43 802.816C2180.64 824.301 2208.96 835.043 2246.39 835.043ZM2604.3 278.891C2604.3 274.659 2605.44 271.078 2607.72 268.148C2610.32 264.893 2613.74 260.661 2617.97 255.453C2627.09 245.036 2637.5 234.294 2649.22 223.227C2661.27 211.833 2673.31 200.928 2685.36 190.512C2692.84 184.327 2698.54 181.234 2702.45 181.234C2706.35 181.234 2712.21 184.327 2720.02 190.512C2745.41 212.322 2767.55 233.969 2786.43 255.453C2790.34 260.336 2793.59 264.405 2796.2 267.66C2799.12 270.915 2800.59 274.659 2800.59 278.891C2800.59 283.122 2799.12 286.866 2796.2 290.121C2793.59 293.051 2790.17 297.283 2785.94 302.816C2777.15 312.908 2766.9 323.487 2755.18 334.555C2743.79 345.622 2732.07 356.365 2720.02 366.781C2715.79 370.688 2712.37 373.292 2709.77 374.594C2707.17 375.57 2704.72 376.059 2702.45 376.059C2700.17 376.059 2697.73 375.57 2695.12 374.594C2692.84 373.292 2689.26 370.688 2684.38 366.781C2671.36 356.365 2659.31 345.622 2648.25 334.555C2637.18 323.161 2627.09 312.257 2617.97 301.84C2613.74 296.632 2610.32 292.562 2607.72 289.633C2605.44 286.703 2604.3 283.122 2604.3 278.891ZM2624.81 902.426V466.879C2624.81 457.113 2626.76 450.44 2630.67 446.859C2634.9 442.953 2641.9 441 2651.66 441H2752.25C2762.02 441 2768.85 442.953 2772.76 446.859C2776.99 450.44 2779.11 457.113 2779.11 466.879V932.211C2779.11 982.667 2772.27 1023.68 2758.6 1055.26C2744.93 1087.16 2727.67 1112.22 2706.84 1130.45C2686.01 1149.01 2664.85 1163.66 2643.36 1174.4C2631.64 1180.26 2621.39 1177.98 2612.6 1167.56L2553.03 1094.81C2547.82 1088.62 2545.22 1083.25 2545.22 1078.7C2545.22 1074.46 2548.64 1070.07 2555.47 1065.51C2562.63 1060.63 2571.59 1053.14 2582.33 1043.05C2593.4 1032.96 2603.16 1016.85 2611.62 994.711C2620.41 972.901 2624.81 942.139 2624.81 902.426Z" fill="white"/>
<path d="M1258.6 700.766L1259.18 699.955L1259.17 699.947L1259.16 699.94L1258.6 700.766ZM1208.3 653.891L1207.55 654.541L1207.56 654.554L1207.57 654.565L1208.3 653.891ZM1208.3 629.477L1207.56 628.814L1207.55 628.82L1207.55 628.826L1208.3 629.477ZM1263.48 579.184L1264.02 580.023L1264.04 580.016L1263.48 579.184ZM1337.21 550.375L1336.5 549.675L1336.49 549.682L1337.21 550.375ZM1360.65 469.809L1359.65 469.817L1359.65 469.826L1360.65 469.809ZM1330.86 385.824L1330.22 386.594L1330.23 386.599L1330.86 385.824ZM1166.31 935.629L1166.99 936.366L1166.99 936.364L1166.31 935.629ZM1020.8 935.629L1020.1 936.336L1020.13 936.365L1020.16 936.392L1020.8 935.629ZM1023.73 294.516L1022.78 294.209L1022.78 294.219L1023.73 294.516ZM1058.89 253.5L1059.32 254.404L1059.32 254.401L1058.89 253.5ZM1459.28 295.98L1458.65 296.754L1458.65 296.757L1459.28 295.98ZM1491.02 602.621L1490.19 602.068L1490.18 602.073L1491.02 602.621ZM1399.22 681.723L1398.81 680.81L1398.81 680.811L1399.22 681.723ZM1280.08 707.113V706.113C1271.79 706.113 1264.84 704.044 1259.18 699.955L1258.6 700.766L1258.01 701.576C1264.07 705.951 1271.45 708.113 1280.08 708.113V707.113ZM1258.6 700.766L1259.16 699.94C1253.03 695.746 1245.75 689.759 1237.3 681.964L1236.62 682.699L1235.95 683.434C1244.43 691.264 1251.79 697.321 1258.03 701.591L1258.6 700.766ZM1236.62 682.699L1237.3 681.964C1228.87 674.176 1219.45 664.595 1209.04 653.216L1208.3 653.891L1207.57 654.565C1218 665.973 1227.46 675.597 1235.95 683.434L1236.62 682.699ZM1208.3 653.891L1209.06 653.24C1205.22 648.751 1203.45 644.91 1203.45 641.684H1202.45H1201.45C1201.45 645.619 1203.58 649.916 1207.55 654.541L1208.3 653.891ZM1202.45 641.684H1203.45C1203.45 638.457 1205.22 634.617 1209.06 630.127L1208.3 629.477L1207.55 628.826C1203.58 633.451 1201.45 637.749 1201.45 641.684H1202.45ZM1208.3 629.477L1209.05 630.14C1229.2 607.389 1247.53 590.697 1264.02 580.023L1263.48 579.184L1262.94 578.344C1246.23 589.154 1227.77 605.992 1207.56 628.814L1208.3 629.477ZM1263.48 579.184L1264.04 580.016C1267.71 577.565 1273.02 576.277 1280.08 576.277V575.277V574.277C1272.82 574.277 1267.06 575.594 1262.93 578.352L1263.48 579.184ZM1280.08 575.277V576.277C1302.5 576.277 1321.8 567.857 1337.93 551.068L1337.21 550.375L1336.49 549.682C1320.72 566.096 1301.93 574.277 1280.08 574.277V575.277ZM1337.21 550.375L1337.93 551.075C1354.47 534.195 1362.3 507.014 1361.65 469.791L1360.65 469.809L1359.65 469.826C1360.3 506.822 1352.5 533.352 1336.5 549.675L1337.21 550.375ZM1360.65 469.809L1361.65 469.8C1361.32 429.638 1351.36 401.276 1331.5 385.05L1330.86 385.824L1330.23 386.599C1349.42 402.274 1359.32 429.901 1359.65 469.817L1360.65 469.809ZM1330.86 385.824L1331.5 385.055C1312.06 368.911 1285.44 360.898 1251.76 360.898V361.898V362.898C1285.14 362.898 1311.25 370.836 1330.22 386.594L1330.86 385.824ZM1251.76 361.898V360.898H1228.32V361.898V362.898H1251.76V361.898ZM1228.32 361.898V360.898C1206.76 360.898 1191.73 365.46 1183.62 374.92L1184.38 375.57L1185.14 376.221C1192.65 367.452 1206.92 362.898 1228.32 362.898V361.898ZM1184.38 375.57L1183.62 374.92C1175.57 384.316 1171.66 400.249 1171.66 422.445H1172.66H1173.66C1173.66 400.371 1177.57 385.054 1185.14 376.221L1184.38 375.57ZM1172.66 422.445H1171.66V915.121H1172.66H1173.66V422.445H1172.66ZM1172.66 915.121H1171.66C1171.66 924.792 1169.56 931.274 1165.63 934.894L1166.31 935.629L1166.99 936.364C1171.53 932.172 1173.66 924.981 1173.66 915.121H1172.66ZM1166.31 935.629L1165.64 934.892C1162.02 938.209 1155.51 940 1145.8 940V941V942C1155.63 942 1162.79 940.21 1166.99 936.366L1166.31 935.629ZM1145.8 941V940H1041.8V941V942H1145.8V941ZM1041.8 941V940C1032.11 940 1025.41 938.214 1021.45 934.866L1020.8 935.629L1020.16 936.392C1024.67 940.205 1031.96 942 1041.8 942V941ZM1020.8 935.629L1021.51 934.922C1017.89 931.303 1015.95 924.809 1015.95 915.121H1014.95H1013.95C1013.95 924.964 1015.9 932.142 1020.1 936.336L1020.8 935.629ZM1014.95 915.121H1015.95V371.664H1014.95H1013.95V915.121H1014.95ZM1014.95 371.664H1015.95C1015.95 339.156 1018.87 313.554 1024.69 294.812L1023.73 294.516L1022.78 294.219C1016.88 313.237 1013.95 339.067 1013.95 371.664H1014.95ZM1023.73 294.516L1024.69 294.822C1030.79 275.863 1042.33 262.417 1059.32 254.404L1058.89 253.5L1058.46 252.596C1040.95 260.859 1029.05 274.757 1022.78 294.209L1023.73 294.516ZM1058.89 253.5L1059.32 254.401C1076.7 246.034 1102.08 241.805 1135.55 241.805V240.805V239.805C1101.97 239.805 1076.23 244.039 1058.46 252.599L1058.89 253.5ZM1135.55 240.805V241.805H1251.76V240.805V239.805H1135.55V240.805ZM1251.76 240.805V241.805C1345.09 241.805 1413.98 260.183 1458.65 296.754L1459.28 295.98L1459.91 295.207C1414.73 258.211 1345.29 239.805 1251.76 239.805V240.805ZM1459.28 295.98L1458.65 296.757C1503.27 332.971 1525.66 388.631 1525.66 463.949H1526.66H1527.66C1527.66 388.226 1505.13 331.907 1459.91 295.204L1459.28 295.98ZM1526.66 463.949H1525.66C1525.66 520.455 1513.81 566.469 1490.19 602.068L1491.02 602.621L1491.85 603.174C1515.75 567.158 1527.66 520.725 1527.66 463.949H1526.66ZM1491.02 602.621L1490.18 602.073C1466.85 637.726 1436.39 663.964 1398.81 680.81L1399.22 681.723L1399.63 682.635C1437.57 665.627 1468.32 639.13 1491.86 603.169L1491.02 602.621ZM1399.22 681.723L1398.81 680.811C1361.51 697.679 1321.94 706.113 1280.08 706.113V707.113V708.113C1322.21 708.113 1362.07 699.621 1399.63 682.634L1399.22 681.723ZM1756.64 533.773H1755.64V534.773H1756.64V533.773ZM1758.6 533.773V534.773H1759.3L1759.54 534.113L1758.6 533.773ZM1910.45 433.676L1910.27 434.659L1910.3 434.664L1910.33 434.668L1910.45 433.676ZM1921.2 435.629L1921.51 434.68L1921.2 435.629ZM1910.94 572.836L1910.56 573.759L1910.57 573.764L1910.58 573.768L1910.94 572.836ZM1893.85 567.953L1893.59 568.918L1893.61 568.925L1893.64 568.93L1893.85 567.953ZM1784.96 602.133L1785.76 602.745L1785.76 602.739L1784.96 602.133ZM1750.3 935.629L1750.97 936.366L1750.98 936.364L1750.3 935.629ZM1608.21 935.629L1607.5 936.336L1607.53 936.365L1607.56 936.392L1608.21 935.629ZM1607.23 487.875L1608.02 488.485L1608.03 488.475L1607.23 487.875ZM1631.64 460.043L1630.95 459.324L1630.94 459.33L1630.94 459.336L1631.64 460.043ZM1667.29 429.77L1666.69 428.969L1666.68 428.976L1667.29 429.77ZM1695.61 429.77L1696.23 428.982L1696.21 428.969L1696.19 428.956L1695.61 429.77ZM1752.25 483.969L1751.44 484.552L1751.44 484.56L1751.45 484.569L1752.25 483.969ZM1756.64 533.773V534.773H1758.6V533.773V532.773H1756.64V533.773ZM1758.6 533.773L1759.54 534.113C1771.7 500.385 1788.69 475.174 1810.48 458.394C1832.25 441.62 1858.88 433.211 1890.43 433.211V432.211V431.211C1858.51 431.211 1831.43 439.729 1809.26 456.809C1787.09 473.883 1769.91 499.453 1757.66 533.434L1758.6 533.773ZM1890.43 432.211V433.211C1898.54 433.211 1905.14 433.698 1910.27 434.659L1910.45 433.676L1910.64 432.693C1905.35 431.701 1898.6 431.211 1890.43 431.211V432.211ZM1910.45 433.676L1910.33 434.668C1915.54 435.32 1919.03 435.962 1920.88 436.578L1921.2 435.629L1921.51 434.68C1919.45 433.994 1915.78 433.334 1910.58 432.684L1910.45 433.676ZM1921.2 435.629L1920.88 436.578C1923.14 437.331 1924.77 438.549 1925.85 440.203C1926.94 441.869 1927.52 444.064 1927.52 446.859H1928.52H1929.52C1929.52 443.795 1928.88 441.189 1927.53 439.111C1926.16 437.022 1924.13 435.554 1921.51 434.68L1921.2 435.629ZM1928.52 446.859H1927.52V564.535H1928.52H1929.52V446.859H1928.52ZM1928.52 564.535H1927.52C1927.52 569.433 1926.1 572.138 1923.7 573.274C1921.17 574.47 1917.12 574.166 1911.3 571.904L1910.94 572.836L1910.58 573.768C1916.48 576.063 1921.22 576.655 1924.55 575.083C1928.01 573.452 1929.52 569.728 1929.52 564.535H1928.52ZM1910.94 572.836L1911.33 571.913C1907.34 570.251 1901.57 568.608 1894.06 566.976L1893.85 567.953L1893.64 568.93C1901.11 570.554 1906.73 572.166 1910.56 573.759L1910.94 572.836ZM1893.85 567.953L1894.11 566.988C1886.83 565.001 1876.63 564.023 1863.58 564.023V565.023V566.023C1876.57 566.023 1886.55 566.999 1893.59 568.918L1893.85 567.953ZM1863.58 565.023V564.023C1829.77 564.023 1803.26 576.517 1784.17 601.526L1784.96 602.133L1785.76 602.739C1804.43 578.269 1830.33 566.023 1863.58 566.023V565.023ZM1784.96 602.133L1784.17 601.521C1765.12 626.165 1755.64 659.772 1755.64 702.23H1756.64H1757.64C1757.64 660.053 1767.05 626.929 1785.76 602.745L1784.96 602.133ZM1756.64 702.23H1755.64V915.121H1756.64H1757.64V702.23H1756.64ZM1756.64 915.121H1755.64C1755.64 924.792 1753.54 931.274 1749.62 934.894L1750.3 935.629L1750.98 936.364C1755.52 932.172 1757.64 924.981 1757.64 915.121H1756.64ZM1750.3 935.629L1749.62 934.892C1746 938.209 1739.49 940 1729.79 940V941V942C1739.62 942 1746.78 940.21 1750.97 936.366L1750.3 935.629ZM1729.79 941V940H1629.2V941V942H1729.79V941ZM1629.2 941V940C1619.51 940 1612.81 938.214 1608.85 934.866L1608.21 935.629L1607.56 936.392C1612.07 940.205 1619.36 942 1629.2 942V941ZM1608.21 935.629L1608.91 934.922C1605.3 931.303 1603.35 924.809 1603.35 915.121H1602.35H1601.35C1601.35 924.964 1603.31 932.142 1607.5 936.336L1608.21 935.629ZM1602.35 915.121H1603.35V505.941H1602.35H1601.35V915.121H1602.35ZM1602.35 505.941H1603.35C1603.35 498.251 1604.95 492.477 1608.02 488.485L1607.23 487.875L1606.44 487.265C1603 491.736 1601.35 498.007 1601.35 505.941H1602.35ZM1607.23 487.875L1608.03 488.475C1614.83 479.404 1622.94 470.162 1632.35 460.75L1631.64 460.043L1630.94 459.336C1621.47 468.804 1613.3 478.117 1606.43 487.275L1607.23 487.875ZM1631.64 460.043L1632.34 460.762C1642.07 451.355 1653.92 441.288 1667.9 430.563L1667.29 429.77L1666.68 428.976C1652.66 439.735 1640.75 449.851 1630.95 459.324L1631.64 460.043ZM1667.29 429.77L1667.89 430.57C1670.41 428.68 1672.89 427.446 1675.34 426.833L1675.1 425.863L1674.86 424.893C1672.1 425.583 1669.38 426.953 1666.69 428.97L1667.29 429.77ZM1675.1 425.863L1675.34 426.833C1677.9 426.195 1680.09 425.887 1681.94 425.887V424.887V423.887C1679.88 423.887 1677.52 424.229 1674.86 424.893L1675.1 425.863ZM1681.94 424.887V425.887C1686.24 425.887 1690.6 427.421 1695.03 430.583L1695.61 429.77L1696.19 428.956C1691.5 425.608 1686.75 423.887 1681.94 423.887V424.887ZM1695.61 429.77L1694.99 430.557C1721.99 451.698 1740.78 469.695 1751.44 484.552L1752.25 483.969L1753.06 483.386C1742.24 468.295 1723.27 450.158 1696.23 428.982L1695.61 429.77ZM1752.25 483.969L1751.45 484.569C1754.24 488.29 1755.64 492.633 1755.64 497.641H1756.64H1757.64C1757.64 492.231 1756.12 487.46 1753.05 483.369L1752.25 483.969ZM1756.64 497.641H1755.64V533.773H1756.64H1757.64V497.641H1756.64ZM2049.12 494.711L2049.79 495.461L2049.79 495.461L2049.12 494.711ZM2440.73 493.734L2440.06 494.478L2440.06 494.481L2440.73 493.734ZM2440.73 884.359L2440.04 883.635L2440.73 884.359ZM2327.45 801.84L2328.22 802.476L2328.22 802.47L2327.45 801.84ZM2326.96 578.695L2326.2 579.348L2326.2 579.354L2326.21 579.36L2326.96 578.695ZM2162.89 581.137L2162.15 580.474L2162.15 580.474L2162.89 581.137ZM2161.43 802.816L2160.68 803.477L2160.68 803.483L2161.43 802.816ZM2241.51 953.207V952.207C2159.66 952.207 2094.98 930.449 2047.36 887.038L2046.68 887.777L2046.01 888.516C2094.09 932.345 2159.3 954.207 2241.51 954.207V953.207ZM2046.68 887.777L2047.36 887.038C1999.78 843.665 1975.91 779.033 1975.91 692.953H1974.91H1973.91C1973.91 779.399 1997.89 844.65 2046.01 888.516L2046.68 887.777ZM1974.91 692.953H1975.91C1975.91 604.595 2000.59 538.832 2049.79 495.461L2049.12 494.711L2048.46 493.961C1998.7 537.829 1973.91 604.228 1973.91 692.953H1974.91ZM2049.12 494.711L2049.79 495.461C2099.37 451.714 2165.52 429.793 2248.34 429.793V428.793V427.793C2165.16 427.793 2098.49 449.817 2048.46 493.961L2049.12 494.711ZM2248.34 428.793V429.793C2328.24 429.793 2392.11 451.385 2440.06 494.478L2440.73 493.734L2441.39 492.991C2392.99 449.495 2328.61 427.793 2248.34 427.793V428.793ZM2440.73 493.734L2440.06 494.481C2487.97 537.207 2511.99 600.374 2511.99 684.164H2512.99H2513.99C2513.99 599.986 2489.84 536.2 2441.39 492.988L2440.73 493.734ZM2512.99 684.164H2511.99C2511.99 771.546 2487.96 837.98 2440.04 883.635L2440.73 884.359L2441.42 885.083C2489.85 838.942 2513.99 771.912 2513.99 684.164H2512.99ZM2440.73 884.359L2440.04 883.635C2392.09 929.312 2325.96 952.207 2241.51 952.207V953.207V954.207C2326.33 954.207 2393.01 931.204 2441.42 885.083L2440.73 884.359ZM2246.39 835.043V836.043C2282.42 836.043 2309.75 824.898 2328.22 802.476L2327.45 801.84L2326.67 801.204C2308.68 823.053 2281.98 834.043 2246.39 834.043V835.043ZM2327.45 801.84L2328.22 802.47C2346.68 779.731 2355.79 741.186 2355.79 687.094H2354.79H2353.79C2353.79 741.075 2344.67 779.026 2326.67 801.21L2327.45 801.84ZM2354.79 687.094H2355.79C2355.79 635.6 2346.51 599.149 2327.7 578.03L2326.96 578.695L2326.21 579.36C2344.51 599.909 2353.79 635.723 2353.79 687.094H2354.79ZM2326.96 578.695L2327.71 578.043C2309.24 556.602 2281.75 545.957 2245.41 545.957V546.957V547.957C2281.35 547.957 2308.21 558.471 2326.2 579.348L2326.96 578.695ZM2245.41 546.957V545.957C2210.34 545.957 2182.55 557.441 2162.15 580.474L2162.89 581.137L2163.64 581.8C2183.61 559.26 2210.82 547.957 2245.41 547.957V546.957ZM2162.89 581.137L2162.15 580.474C2142.05 603.208 2132.11 640.131 2132.11 691H2133.11H2134.11C2134.11 640.307 2144.03 603.987 2163.64 581.799L2162.89 581.137ZM2133.11 691H2132.11C2132.11 744.119 2141.55 781.707 2160.68 803.477L2161.43 802.816L2162.18 802.156C2143.55 780.957 2134.11 744.001 2134.11 691H2133.11ZM2161.43 802.816L2160.68 803.483C2180.13 825.239 2208.76 836.043 2246.39 836.043V835.043V834.043C2209.15 834.043 2181.14 823.363 2162.18 802.15L2161.43 802.816ZM2607.72 268.148L2606.94 267.524L2606.93 267.534L2607.72 268.148ZM2617.97 255.453L2617.22 254.795L2617.21 254.808L2617.2 254.823L2617.97 255.453ZM2649.22 223.227L2649.91 223.954L2649.91 223.953L2649.22 223.227ZM2685.36 190.512L2684.72 189.741L2684.71 189.748L2684.7 189.755L2685.36 190.512ZM2720.02 190.512L2720.68 189.753L2720.66 189.74L2720.64 189.728L2720.02 190.512ZM2786.43 255.453L2787.21 254.828L2787.2 254.81L2787.18 254.793L2786.43 255.453ZM2796.2 267.66L2795.41 268.285L2795.43 268.308L2795.45 268.329L2796.2 267.66ZM2796.2 290.121L2795.45 289.452L2795.45 289.457L2796.2 290.121ZM2785.94 302.816L2786.7 303.473L2786.72 303.449L2786.74 303.424L2785.94 302.816ZM2755.18 334.555L2754.49 333.828L2754.48 333.837L2755.18 334.555ZM2720.02 366.781L2719.37 366.025L2719.36 366.035L2719.35 366.046L2720.02 366.781ZM2709.77 374.594L2710.12 375.53L2710.17 375.512L2710.22 375.488L2709.77 374.594ZM2695.12 374.594L2694.62 375.462L2694.69 375.502L2694.77 375.53L2695.12 374.594ZM2684.38 366.781L2685 366L2684.38 366.781ZM2648.25 334.555L2647.53 335.251L2647.53 335.257L2647.54 335.262L2648.25 334.555ZM2617.97 301.84L2617.2 302.47L2617.21 302.485L2617.22 302.498L2617.97 301.84ZM2607.72 289.633L2606.93 290.247L2606.95 290.273L2606.97 290.297L2607.72 289.633ZM2630.67 446.859L2631.34 447.597L2631.35 447.594L2630.67 446.859ZM2772.76 446.859L2772.05 447.566L2772.08 447.596L2772.11 447.623L2772.76 446.859ZM2758.6 1055.26L2757.68 1054.86L2757.68 1054.86L2758.6 1055.26ZM2706.84 1130.45L2706.18 1129.7L2706.17 1129.71L2706.84 1130.45ZM2612.6 1167.56L2611.83 1168.2L2611.83 1168.2L2611.84 1168.21L2612.6 1167.56ZM2553.03 1094.81L2553.81 1094.18L2553.8 1094.16L2553.03 1094.81ZM2555.47 1065.51L2556.03 1066.34L2556.04 1066.34L2555.47 1065.51ZM2582.33 1043.05L2581.65 1042.31L2581.65 1042.32L2581.64 1042.32L2582.33 1043.05ZM2611.62 994.711L2610.7 994.337L2610.69 994.345L2610.69 994.354L2611.62 994.711ZM2604.3 278.891H2605.3C2605.3 274.849 2606.38 271.492 2608.51 268.762L2607.72 268.148L2606.93 267.534C2604.5 270.664 2603.3 274.469 2603.3 278.891H2604.3ZM2607.72 268.148L2608.5 268.773C2611.1 265.521 2614.52 261.291 2618.75 256.084L2617.97 255.453L2617.2 254.823C2612.96 260.032 2609.54 264.266 2606.94 267.524L2607.72 268.148ZM2617.97 255.453L2618.73 256.112C2627.82 245.722 2638.21 235.003 2649.91 223.954L2649.22 223.227L2648.54 222.5C2636.8 233.586 2626.36 244.351 2617.22 254.795L2617.97 255.453ZM2649.22 223.227L2649.91 223.953C2661.94 212.57 2673.98 201.675 2686.01 191.268L2685.36 190.512L2684.7 189.755C2672.65 200.182 2660.59 211.097 2648.54 222.5L2649.22 223.227ZM2685.36 190.512L2685.99 191.283C2689.71 188.213 2692.95 185.937 2695.72 184.433C2698.51 182.919 2700.73 182.234 2702.45 182.234V181.234V180.234C2700.25 180.234 2697.68 181.095 2694.77 182.675C2691.84 184.263 2688.49 186.625 2684.72 189.741L2685.36 190.512ZM2702.45 181.234V182.234C2704.16 182.234 2706.43 182.922 2709.3 184.438C2712.16 185.945 2715.52 188.224 2719.4 191.296L2720.02 190.512L2720.64 189.728C2716.71 186.614 2713.24 184.255 2710.24 182.669C2707.25 181.093 2704.64 180.234 2702.45 180.234V181.234ZM2720.02 190.512L2719.37 191.27C2744.73 213.055 2766.83 234.669 2785.68 256.113L2786.43 255.453L2787.18 254.793C2768.27 233.268 2746.1 211.589 2720.68 189.753L2720.02 190.512ZM2786.43 255.453L2785.65 256.078C2786.11 256.661 2786.64 257.313 2787.08 257.871C2787.35 258.205 2787.52 258.411 2787.78 258.739C2787.78 258.748 2787.79 258.756 2787.8 258.765C2787.81 258.774 2787.81 258.783 2787.82 258.792C2787.83 258.806 2787.85 258.832 2787.86 258.846C2787.88 258.873 2787.93 258.925 2787.95 258.953C2787.99 259.007 2788.08 259.111 2788.12 259.165C2788.14 259.192 2788.18 259.244 2788.2 259.271C2788.21 259.28 2788.22 259.289 2788.22 259.298C2788.23 259.307 2788.24 259.315 2788.25 259.324C2788.26 259.338 2788.28 259.364 2788.29 259.377C2788.3 259.386 2788.3 259.395 2788.31 259.403C2788.32 259.412 2788.32 259.421 2788.33 259.43C2788.34 259.438 2788.34 259.447 2788.35 259.456C2788.36 259.465 2788.37 259.474 2788.37 259.482C2788.39 259.501 2788.44 259.569 2788.46 259.587C2788.5 259.641 2788.58 259.744 2788.62 259.797C2788.65 259.823 2788.69 259.874 2788.71 259.901C2788.71 259.91 2788.74 259.944 2788.75 259.953C2788.76 259.961 2788.76 259.97 2788.77 259.979C2788.78 259.987 2788.78 259.996 2788.79 260.005C2788.8 260.013 2788.8 260.022 2788.81 260.03C2788.82 260.039 2788.82 260.048 2788.83 260.056C2788.84 260.07 2788.86 260.095 2788.87 260.108C2788.89 260.134 2788.93 260.185 2788.96 260.211C2788.97 260.224 2788.99 260.25 2789 260.263C2789 260.272 2789.01 260.28 2789.02 260.289C2789.02 260.297 2789.03 260.306 2789.04 260.314C2789.04 260.323 2789.05 260.332 2789.06 260.34C2789.07 260.349 2789.07 260.357 2789.08 260.366C2789.09 260.379 2789.11 260.404 2789.12 260.417C2789.37 260.73 2789.52 260.921 2789.77 261.228C2790.18 261.738 2790.63 262.307 2791.02 262.792C2791.25 263.082 2791.4 263.261 2791.62 263.545C2791.63 263.557 2791.65 263.58 2791.66 263.592C2791.67 263.603 2791.69 263.626 2791.7 263.638C2791.71 263.654 2791.76 263.714 2791.77 263.73C2791.81 263.777 2791.88 263.868 2791.92 263.915C2791.99 264.008 2792.14 264.188 2792.21 264.279C2792.25 264.325 2792.32 264.414 2792.35 264.46C2792.36 264.468 2792.37 264.475 2792.37 264.483C2792.38 264.49 2792.38 264.497 2792.39 264.505C2792.4 264.512 2792.4 264.52 2792.41 264.527C2792.41 264.535 2792.42 264.542 2792.43 264.55C2792.43 264.558 2792.46 264.587 2792.46 264.595C2792.47 264.602 2792.47 264.61 2792.48 264.617C2792.49 264.625 2792.49 264.632 2792.5 264.639C2792.51 264.651 2792.63 264.806 2792.64 264.818C2792.68 264.863 2792.75 264.95 2792.78 264.995C2793 265.263 2793.13 265.428 2793.34 265.691C2793.69 266.128 2794.08 266.614 2794.41 267.026C2794.42 267.04 2794.46 267.093 2794.47 267.107C2794.48 267.117 2794.5 267.137 2794.5 267.147C2794.51 267.157 2794.53 267.177 2794.54 267.188C2794.56 267.218 2794.54 267.197 2794.57 267.228C2794.57 267.234 2794.58 267.241 2794.58 267.248C2794.59 267.254 2794.6 267.261 2794.6 267.268C2794.62 267.288 2794.65 267.328 2794.66 267.348C2794.7 267.388 2794.76 267.467 2794.79 267.507C2794.8 267.521 2794.84 267.572 2794.86 267.586C2794.86 267.596 2794.88 267.616 2794.89 267.626C2794.89 267.632 2794.9 267.639 2794.9 267.645C2794.91 267.652 2794.91 267.658 2794.92 267.665C2794.92 267.672 2794.93 267.678 2794.93 267.685C2794.94 267.691 2794.94 267.698 2794.95 267.704C2794.96 267.711 2794.98 267.737 2794.98 267.743C2795 267.763 2795.03 267.802 2795.04 267.822C2795.07 267.849 2795.15 267.95 2795.17 267.977C2795.23 268.056 2795.35 268.208 2795.41 268.285L2796.2 267.66L2796.98 267.035C2796.98 267.035 2796.85 266.883 2796.85 266.882C2796.81 266.824 2796.78 266.787 2796.73 266.728C2796.69 266.679 2796.71 266.7 2796.67 266.65C2796.62 266.596 2796.65 266.627 2796.61 266.572C2796.61 266.572 2796.48 266.416 2796.48 266.416C2796.43 266.356 2796.28 266.159 2796.23 266.098C2796.23 266.098 2796.1 265.939 2796.1 265.938C2796.07 265.907 2796.06 265.888 2796.03 265.858C2796.03 265.851 2796.02 265.844 2796.02 265.837C2796.01 265.831 2796.01 265.824 2796 265.817C2796 265.81 2795.99 265.804 2795.99 265.797C2795.98 265.79 2795.97 265.783 2795.97 265.777C2795.93 265.725 2795.95 265.747 2795.9 265.695C2795.9 265.689 2795.89 265.682 2795.89 265.675C2795.88 265.668 2795.88 265.661 2795.87 265.655C2795.87 265.648 2795.86 265.641 2795.86 265.634C2795.85 265.627 2795.84 265.621 2795.84 265.614C2795.84 265.614 2795.71 265.45 2795.71 265.45C2795.66 265.388 2795.49 265.182 2795.44 265.119C2795.4 265.066 2795.35 265.004 2795.31 264.951C2795.3 264.944 2795.3 264.937 2795.29 264.93C2795.29 264.923 2795.28 264.916 2795.28 264.909C2795.27 264.902 2795.26 264.895 2795.26 264.888C2795.25 264.881 2795.25 264.874 2795.24 264.867C2795.24 264.86 2795.23 264.853 2795.22 264.846C2795.22 264.839 2795.21 264.832 2795.21 264.825C2795.2 264.818 2795.2 264.811 2795.19 264.804C2795.19 264.797 2795.18 264.789 2795.17 264.782C2795.11 264.702 2795.17 264.778 2795.11 264.698C2795.1 264.691 2795.09 264.683 2795.09 264.676C2795.08 264.669 2795.08 264.662 2795.07 264.655C2795.07 264.648 2795.06 264.641 2795.05 264.634C2795.05 264.627 2795.04 264.62 2795.04 264.613C2794.99 264.558 2794.94 264.496 2794.9 264.441C2794.85 264.377 2794.68 264.162 2794.62 264.096C2794.62 264.089 2794.61 264.081 2794.61 264.074C2794.6 264.067 2794.6 264.059 2794.59 264.052C2794.55 264 2794.6 264.061 2794.55 264.009C2794.54 263.986 2794.5 263.943 2794.48 263.921C2794.48 263.91 2794.42 263.845 2794.41 263.833C2794.41 263.828 2794.38 263.795 2794.38 263.789C2794.35 263.75 2794.38 263.784 2794.34 263.745C2794.33 263.723 2794.29 263.679 2794.27 263.657C2794.26 263.646 2794.21 263.58 2794.2 263.568C2794.2 263.563 2794.17 263.529 2794.17 263.524C2794.14 263.484 2794.16 263.519 2794.13 263.479C2794.11 263.457 2794.08 263.413 2794.06 263.39C2794.01 263.323 2793.83 263.099 2793.77 263.03C2793.76 263.01 2793.75 263.005 2793.74 262.985C2793.68 262.913 2793.76 263.011 2793.7 262.939C2793.66 262.887 2793.67 262.9 2793.63 262.848C2793.62 262.837 2793.56 262.769 2793.55 262.757C2793.54 262.737 2793.53 262.731 2793.52 262.711C2793.46 262.638 2793.54 262.738 2793.48 262.665C2793.44 262.613 2793.45 262.626 2793.41 262.573C2793.35 262.5 2793.43 262.6 2793.37 262.527C2793.36 262.52 2793.36 262.512 2793.35 262.504C2793.34 262.496 2793.34 262.489 2793.33 262.481C2793.3 262.434 2793.22 262.343 2793.18 262.296C2793.15 262.251 2793.18 262.294 2793.15 262.249C2793.14 262.241 2793.13 262.234 2793.13 262.226C2793.12 262.218 2793.12 262.21 2793.11 262.203C2793.1 262.195 2793.1 262.187 2793.09 262.179C2793.08 262.171 2793.08 262.164 2793.07 262.156C2793.05 262.126 2793.06 262.139 2793.04 262.109C2793.03 262.101 2793.02 262.094 2793.02 262.086C2793.01 262.078 2793 262.07 2793 262.062C2792.99 262.054 2792.99 262.047 2792.98 262.039C2792.97 262.031 2792.97 262.023 2792.96 262.015C2792.94 261.986 2792.95 261.998 2792.92 261.968C2792.92 261.961 2792.91 261.953 2792.9 261.945C2792.9 261.937 2792.89 261.929 2792.88 261.921C2792.85 261.874 2792.77 261.781 2792.73 261.732C2792.71 261.702 2792.72 261.715 2792.7 261.685C2792.69 261.677 2792.68 261.669 2792.68 261.661C2792.67 261.653 2792.66 261.645 2792.66 261.638C2792.66 261.634 2792.62 261.593 2792.62 261.59C2792.6 261.56 2792.61 261.573 2792.58 261.542C2792.58 261.534 2792.57 261.526 2792.56 261.518C2792.56 261.51 2792.55 261.503 2792.54 261.495C2792.54 261.492 2792.51 261.45 2792.51 261.447C2792.48 261.416 2792.49 261.429 2792.47 261.399C2792.46 261.391 2792.45 261.383 2792.45 261.375C2792.44 261.367 2792.43 261.359 2792.43 261.351C2792.39 261.302 2792.31 261.208 2792.27 261.158C2792.26 261.143 2792.25 261.125 2792.24 261.11C2792.23 261.102 2792.22 261.094 2792.22 261.086C2792.21 261.078 2792.2 261.07 2792.2 261.062C2792.17 261.028 2792.19 261.047 2792.16 261.013C2792.15 260.998 2792.13 260.98 2792.12 260.965C2792.11 260.949 2791.98 260.785 2791.96 260.77C2791.92 260.72 2791.85 260.624 2791.81 260.574C2791.77 260.524 2791.77 260.525 2791.73 260.475C2791.72 260.467 2791.66 260.384 2791.65 260.376C2791.64 260.368 2791.64 260.36 2791.63 260.352C2791.62 260.343 2791.62 260.335 2791.61 260.327C2791.57 260.277 2791.61 260.328 2791.57 260.277C2791.53 260.227 2791.53 260.229 2791.49 260.178C2791.45 260.127 2791.37 260.029 2791.33 259.978C2791.29 259.927 2791.29 259.929 2791.25 259.878C2791.21 259.827 2791.25 259.879 2791.21 259.828C2791.17 259.777 2791.21 259.829 2791.17 259.777C2791.16 259.769 2791.16 259.761 2791.15 259.752C2791.14 259.744 2791.14 259.735 2791.13 259.727C2791.09 259.676 2791.13 259.728 2791.09 259.677C2791.05 259.625 2791.05 259.627 2791.01 259.575C2790.97 259.524 2790.89 259.424 2790.85 259.372C2790.8 259.32 2790.81 259.322 2790.76 259.27C2790.75 259.254 2790.74 259.235 2790.72 259.219C2790.69 259.183 2790.71 259.203 2790.68 259.168C2790.67 259.152 2790.53 258.979 2790.52 258.962C2790.48 258.91 2790.39 258.808 2790.35 258.755C2790.31 258.702 2790.31 258.704 2790.27 258.651C2790.26 258.635 2790.24 258.616 2790.23 258.599C2790.2 258.563 2790.21 258.584 2790.19 258.547C2790.12 258.461 2790.17 258.529 2790.1 258.443C2790.09 258.423 2790.03 258.358 2790.02 258.338C2789.92 258.218 2789.95 258.248 2789.85 258.128C2789.83 258.107 2789.78 258.042 2789.77 258.022C2789.74 257.988 2789.75 258.003 2789.72 257.969C2789.72 257.96 2789.71 257.951 2789.7 257.942C2789.69 257.934 2789.69 257.925 2789.68 257.916C2789.61 257.828 2789.67 257.897 2789.6 257.81C2789.58 257.789 2789.53 257.723 2789.51 257.703C2789.41 257.581 2789.44 257.612 2789.34 257.489C2789.32 257.469 2789.27 257.402 2789.25 257.382C2789.23 257.348 2789.24 257.362 2789.21 257.328C2789.2 257.319 2789.2 257.31 2789.19 257.301C2789.18 257.292 2789.17 257.283 2789.17 257.274C2789.1 257.185 2789.15 257.255 2789.08 257.166C2789.06 257.145 2789.01 257.078 2788.99 257.058C2788.89 256.934 2788.92 256.964 2788.82 256.84C2788.74 256.743 2788.72 256.719 2788.64 256.621C2788.64 256.612 2788.63 256.603 2788.62 256.594C2788.62 256.585 2788.61 256.576 2788.6 256.566C2788.59 256.557 2788.59 256.548 2788.58 256.539C2788.57 256.53 2788.56 256.521 2788.56 256.512C2788.54 256.487 2788.53 256.481 2788.51 256.456C2788.51 256.447 2788.5 256.438 2788.49 256.429C2788.48 256.42 2788.48 256.411 2788.47 256.401C2788.37 256.275 2788.39 256.307 2788.29 256.18C2788.21 256.082 2788.19 256.057 2788.11 255.958C2788.11 255.954 2788.07 255.907 2788.07 255.902C2788.06 255.893 2788.05 255.884 2788.05 255.874C2788.04 255.865 2788.03 255.856 2788.02 255.846C2788.01 255.821 2788 255.815 2787.98 255.79C2787.97 255.781 2787.97 255.772 2787.96 255.762C2787.95 255.753 2787.94 255.744 2787.94 255.734C2787.83 255.606 2787.86 255.638 2787.76 255.51C2787.68 255.409 2787.66 255.384 2787.57 255.284C2787.57 255.274 2787.56 255.265 2787.55 255.255C2787.54 255.246 2787.54 255.237 2787.53 255.227C2787.49 255.177 2787.52 255.221 2787.48 255.17C2787.48 255.163 2787.44 255.121 2787.44 255.114C2787.43 255.104 2787.42 255.095 2787.42 255.085C2787.41 255.076 2787.4 255.066 2787.39 255.057C2787.29 254.927 2787.31 254.959 2787.21 254.828L2786.43 255.453ZM2796.2 267.66L2795.45 268.329C2798.22 271.408 2799.59 274.915 2799.59 278.891H2800.59H2801.59C2801.59 274.402 2800.03 270.423 2796.94 266.991L2796.2 267.66ZM2800.59 278.891H2799.59C2799.59 282.866 2798.22 286.374 2795.45 289.452L2796.2 290.121L2796.94 290.79C2800.03 287.358 2801.59 283.379 2801.59 278.891H2800.59ZM2796.2 290.121L2795.45 289.457C2792.82 292.414 2789.38 296.668 2785.15 302.209L2785.94 302.816L2786.74 303.424C2790.96 297.897 2794.36 293.688 2796.94 290.785L2796.2 290.121ZM2785.94 302.816L2785.19 302.16C2776.42 312.222 2766.19 322.778 2754.49 333.828L2755.18 334.555L2755.87 335.282C2767.6 324.196 2777.88 313.593 2786.7 303.473L2785.94 302.816ZM2755.18 334.555L2754.48 333.837C2743.1 344.892 2731.4 355.621 2719.37 366.025L2720.02 366.781L2720.68 367.538C2732.74 357.108 2744.47 346.353 2755.88 335.272L2755.18 334.555ZM2720.02 366.781L2719.35 366.046C2715.13 369.938 2711.8 372.463 2709.32 373.699L2709.77 374.594L2710.22 375.488C2712.95 374.121 2716.45 371.437 2720.7 367.516L2720.02 366.781ZM2709.77 374.594L2709.42 373.657C2706.9 374.601 2704.58 375.059 2702.45 375.059V376.059V377.059C2704.87 377.059 2707.43 376.54 2710.12 375.53L2709.77 374.594ZM2702.45 376.059V375.059C2700.31 375.059 2697.99 374.601 2695.47 373.657L2695.12 374.594L2694.77 375.53C2697.46 376.54 2700.02 377.059 2702.45 377.059V376.059ZM2695.12 374.594L2695.62 373.726C2693.41 372.466 2689.89 369.906 2685 366L2684.38 366.781L2683.75 367.562C2688.64 371.469 2692.27 374.117 2694.62 375.462L2695.12 374.594ZM2684.38 366.781L2685 366C2672.01 355.605 2659.99 344.888 2648.95 333.848L2648.25 334.555L2647.54 335.262C2658.63 346.357 2670.71 357.124 2683.75 367.562L2684.38 366.781ZM2648.25 334.555L2648.96 333.858C2637.91 322.475 2627.83 311.583 2618.73 301.181L2617.97 301.84L2617.22 302.498C2626.35 312.93 2636.45 323.848 2647.53 335.251L2648.25 334.555ZM2617.97 301.84L2618.75 301.209C2614.51 295.996 2611.08 291.914 2608.47 288.968L2607.72 289.633L2606.97 290.297C2609.56 293.211 2612.97 297.267 2617.2 302.47L2617.97 301.84ZM2607.72 289.633L2608.51 289.019C2606.38 286.289 2605.3 282.933 2605.3 278.891H2604.3H2603.3C2603.3 283.312 2604.5 287.117 2606.93 290.247L2607.72 289.633ZM2624.81 902.426H2625.81V466.879H2624.81H2623.81V902.426H2624.81ZM2624.81 466.879H2625.81C2625.81 457.177 2627.76 450.879 2631.34 447.597L2630.67 446.859L2629.99 446.122C2625.76 450.001 2623.81 457.049 2623.81 466.879H2624.81ZM2630.67 446.859L2631.35 447.594C2635.3 443.943 2641.99 442 2651.66 442V441V440C2641.81 440 2634.5 441.963 2629.99 446.125L2630.67 446.859ZM2651.66 441V442H2752.25V441V440H2651.66V441ZM2752.25 441V442C2761.94 442 2768.43 443.948 2772.05 447.566L2772.76 446.859L2773.46 446.152C2769.27 441.958 2762.09 440 2752.25 440V441ZM2772.76 446.859L2772.11 447.623C2776 450.91 2778.11 457.195 2778.11 466.879H2779.11H2780.11C2780.11 457.031 2777.98 449.971 2773.4 446.096L2772.76 446.859ZM2779.11 466.879H2778.11V932.211H2779.11H2780.11V466.879H2779.11ZM2779.11 932.211H2778.11C2778.11 982.588 2771.28 1023.45 2757.68 1054.86L2758.6 1055.26L2759.52 1055.66C2773.26 1023.91 2780.11 982.745 2780.11 932.211H2779.11ZM2758.6 1055.26L2757.68 1054.86C2744.05 1086.66 2726.88 1111.59 2706.18 1129.7L2706.84 1130.45L2707.5 1131.21C2728.47 1112.86 2745.8 1087.66 2759.52 1055.65L2758.6 1055.26ZM2706.84 1130.45L2706.17 1129.71C2685.4 1148.21 2664.31 1162.81 2642.92 1173.5L2643.36 1174.4L2643.81 1175.29C2665.39 1164.51 2686.62 1149.8 2707.5 1131.2L2706.84 1130.45ZM2643.36 1174.4L2642.92 1173.5C2637.21 1176.36 2631.95 1177.19 2627.1 1176.11C2622.24 1175.03 2617.66 1172.01 2613.37 1166.92L2612.6 1167.56L2611.84 1168.21C2616.33 1173.53 2621.27 1176.86 2626.67 1178.06C2632.07 1179.26 2637.8 1178.3 2643.81 1175.29L2643.36 1174.4ZM2612.6 1167.56L2613.38 1166.93L2553.8 1094.18L2553.03 1094.81L2552.26 1095.44L2611.83 1168.2L2612.6 1167.56ZM2553.03 1094.81L2553.8 1094.16C2548.63 1088.03 2546.22 1082.89 2546.22 1078.7H2545.22H2544.22C2544.22 1083.61 2547.01 1089.21 2552.27 1095.45L2553.03 1094.81ZM2545.22 1078.7H2546.22C2546.22 1075.01 2549.22 1070.88 2556.03 1066.34L2555.47 1065.51L2554.92 1064.68C2548.05 1069.26 2544.22 1073.91 2544.22 1078.7H2545.22ZM2555.47 1065.51L2556.04 1066.34C2563.26 1061.41 2572.26 1053.89 2583.01 1043.78L2582.33 1043.05L2581.64 1042.32C2570.92 1052.4 2562.01 1059.85 2554.91 1064.69L2555.47 1065.51ZM2582.33 1043.05L2583 1043.79C2594.23 1033.55 2604.07 1017.27 2612.56 995.068L2611.62 994.711L2610.69 994.354C2602.25 1016.42 2592.56 1032.37 2581.65 1042.31L2582.33 1043.05ZM2611.62 994.711L2612.55 995.085C2621.41 973.102 2625.81 942.191 2625.81 902.426H2624.81H2623.81C2623.81 942.087 2619.42 972.701 2610.7 994.337L2611.62 994.711Z" fill="url(#paint4_linear_78_77)" mask="url(#path-5-outside-1_78_77)"/>
<mask id="path-7-outside-2_78_77" maskUnits="userSpaceOnUse" x="3618" y="423" width="1129" height="532" fill="black">
<rect fill="white" x="3618" y="423" width="1129" height="532"/>
<path d="M3885.66 953.207C3803.63 953.207 3738.69 931.397 3690.84 887.777C3642.99 844.158 3619.06 779.216 3619.06 692.953C3619.06 604.411 3643.8 538.331 3693.28 494.711C3743.09 450.766 3809.49 428.793 3892.5 428.793C3972.58 428.793 4036.71 450.44 4084.88 493.734C4133.06 536.703 4157.15 600.18 4157.15 684.164C4157.15 771.729 4133.06 838.461 4084.88 884.359C4036.71 930.258 3970.3 953.207 3885.66 953.207ZM3890.55 835.043C3926.35 835.043 3953.37 823.975 3971.6 801.84C3989.83 779.379 3998.95 741.13 3998.95 687.094C3998.95 635.661 3989.67 599.529 3971.11 578.695C3952.88 557.536 3925.7 546.957 3889.57 546.957C3854.74 546.957 3827.23 558.35 3807.05 581.137C3787.19 603.598 3777.27 640.219 3777.27 691C3777.27 744.06 3786.71 781.332 3805.59 802.816C3824.79 824.301 3853.11 835.043 3890.55 835.043ZM4745.53 629.965V915.121C4745.53 924.887 4743.41 931.723 4739.18 935.629C4735.27 939.21 4728.44 941 4718.67 941H4618.09C4608.32 941 4601.32 939.21 4597.09 935.629C4593.18 931.723 4591.23 924.887 4591.23 915.121V655.355C4591.23 619.874 4583.74 593.995 4568.77 577.719C4553.8 561.443 4533.45 553.305 4507.73 553.305C4482.02 553.305 4462.16 558.839 4448.16 569.906C4434.49 580.974 4423.91 594.971 4416.43 611.898V915.121C4416.43 924.887 4414.31 931.723 4410.08 935.629C4406.17 939.21 4399.34 941 4389.57 941H4288.98C4279.22 941 4272.22 939.21 4267.99 935.629C4264.08 931.723 4262.13 924.887 4262.13 915.121V505.941C4262.13 498.129 4263.76 492.107 4267.01 487.875C4273.85 478.76 4281.99 469.483 4291.43 460.043C4301.19 450.603 4313.07 440.512 4327.07 429.77C4331.3 426.514 4335.37 424.887 4339.28 424.887C4342.86 424.887 4346.93 426.514 4351.48 429.77C4365.16 440.512 4376.88 450.766 4386.64 460.531C4396.41 470.297 4405.03 480.388 4412.52 490.805H4414.96C4420.49 483.643 4428.8 475.342 4439.86 465.902C4450.93 456.137 4466.39 447.51 4486.25 440.023C4506.43 432.536 4532.15 428.793 4563.4 428.793C4594 428.793 4623.13 434.978 4650.8 447.348C4678.47 459.717 4701.09 480.551 4718.67 509.848C4736.58 539.145 4745.53 579.184 4745.53 629.965Z"/>
</mask>
<path d="M3885.66 953.207C3803.63 953.207 3738.69 931.397 3690.84 887.777C3642.99 844.158 3619.06 779.216 3619.06 692.953C3619.06 604.411 3643.8 538.331 3693.28 494.711C3743.09 450.766 3809.49 428.793 3892.5 428.793C3972.58 428.793 4036.71 450.44 4084.88 493.734C4133.06 536.703 4157.15 600.18 4157.15 684.164C4157.15 771.729 4133.06 838.461 4084.88 884.359C4036.71 930.258 3970.3 953.207 3885.66 953.207ZM3890.55 835.043C3926.35 835.043 3953.37 823.975 3971.6 801.84C3989.83 779.379 3998.95 741.13 3998.95 687.094C3998.95 635.661 3989.67 599.529 3971.11 578.695C3952.88 557.536 3925.7 546.957 3889.57 546.957C3854.74 546.957 3827.23 558.35 3807.05 581.137C3787.19 603.598 3777.27 640.219 3777.27 691C3777.27 744.06 3786.71 781.332 3805.59 802.816C3824.79 824.301 3853.11 835.043 3890.55 835.043ZM4745.53 629.965V915.121C4745.53 924.887 4743.41 931.723 4739.18 935.629C4735.27 939.21 4728.44 941 4718.67 941H4618.09C4608.32 941 4601.32 939.21 4597.09 935.629C4593.18 931.723 4591.23 924.887 4591.23 915.121V655.355C4591.23 619.874 4583.74 593.995 4568.77 577.719C4553.8 561.443 4533.45 553.305 4507.73 553.305C4482.02 553.305 4462.16 558.839 4448.16 569.906C4434.49 580.974 4423.91 594.971 4416.43 611.898V915.121C4416.43 924.887 4414.31 931.723 4410.08 935.629C4406.17 939.21 4399.34 941 4389.57 941H4288.98C4279.22 941 4272.22 939.21 4267.99 935.629C4264.08 931.723 4262.13 924.887 4262.13 915.121V505.941C4262.13 498.129 4263.76 492.107 4267.01 487.875C4273.85 478.76 4281.99 469.483 4291.43 460.043C4301.19 450.603 4313.07 440.512 4327.07 429.77C4331.3 426.514 4335.37 424.887 4339.28 424.887C4342.86 424.887 4346.93 426.514 4351.48 429.77C4365.16 440.512 4376.88 450.766 4386.64 460.531C4396.41 470.297 4405.03 480.388 4412.52 490.805H4414.96C4420.49 483.643 4428.8 475.342 4439.86 465.902C4450.93 456.137 4466.39 447.51 4486.25 440.023C4506.43 432.536 4532.15 428.793 4563.4 428.793C4594 428.793 4623.13 434.978 4650.8 447.348C4678.47 459.717 4701.09 480.551 4718.67 509.848C4736.58 539.145 4745.53 579.184 4745.53 629.965Z" fill="white"/>
<path d="M3693.28 494.711L3693.94 495.461L3693.94 495.461L3693.28 494.711ZM4084.88 493.734L4084.21 494.478L4084.22 494.481L4084.88 493.734ZM4084.88 884.359L4084.19 883.635L4084.88 884.359ZM3971.6 801.84L3972.37 802.476L3972.38 802.47L3971.6 801.84ZM3971.11 578.695L3970.36 579.348L3970.36 579.354L3970.37 579.36L3971.11 578.695ZM3807.05 581.137L3806.3 580.474L3806.3 580.474L3807.05 581.137ZM3805.59 802.816L3804.83 803.477L3804.84 803.483L3805.59 802.816ZM3885.66 953.207V952.207C3803.81 952.207 3739.14 930.449 3691.51 887.038L3690.84 887.777L3690.17 888.516C3738.25 932.345 3803.45 954.207 3885.66 954.207V953.207ZM3690.84 887.777L3691.51 887.038C3643.93 843.665 3620.06 779.033 3620.06 692.953H3619.06H3618.06C3618.06 779.399 3642.04 844.65 3690.17 888.516L3690.84 887.777ZM3619.06 692.953H3620.06C3620.06 604.595 3644.75 538.832 3693.94 495.461L3693.28 494.711L3692.62 493.961C3642.86 537.829 3618.06 604.228 3618.06 692.953H3619.06ZM3693.28 494.711L3693.94 495.461C3743.52 451.714 3809.67 429.793 3892.5 429.793V428.793V427.793C3809.31 427.793 3742.65 449.817 3692.62 493.961L3693.28 494.711ZM3892.5 428.793V429.793C3972.39 429.793 4036.26 451.385 4084.21 494.478L4084.88 493.734L4085.55 492.991C4037.15 449.495 3972.76 427.793 3892.5 427.793V428.793ZM4084.88 493.734L4084.22 494.481C4132.12 537.207 4156.15 600.374 4156.15 684.164H4157.15H4158.15C4158.15 599.986 4134 536.2 4085.55 492.988L4084.88 493.734ZM4157.15 684.164H4156.15C4156.15 771.546 4132.11 837.98 4084.19 883.635L4084.88 884.359L4085.57 885.083C4134 838.942 4158.15 771.912 4158.15 684.164H4157.15ZM4084.88 884.359L4084.19 883.635C4036.25 929.312 3970.12 952.207 3885.66 952.207V953.207V954.207C3970.48 954.207 4037.16 931.204 4085.57 885.083L4084.88 884.359ZM3890.55 835.043V836.043C3926.57 836.043 3953.91 824.898 3972.37 802.476L3971.6 801.84L3970.83 801.204C3952.84 823.053 3926.14 834.043 3890.55 834.043V835.043ZM3971.6 801.84L3972.38 802.47C3990.83 779.731 3999.95 741.186 3999.95 687.094H3998.95H3997.95C3997.95 741.075 3988.83 779.026 3970.83 801.21L3971.6 801.84ZM3998.95 687.094H3999.95C3999.95 635.6 3990.67 599.149 3971.86 578.03L3971.11 578.695L3970.37 579.36C3988.67 599.909 3997.95 635.723 3997.95 687.094H3998.95ZM3971.11 578.695L3971.87 578.043C3953.4 556.602 3925.9 545.957 3889.57 545.957V546.957V547.957C3925.5 547.957 3952.37 558.471 3970.36 579.348L3971.11 578.695ZM3889.57 546.957V545.957C3854.5 545.957 3826.7 557.441 3806.3 580.474L3807.05 581.137L3807.8 581.8C3827.76 559.26 3854.98 547.957 3889.57 547.957V546.957ZM3807.05 581.137L3806.3 580.474C3786.2 603.208 3776.27 640.131 3776.27 691H3777.27H3778.27C3778.27 640.307 3788.18 603.987 3807.8 581.799L3807.05 581.137ZM3777.27 691H3776.27C3776.27 744.119 3785.7 781.707 3804.83 803.477L3805.59 802.816L3806.34 802.156C3787.71 780.957 3778.27 744.001 3778.27 691H3777.27ZM3805.59 802.816L3804.84 803.483C3824.29 825.239 3852.92 836.043 3890.55 836.043V835.043V834.043C3853.31 834.043 3825.29 823.363 3806.33 802.15L3805.59 802.816ZM4739.18 935.629L4739.86 936.366L4739.86 936.364L4739.18 935.629ZM4597.09 935.629L4596.38 936.336L4596.41 936.365L4596.44 936.392L4597.09 935.629ZM4448.16 569.906L4447.54 569.122L4447.53 569.129L4448.16 569.906ZM4416.43 611.898L4415.51 611.494L4415.43 611.687V611.898H4416.43ZM4410.08 935.629L4410.75 936.366L4410.76 936.364L4410.08 935.629ZM4267.99 935.629L4267.28 936.336L4267.31 936.365L4267.34 936.392L4267.99 935.629ZM4267.01 487.875L4267.8 488.485L4267.81 488.475L4267.01 487.875ZM4291.43 460.043L4290.73 459.324L4290.72 459.33L4290.72 459.336L4291.43 460.043ZM4327.07 429.77L4327.68 430.563L4327.68 430.562L4327.07 429.77ZM4351.48 429.77L4352.1 428.983L4352.08 428.969L4352.07 428.956L4351.48 429.77ZM4412.52 490.805L4411.71 491.388L4412.01 491.805H4412.52V490.805ZM4414.96 490.805V491.805H4415.45L4415.75 491.416L4414.96 490.805ZM4439.86 465.902L4440.51 466.663L4440.52 466.658L4440.52 466.652L4439.86 465.902ZM4486.25 440.023L4485.9 439.086L4485.9 439.088L4486.25 440.023ZM4650.8 447.348L4651.21 446.435L4650.8 447.348ZM4718.67 509.848L4717.81 510.362L4717.82 510.369L4718.67 509.848ZM4745.53 629.965H4744.53V915.121H4745.53H4746.53V629.965H4745.53ZM4745.53 915.121H4744.53C4744.53 924.792 4742.42 931.274 4738.5 934.894L4739.18 935.629L4739.86 936.364C4744.4 932.172 4746.53 924.981 4746.53 915.121H4745.53ZM4739.18 935.629L4738.5 934.892C4734.89 938.209 4728.38 940 4718.67 940V941V942C4728.5 942 4735.66 940.21 4739.86 936.366L4739.18 935.629ZM4718.67 941V940H4618.09V941V942H4718.67V941ZM4618.09 941V940C4608.39 940 4601.69 938.214 4597.74 934.866L4597.09 935.629L4596.44 936.392C4600.95 940.205 4608.25 942 4618.09 942V941ZM4597.09 935.629L4597.8 934.922C4594.18 931.303 4592.23 924.809 4592.23 915.121H4591.23H4590.23C4590.23 924.964 4592.19 932.142 4596.38 936.336L4597.09 935.629ZM4591.23 915.121H4592.23V655.355H4591.23H4590.23V915.121H4591.23ZM4591.23 655.355H4592.23C4592.23 619.767 4584.73 593.586 4569.51 577.042L4568.77 577.719L4568.03 578.396C4582.76 594.403 4590.23 619.981 4590.23 655.355H4591.23ZM4568.77 577.719L4569.51 577.042C4554.31 560.526 4533.68 552.305 4507.73 552.305V553.305V554.305C4533.22 554.305 4553.28 562.36 4568.03 578.396L4568.77 577.719ZM4507.73 553.305V552.305C4481.89 552.305 4461.78 557.865 4447.54 569.122L4448.16 569.906L4448.78 570.691C4462.54 559.813 4482.15 554.305 4507.73 554.305V553.305ZM4448.16 569.906L4447.53 569.129C4433.73 580.302 4423.06 594.43 4415.51 611.494L4416.43 611.898L4417.34 612.303C4424.77 595.513 4435.25 581.646 4448.79 570.683L4448.16 569.906ZM4416.43 611.898H4415.43V915.121H4416.43H4417.43V611.898H4416.43ZM4416.43 915.121H4415.43C4415.43 924.792 4413.32 931.274 4409.4 934.894L4410.08 935.629L4410.76 936.364C4415.3 932.172 4417.43 924.981 4417.43 915.121H4416.43ZM4410.08 935.629L4409.4 934.892C4405.78 938.209 4399.27 940 4389.57 940V941V942C4399.4 942 4406.56 940.21 4410.75 936.366L4410.08 935.629ZM4389.57 941V940H4288.98V941V942H4389.57V941ZM4288.98 941V940C4279.29 940 4272.59 938.214 4268.63 934.866L4267.99 935.629L4267.34 936.392C4271.85 940.205 4279.14 942 4288.98 942V941ZM4267.99 935.629L4268.7 934.922C4265.08 931.303 4263.13 924.809 4263.13 915.121H4262.13H4261.13C4261.13 924.964 4263.09 932.142 4267.28 936.336L4267.99 935.629ZM4262.13 915.121H4263.13V505.941H4262.13H4261.13V915.121H4262.13ZM4262.13 505.941H4263.13C4263.13 498.251 4264.73 492.477 4267.8 488.485L4267.01 487.875L4266.22 487.265C4262.78 491.736 4261.13 498.007 4261.13 505.941H4262.13ZM4267.01 487.875L4267.81 488.475C4274.61 479.404 4282.72 470.162 4292.13 460.75L4291.43 460.043L4290.72 459.336C4281.25 468.804 4273.08 478.117 4266.21 487.275L4267.01 487.875ZM4291.43 460.043L4292.12 460.762C4301.85 451.355 4313.7 441.288 4327.68 430.563L4327.07 429.77L4326.46 428.976C4312.44 439.735 4300.53 449.851 4290.73 459.324L4291.43 460.043ZM4327.07 429.77L4327.68 430.562C4331.8 427.393 4335.66 425.887 4339.28 425.887V424.887V423.887C4335.08 423.887 4330.8 425.636 4326.46 428.977L4327.07 429.77ZM4339.28 424.887V425.887C4342.56 425.887 4346.43 427.386 4350.9 430.583L4351.48 429.77L4352.07 428.956C4347.43 425.643 4343.15 423.887 4339.28 423.887V424.887ZM4351.48 429.77L4350.87 430.556C4364.51 441.279 4376.2 451.507 4385.93 461.238L4386.64 460.531L4387.35 459.824C4377.55 450.024 4365.8 439.744 4352.1 428.983L4351.48 429.77ZM4386.64 460.531L4385.93 461.238C4395.66 470.969 4404.25 481.019 4411.71 491.388L4412.52 490.805L4413.33 490.221C4405.81 479.757 4397.15 469.625 4387.35 459.824L4386.64 460.531ZM4412.52 490.805V491.805H4414.96V490.805V489.805H4412.52V490.805ZM4414.96 490.805L4415.75 491.416C4421.23 484.332 4429.47 476.082 4440.51 466.663L4439.86 465.902L4439.21 465.142C4428.12 474.603 4419.76 482.955 4414.17 490.193L4414.96 490.805ZM4439.86 465.902L4440.52 466.652C4451.47 456.994 4466.81 448.421 4486.6 440.959L4486.25 440.023L4485.9 439.088C4465.97 446.6 4450.39 455.28 4439.2 465.153L4439.86 465.902ZM4486.25 440.023L4486.6 440.961C4506.63 433.529 4532.22 429.793 4563.4 429.793V428.793V427.793C4532.08 427.793 4506.23 431.543 4485.9 439.086L4486.25 440.023ZM4563.4 428.793V429.793C4593.86 429.793 4622.85 435.949 4650.39 448.261L4650.8 447.348L4651.21 446.435C4623.41 434.007 4594.14 427.793 4563.4 427.793V428.793ZM4650.8 447.348L4650.39 448.261C4677.85 460.536 4700.33 481.218 4717.81 510.362L4718.67 509.848L4719.53 509.333C4701.86 479.884 4679.09 458.899 4651.21 446.435L4650.8 447.348ZM4718.67 509.848L4717.82 510.369C4735.59 539.451 4744.53 579.285 4744.53 629.965H4745.53H4746.53C4746.53 579.082 4737.56 538.838 4719.53 509.326L4718.67 509.848Z" fill="url(#paint5_linear_78_77)" mask="url(#path-7-outside-2_78_77)"/>
<path d="M1057.1 1210C1064.46 1214.32 1072.89 1217.04 1081.45 1216.6C1090.01 1216.17 1097.91 1212.69 1103.7 1206.65C1109.48 1200.61 1112.82 1192.36 1113.23 1183.43C1113.65 1174.49 1111.05 1165.69 1106.9 1158C1106.9 1158 1106.9 1158 1106.9 1158C1102.31 1149.55 1097.55 1141.29 1092.61 1133.21C1072.86 1100.88 1050.3 1071.47 1024.93 1044.99C977.373 995.349 929.815 945.704 882.257 896.059C841.04 853.033 808.31 801.149 784.066 740.405C780.337 731.06 776.808 721.505 773.48 711.74C763.512 682.309 738.611 670.099 710.815 670.946C682.953 671.863 653.319 686.973 629.592 711.74C605.866 736.508 591.391 767.443 590.513 796.528C589.701 825.543 601.398 851.537 629.592 861.942C629.592 861.942 629.592 861.942 629.592 861.942C638.946 865.416 648.1 869.099 657.052 872.993C715.242 898.3 764.946 932.467 806.163 975.492C853.721 1025.14 901.279 1074.78 948.837 1124.43C974.201 1150.9 1002.37 1174.45 1033.34 1195.08C1041.08 1200.23 1049 1205.21 1057.1 1210Z" fill="url(#paint6_linear_78_77)"/>
<path d="M82.9036 134.004C75.5403 129.675 67.1057 126.957 58.5459 127.397C49.9907 127.831 42.0865 131.31 36.3011 137.349C30.5156 143.388 27.1837 151.639 26.7672 160.57C26.346 169.505 28.9498 178.31 33.0964 185.996C33.0964 185.996 33.0964 185.996 33.0964 185.996C37.685 194.445 42.4489 202.711 47.3879 210.794C67.1443 243.125 89.7046 272.529 115.069 299.006C162.627 348.651 210.185 398.296 257.743 447.941C298.96 490.967 331.69 542.851 355.934 603.595C359.663 612.94 363.192 622.495 366.52 632.26C376.488 661.691 401.389 673.901 429.185 673.054C457.047 672.137 486.681 657.027 510.408 632.26C534.134 607.492 548.609 576.557 549.487 547.472C550.299 518.457 538.602 492.463 510.408 482.058C501.054 478.584 491.9 474.901 482.948 471.007C424.758 445.7 375.054 411.533 333.837 368.508C286.279 318.863 238.721 269.218 191.163 219.573C165.799 193.096 137.631 169.546 106.658 148.922C98.9154 143.766 90.9971 138.794 82.9036 134.004Z" fill="url(#paint7_linear_78_77)"/>
<path d="M1057.1 1210C1064.46 1214.32 1072.89 1217.04 1081.45 1216.6C1090.01 1216.17 1097.91 1212.69 1103.7 1206.65C1109.48 1200.61 1112.82 1192.36 1113.23 1183.43C1113.65 1174.49 1111.05 1165.69 1106.9 1158C1106.9 1158 1106.9 1158 1106.9 1158C1102.31 1149.55 1097.55 1141.29 1092.61 1133.21C1072.86 1100.88 1050.3 1071.47 1024.93 1044.99C977.373 995.349 929.815 945.704 882.257 896.059C841.04 853.033 808.31 801.149 784.066 740.405C780.337 731.06 776.808 721.505 773.48 711.74C763.512 682.309 738.611 670.099 710.815 670.946C682.953 671.863 653.319 686.973 629.592 711.74C605.866 736.508 591.391 767.443 590.513 796.528C589.701 825.543 601.398 851.537 629.592 861.942C629.592 861.942 629.592 861.942 629.592 861.942C638.946 865.416 648.1 869.099 657.052 872.993C715.242 898.3 764.946 932.467 806.163 975.492C853.721 1025.14 901.279 1074.78 948.837 1124.43C974.201 1150.9 1002.37 1174.45 1033.34 1195.08C1041.08 1200.23 1049 1205.21 1057.1 1210Z" fill="url(#paint8_linear_78_77)"/>
<path d="M82.9036 134.004C75.5403 129.675 67.1057 126.957 58.5459 127.397C49.9907 127.831 42.0865 131.31 36.3011 137.349C30.5156 143.388 27.1837 151.639 26.7672 160.57C26.346 169.505 28.9498 178.31 33.0964 185.996C33.0964 185.996 33.0964 185.996 33.0964 185.996C37.685 194.445 42.4489 202.711 47.3879 210.794C67.1443 243.125 89.7046 272.529 115.069 299.006C162.627 348.651 210.185 398.296 257.743 447.941C298.96 490.967 331.69 542.851 355.934 603.595C359.663 612.94 363.192 622.495 366.52 632.26C376.488 661.691 401.389 673.901 429.185 673.054C457.047 672.137 486.681 657.027 510.408 632.26C534.134 607.492 548.609 576.557 549.487 547.472C550.299 518.457 538.602 492.463 510.408 482.058C501.054 478.584 491.9 474.901 482.948 471.007C424.758 445.7 375.054 411.533 333.837 368.508C286.279 318.863 238.721 269.218 191.163 219.573C165.799 193.096 137.631 169.546 106.658 148.922C98.9154 143.766 90.9971 138.794 82.9036 134.004Z" fill="url(#paint9_linear_78_77)"/>
<ellipse cx="565.594" cy="675.12" rx="51.36" ry="53.6137" fill="url(#paint10_radial_78_77)"/>
<ellipse cx="566.083" cy="675.12" rx="36.1966" ry="38.2955" fill="url(#paint11_radial_78_77)"/>
<path d="M602.045 559.769C603.556 554.089 609.664 551.209 614.97 553.675C619.779 555.911 621.991 561.677 619.911 566.555L602.198 608.084C601.224 610.368 599.027 611.832 596.574 611.832C592.386 611.832 589.288 607.71 590.383 603.595L602.045 559.769Z" fill="url(#paint12_linear_78_77)"/>
<path d="M501.711 819.238C500.408 822.155 497.023 823.386 494.151 821.988C491.173 820.538 489.935 816.85 491.439 813.906L527.609 743.043C529.482 739.374 534.975 741.203 534.521 745.344C534.478 745.736 534.375 746.117 534.215 746.473L501.711 819.238Z" fill="url(#paint13_linear_78_77)"/>
<path d="M661.413 684.024C666.847 686.438 668.47 693.667 664.616 698.294C661.486 702.053 656.011 702.436 652.387 699.148L638.231 686.302C635.879 684.168 635.59 680.471 637.581 677.993C639.185 675.998 641.855 675.336 644.163 676.362L661.413 684.024Z" fill="url(#paint14_linear_78_77)"/>
<path d="M623.22 755.411C625.174 760.217 623.83 765.831 619.898 769.286C611.697 776.493 599.322 769.86 600.665 758.979L602.973 740.277C603.285 737.75 604.897 735.56 607.195 734.541C610.723 732.978 614.761 734.609 616.214 738.183L623.22 755.411Z" fill="url(#paint15_linear_78_77)"/>
<path d="M484.216 602.263C482.425 599.954 482.782 596.553 485.014 594.666C487.414 592.637 490.953 593.206 492.617 595.888L505.833 617.193C506.971 619.027 506.497 621.485 504.763 622.743C503.082 623.963 500.793 623.633 499.516 621.986L484.216 602.263Z" fill="url(#paint16_linear_78_77)"/>
<path d="M766.946 566.462C772.248 563.662 778.665 566.051 780.824 571.629C782.857 576.88 780.298 582.912 775.109 585.1L697.311 617.912C694.344 619.163 690.973 618.035 689.375 615.255C687.506 612.004 688.751 607.758 692.091 605.994L766.946 566.462Z" fill="url(#paint17_linear_78_77)"/>
<path d="M390.304 798.721C385.024 808.204 372.257 809.205 365.845 800.638C360.2 793.096 362.552 782.002 370.75 777.504L389.526 767.2C393.416 765.064 398.197 766.284 400.649 770.038C402.506 772.881 402.624 776.597 400.952 779.598L390.304 798.721Z" fill="url(#paint18_linear_78_77)"/>
<path d="M385.986 685.43C380.292 685.534 375.599 681.002 375.503 675.308C375.403 669.303 380.435 664.475 386.43 664.825L468.59 669.625C472.371 669.846 475.321 672.974 475.321 676.762C475.321 680.669 472.188 683.86 468.282 683.931L385.986 685.43Z" fill="url(#paint19_linear_78_77)"/>
</g>
<defs>
<linearGradient id="paint0_linear_78_77" x1="3262.37" y1="659.336" x2="2846.37" y2="1117.34" gradientUnits="userSpaceOnUse">
<stop offset="0.2" stop-color="white"/>
<stop offset="1" stop-color="#A6A6A6"/>
</linearGradient>
<linearGradient id="paint1_linear_78_77" x1="3290.65" y1="636.642" x2="3707.65" y2="229.642" gradientUnits="userSpaceOnUse">
<stop offset="0.2" stop-color="white"/>
<stop offset="1" stop-color="#A6A6A6"/>
</linearGradient>
<linearGradient id="paint2_linear_78_77" x1="3291.33" y1="658.622" x2="3708.33" y2="1020.62" gradientUnits="userSpaceOnUse">
<stop offset="0.2" stop-color="white"/>
<stop offset="1" stop-color="#A6A6A6"/>
</linearGradient>
<linearGradient id="paint3_linear_78_77" x1="3261.61" y1="637.309" x2="2941.61" y2="230.309" gradientUnits="userSpaceOnUse">
<stop offset="0.2" stop-color="white"/>
<stop offset="1" stop-color="#A6A6A6"/>
</linearGradient>
<linearGradient id="paint4_linear_78_77" x1="2846" y1="548.5" x2="281" y2="548.5" gradientUnits="userSpaceOnUse">
<stop offset="0.2" stop-color="white"/>
<stop offset="1" stop-color="#A6A6A6"/>
</linearGradient>
<linearGradient id="paint5_linear_78_77" x1="5297" y1="548.5" x2="3580" y2="548.5" gradientUnits="userSpaceOnUse">
<stop offset="0.2" stop-color="white"/>
<stop offset="1" stop-color="#A6A6A6"/>
</linearGradient>
<linearGradient id="paint6_linear_78_77" x1="701.882" y1="786.48" x2="1098.67" y2="1166.59" gradientUnits="userSpaceOnUse">
<stop/>
<stop offset="1" stop-color="#787878"/>
</linearGradient>
<linearGradient id="paint7_linear_78_77" x1="438.118" y1="557.52" x2="41.3252" y2="177.407" gradientUnits="userSpaceOnUse">
<stop/>
<stop offset="1" stop-color="#787878"/>
</linearGradient>
<linearGradient id="paint8_linear_78_77" x1="701.882" y1="786.48" x2="1098.67" y2="1166.59" gradientUnits="userSpaceOnUse">
<stop stop-color="white"/>
<stop offset="1" stop-color="#878787"/>
</linearGradient>
<linearGradient id="paint9_linear_78_77" x1="438.118" y1="557.52" x2="41.3252" y2="177.407" gradientUnits="userSpaceOnUse">
<stop stop-color="white"/>
<stop offset="1" stop-color="#878787"/>
</linearGradient>
<radialGradient id="paint10_radial_78_77" cx="0" cy="0" r="1" gradientUnits="userSpaceOnUse" gradientTransform="translate(565.594 675.12) rotate(90) scale(53.6137 51.36)">
<stop offset="0.567308" stop-color="#FF2410"/>
<stop offset="1" stop-color="#FF1500"/>
</radialGradient>
<radialGradient id="paint11_radial_78_77" cx="0" cy="0" r="1" gradientUnits="userSpaceOnUse" gradientTransform="translate(566.083 675.12) rotate(90) scale(38.2955 36.1966)">
<stop offset="0.591346" stop-color="#F7FF10"/>
<stop offset="1" stop-color="#FAA42B"/>
</radialGradient>
<linearGradient id="paint12_linear_78_77" x1="614.294" y1="553.361" x2="589.513" y2="606.68" gradientUnits="userSpaceOnUse">
<stop stop-color="#FF5D5D"/>
<stop offset="1" stop-color="#FFE580"/>
</linearGradient>
<linearGradient id="paint13_linear_78_77" x1="494.013" y1="821.921" x2="531.662" y2="744.575" gradientUnits="userSpaceOnUse">
<stop stop-color="#FF5D5D"/>
<stop offset="1" stop-color="#FFE580"/>
</linearGradient>
<linearGradient id="paint14_linear_78_77" x1="665.687" y1="697.009" x2="639.816" y2="675.465" gradientUnits="userSpaceOnUse">
<stop stop-color="#FF5D5D"/>
<stop offset="1" stop-color="#FFE580"/>
</linearGradient>
<linearGradient id="paint15_linear_78_77" x1="621.45" y1="765.723" x2="607.562" y2="734.38" gradientUnits="userSpaceOnUse">
<stop stop-color="#FF5D5D"/>
<stop offset="1" stop-color="#FFE580"/>
</linearGradient>
<linearGradient id="paint16_linear_78_77" x1="485.238" y1="594.476" x2="507.135" y2="620.38" gradientUnits="userSpaceOnUse">
<stop stop-color="#FF5D5D"/>
<stop offset="1" stop-color="#FFE580"/>
</linearGradient>
<linearGradient id="paint17_linear_78_77" x1="780.657" y1="571.196" x2="687.225" y2="607.358" gradientUnits="userSpaceOnUse">
<stop stop-color="#FF5D5D"/>
<stop offset="1" stop-color="#FFE580"/>
</linearGradient>
<linearGradient id="paint18_linear_78_77" x1="367.129" y1="802.353" x2="403.116" y2="775.419" gradientUnits="userSpaceOnUse">
<stop stop-color="#FF5D5D"/>
<stop offset="1" stop-color="#FFE580"/>
</linearGradient>
<linearGradient id="paint19_linear_78_77" x1="375.384" y1="668.137" x2="475.032" y2="666.471" gradientUnits="userSpaceOnUse">
<stop stop-color="#FF5D5D"/>
<stop offset="1" stop-color="#FFE580"/>
</linearGradient>
<clipPath id="clip0_78_77">
<rect width="4992" height="1343" fill="white"/>
</clipPath>
</defs>
</svg>
