<svg width="4992" height="1343" viewBox="0 0 4992 1343" fill="none" xmlns="http://www.w3.org/2000/svg">
<g clip-path="url(#clip0_66_17)">
<path d="M2818.19 1091.74C2813.98 1099.76 2811.55 1108.91 2812.41 1118.07C2813.27 1127.22 2817.25 1135.55 2823.77 1141.47C2830.29 1147.39 2838.96 1150.56 2848.15 1150.53C2857.35 1150.51 2866.23 1147.22 2873.81 1142.26C2882.7 1136.4 2891.39 1130.37 2899.89 1124.16C2933.89 1099.31 2964.75 1071.62 2992.48 1041.09C3044.48 983.837 3096.48 926.587 3148.48 869.337C3193.55 819.72 3248.09 778.711 3312.11 746.308C3321.96 741.323 3332.03 736.542 3342.33 731.965C3371.12 719.233 3382.23 692.032 3380.01 662.52C3377.72 632.946 3361.08 602.391 3334.96 578.669C3308.85 554.947 3276.84 541.319 3247.18 541.874C3217.59 542.492 3191.58 556.157 3181.67 586.035C3178.1 596.725 3174.31 607.21 3170.29 617.492C3144.17 684.323 3108.58 742.546 3063.52 792.163C3011.52 849.413 2959.52 906.663 2907.52 963.913C2879.78 994.446 2855.18 1027.82 2833.71 1064.04C2828.34 1073.1 2823.17 1082.33 2818.19 1091.74Z" fill="url(#paint0_linear_66_17)"/>
<path d="M3734.24 256.883C3738.79 249.094 3741.7 240.126 3741.36 230.979C3741.04 221.837 3737.58 213.348 3731.47 207.091C3725.37 200.834 3716.96 197.172 3707.83 196.623C3698.7 196.069 3689.66 198.754 3681.76 203.117C3672.97 208.009 3664.35 213.089 3655.93 218.359C3622.22 239.439 3591.46 263.545 3563.66 290.679C3511.54 341.554 3459.41 392.429 3407.29 443.304C3362.11 487.395 3308 522.326 3244.94 548.095C3235.24 552.06 3225.32 555.807 3215.2 559.338C3185.15 569.752 3172.36 596.175 3172.86 625.817C3173.42 655.531 3188.41 687.263 3213.34 712.8C3238.26 738.336 3269.62 754.097 3299.31 755.379C3328.93 756.591 3355.66 744.455 3366.8 714.662C3370.58 704.626 3374.56 694.807 3378.76 685.205C3406.05 622.791 3442.29 569.538 3487.46 525.446C3539.59 474.571 3591.71 423.696 3643.84 372.821C3671.64 345.688 3696.48 315.528 3718.37 282.341C3723.85 274.044 3729.13 265.558 3734.24 256.883Z" fill="url(#paint1_linear_66_17)"/>
<path d="M3683.37 1049.37C3691.54 1053.13 3700.69 1055.22 3709.73 1054.12C3718.77 1053.02 3726.89 1048.9 3732.58 1042.34C3738.28 1035.78 3741.22 1027.17 3741.03 1018.06C3740.86 1008.95 3737.5 1000.19 3732.63 992.633C3727.41 984.603 3722.02 976.773 3716.45 969.143C3694.2 938.622 3669.17 911.294 3641.37 887.161C3589.25 841.911 3537.12 796.661 3485 751.411C3439.82 712.194 3403.04 663.31 3374.65 604.76C3370.28 595.752 3366.11 586.515 3362.14 577.05C3349.77 547.393 3322.44 536.775 3292.89 539.762C3263.28 542.829 3232.69 560.624 3209.05 587.859C3185.41 615.093 3172.09 647.878 3173.21 677.628C3174.4 707.299 3188.76 732.871 3219.86 740.95C3229.79 743.551 3239.52 746.382 3249.05 749.44C3311.01 769.323 3364.58 798.872 3409.75 838.089C3461.88 883.339 3514 928.589 3566.13 973.839C3593.93 997.972 3624.5 1018.91 3657.85 1036.66C3666.18 1041.09 3674.69 1045.33 3683.37 1049.37Z" fill="url(#paint2_linear_66_17)"/>
<path d="M2971.53 206.782C2964.16 201.697 2955.59 198.004 2946.55 197.418C2937.51 196.828 2928.84 199.327 2922.07 204.648C2915.3 209.97 2910.82 217.811 2909.27 226.729C2907.7 235.652 2909.27 244.856 2912.47 253.218C2915.72 261.635 2919.19 269.889 2922.86 277.98C2937.54 310.341 2955.55 340.089 2976.88 367.222C3016.88 418.097 3056.88 468.972 3096.88 519.847C3131.55 563.939 3156.15 615.943 3170.69 675.859C3172.93 685.077 3174.93 694.482 3176.69 704.075C3182.5 736.119 3207.26 751.762 3236.91 754.343C3266.64 756.855 3300.34 744.901 3329.07 722.311C3357.81 699.72 3377.38 669.79 3381.95 640.305C3386.44 610.888 3377.08 583.133 3347.31 569.925C3338.4 565.951 3329.74 561.789 3321.31 557.441C3266.51 529.174 3221.78 492.994 3187.12 448.903C3147.12 398.028 3107.12 347.153 3067.12 296.278C3045.78 269.144 3021.12 244.625 2993.14 222.72C2986.15 217.244 2978.94 211.931 2971.53 206.782Z" fill="url(#paint3_linear_66_17)"/>
<path d="M1280.08 707.113C1271.62 707.113 1264.46 704.997 1258.6 700.766C1252.41 696.534 1245.09 690.512 1236.62 682.699C1228.16 674.887 1218.72 665.284 1208.3 653.891C1204.4 649.333 1202.45 645.264 1202.45 641.684C1202.45 638.103 1204.4 634.034 1208.3 629.477C1228.49 606.69 1246.88 589.926 1263.48 579.184C1267.39 576.579 1272.92 575.277 1280.08 575.277C1302.22 575.277 1321.26 566.977 1337.21 550.375C1353.49 533.773 1361.3 506.918 1360.65 469.809C1360.32 429.77 1350.39 401.775 1330.86 385.824C1311.66 369.874 1285.29 361.898 1251.76 361.898H1228.32C1206.84 361.898 1192.19 366.456 1184.38 375.57C1176.57 384.685 1172.66 400.31 1172.66 422.445V915.121C1172.66 924.887 1170.54 931.723 1166.31 935.629C1162.41 939.21 1155.57 941 1145.8 941H1041.8C1032.04 941 1025.04 939.21 1020.8 935.629C1016.9 931.723 1014.95 924.887 1014.95 915.121V371.664C1014.95 339.112 1017.88 313.396 1023.73 294.516C1029.92 275.31 1041.64 261.638 1058.89 253.5C1076.47 245.036 1102.02 240.805 1135.55 240.805H1251.76C1345.19 240.805 1414.36 259.197 1459.28 295.98C1504.2 332.439 1526.66 388.428 1526.66 463.949C1526.66 520.59 1514.78 566.814 1491.02 602.621C1467.58 638.428 1436.98 664.796 1399.22 681.723C1361.79 698.65 1322.07 707.113 1280.08 707.113ZM1756.64 533.773H1758.6C1783.01 466.065 1826.96 432.211 1890.43 432.211C1898.57 432.211 1905.24 432.699 1910.45 433.676C1915.66 434.327 1919.24 434.978 1921.2 435.629C1926.08 437.257 1928.52 441 1928.52 446.859V564.535C1928.52 574.626 1922.66 577.393 1910.94 572.836C1907.04 571.208 1901.34 569.581 1893.85 567.953C1886.69 566 1876.6 565.023 1863.58 565.023C1830.05 565.023 1803.85 577.393 1784.96 602.133C1766.08 626.547 1756.64 659.913 1756.64 702.23V915.121C1756.64 924.887 1754.53 931.723 1750.3 935.629C1746.39 939.21 1739.55 941 1729.79 941H1629.2C1619.44 941 1612.44 939.21 1608.21 935.629C1604.3 931.723 1602.35 924.887 1602.35 915.121V505.941C1602.35 498.129 1603.98 492.107 1607.23 487.875C1614.07 478.76 1622.2 469.483 1631.64 460.043C1641.41 450.603 1653.29 440.512 1667.29 429.77C1669.89 427.816 1672.5 426.514 1675.1 425.863C1677.71 425.212 1679.98 424.887 1681.94 424.887C1686.49 424.887 1691.05 426.514 1695.61 429.77C1722.63 450.928 1741.51 468.995 1752.25 483.969C1755.18 487.875 1756.64 492.432 1756.64 497.641V533.773ZM2241.51 953.207C2159.48 953.207 2094.54 931.397 2046.68 887.777C1998.83 844.158 1974.91 779.216 1974.91 692.953C1974.91 604.411 1999.65 538.331 2049.12 494.711C2098.93 450.766 2165.34 428.793 2248.34 428.793C2328.42 428.793 2392.55 450.44 2440.73 493.734C2488.9 536.703 2512.99 600.18 2512.99 684.164C2512.99 771.729 2488.9 838.461 2440.73 884.359C2392.55 930.258 2326.14 953.207 2241.51 953.207ZM2246.39 835.043C2282.2 835.043 2309.22 823.975 2327.45 801.84C2345.67 779.379 2354.79 741.13 2354.79 687.094C2354.79 635.661 2345.51 599.529 2326.96 578.695C2308.73 557.536 2281.55 546.957 2245.41 546.957C2210.58 546.957 2183.08 558.35 2162.89 581.137C2143.04 603.598 2133.11 640.219 2133.11 691C2133.11 744.06 2142.55 781.332 2161.43 802.816C2180.64 824.301 2208.96 835.043 2246.39 835.043ZM2604.3 278.891C2604.3 274.659 2605.44 271.078 2607.72 268.148C2610.32 264.893 2613.74 260.661 2617.97 255.453C2627.09 245.036 2637.5 234.294 2649.22 223.227C2661.27 211.833 2673.31 200.928 2685.36 190.512C2692.84 184.327 2698.54 181.234 2702.45 181.234C2706.35 181.234 2712.21 184.327 2720.02 190.512C2745.41 212.322 2767.55 233.969 2786.43 255.453C2790.34 260.336 2793.59 264.405 2796.2 267.66C2799.12 270.915 2800.59 274.659 2800.59 278.891C2800.59 283.122 2799.12 286.866 2796.2 290.121C2793.59 293.051 2790.17 297.283 2785.94 302.816C2777.15 312.908 2766.9 323.487 2755.18 334.555C2743.79 345.622 2732.07 356.365 2720.02 366.781C2715.79 370.688 2712.37 373.292 2709.77 374.594C2707.17 375.57 2704.72 376.059 2702.45 376.059C2700.17 376.059 2697.73 375.57 2695.12 374.594C2692.84 373.292 2689.26 370.688 2684.38 366.781C2671.36 356.365 2659.31 345.622 2648.25 334.555C2637.18 323.161 2627.09 312.257 2617.97 301.84C2613.74 296.632 2610.32 292.562 2607.72 289.633C2605.44 286.703 2604.3 283.122 2604.3 278.891ZM2624.81 902.426V466.879C2624.81 457.113 2626.76 450.44 2630.67 446.859C2634.9 442.953 2641.9 441 2651.66 441H2752.25C2762.02 441 2768.85 442.953 2772.76 446.859C2776.99 450.44 2779.11 457.113 2779.11 466.879V932.211C2779.11 982.667 2772.27 1023.68 2758.6 1055.26C2744.93 1087.16 2727.67 1112.22 2706.84 1130.45C2686.01 1149.01 2664.85 1163.66 2643.36 1174.4C2631.64 1180.26 2621.39 1177.98 2612.6 1167.56L2553.03 1094.81C2547.82 1088.62 2545.22 1083.25 2545.22 1078.7C2545.22 1074.46 2548.64 1070.07 2555.47 1065.51C2562.63 1060.63 2571.59 1053.14 2582.33 1043.05C2593.4 1032.96 2603.16 1016.85 2611.62 994.711C2620.41 972.901 2624.81 942.139 2624.81 902.426Z" fill="black"/>
<path d="M3885.66 953.207C3803.63 953.207 3738.69 931.397 3690.84 887.777C3642.99 844.158 3619.06 779.216 3619.06 692.953C3619.06 604.411 3643.8 538.331 3693.28 494.711C3743.09 450.766 3809.49 428.793 3892.5 428.793C3972.58 428.793 4036.71 450.44 4084.88 493.734C4133.06 536.703 4157.15 600.18 4157.15 684.164C4157.15 771.729 4133.06 838.461 4084.88 884.359C4036.71 930.258 3970.3 953.207 3885.66 953.207ZM3890.55 835.043C3926.35 835.043 3953.37 823.975 3971.6 801.84C3989.83 779.379 3998.95 741.13 3998.95 687.094C3998.95 635.661 3989.67 599.529 3971.11 578.695C3952.88 557.536 3925.7 546.957 3889.57 546.957C3854.74 546.957 3827.23 558.35 3807.05 581.137C3787.19 603.598 3777.27 640.219 3777.27 691C3777.27 744.06 3786.71 781.332 3805.59 802.816C3824.79 824.301 3853.11 835.043 3890.55 835.043ZM4745.53 629.965V915.121C4745.53 924.887 4743.41 931.723 4739.18 935.629C4735.27 939.21 4728.44 941 4718.67 941H4618.09C4608.32 941 4601.32 939.21 4597.09 935.629C4593.18 931.723 4591.23 924.887 4591.23 915.121V655.355C4591.23 619.874 4583.74 593.995 4568.77 577.719C4553.8 561.443 4533.45 553.305 4507.73 553.305C4482.02 553.305 4462.16 558.839 4448.16 569.906C4434.49 580.974 4423.91 594.971 4416.43 611.898V915.121C4416.43 924.887 4414.31 931.723 4410.08 935.629C4406.17 939.21 4399.34 941 4389.57 941H4288.98C4279.22 941 4272.22 939.21 4267.99 935.629C4264.08 931.723 4262.13 924.887 4262.13 915.121V505.941C4262.13 498.129 4263.76 492.107 4267.01 487.875C4273.85 478.76 4281.99 469.483 4291.43 460.043C4301.19 450.603 4313.07 440.512 4327.07 429.77C4331.3 426.514 4335.37 424.887 4339.28 424.887C4342.86 424.887 4346.93 426.514 4351.48 429.77C4365.16 440.512 4376.88 450.766 4386.64 460.531C4396.41 470.297 4405.03 480.388 4412.52 490.805H4414.96C4420.49 483.643 4428.8 475.342 4439.86 465.902C4450.93 456.137 4466.39 447.51 4486.25 440.023C4506.43 432.536 4532.15 428.793 4563.4 428.793C4594 428.793 4623.13 434.978 4650.8 447.348C4678.47 459.717 4701.09 480.551 4718.67 509.848C4736.58 539.145 4745.53 579.184 4745.53 629.965Z" fill="black"/>
<path d="M1101.13 1290.96C1108.3 1295.9 1116.8 1299.2 1125.65 1299.33C1134.5 1299.46 1142.9 1296.48 1149.24 1290.82C1155.58 1285.17 1159.5 1277.17 1160.38 1268.37C1161.27 1259.56 1158.96 1250.74 1154.87 1243.04C1149.78 1233.52 1144.5 1224.17 1139.03 1214.99C1117.15 1178.26 1092.24 1144.23 1064.3 1112.9C1011.93 1054.15 959.554 995.4 907.179 936.65C861.788 885.734 825.554 826.653 798.477 759.409C794.311 749.064 790.362 738.525 786.63 727.793C776.865 699.547 752.005 686.272 723.702 685.374C695.338 684.532 664.761 697.111 639.793 719.37C614.826 741.628 598.832 770.565 596.425 798.84C594.08 827.06 604.425 853.275 631.37 866.207C641.604 871.142 651.622 876.27 661.423 881.591C725.13 916.18 779.679 958.933 825.071 1009.85C877.446 1068.6 929.821 1127.35 982.196 1186.1C1010.13 1217.43 1041.09 1246.07 1075.07 1272.01C1083.57 1278.49 1092.25 1284.81 1101.13 1290.96Z" fill="url(#paint4_linear_66_17)"/>
<path d="M107.167 52.3791C100.019 47.4463 91.5767 44.0947 82.7584 43.879C73.9455 43.6586 65.5633 46.5181 59.1869 52.0622C52.8104 57.6064 48.8138 65.5099 47.8073 74.2679C46.7955 83.0306 48.9415 91.8563 52.8329 99.6209C57.4712 108.816 62.3006 117.846 67.3212 126.709C87.4035 162.161 110.545 194.954 136.745 225.088C185.87 281.588 234.995 338.088 284.12 394.588C326.695 443.554 360.012 500.57 384.071 565.636C387.772 575.647 391.254 585.847 394.517 596.238C403.486 624.991 428.133 638.615 456.461 639.829C484.856 640.986 515.77 628.627 541.238 606.483C566.707 584.338 583.242 555.442 586.043 527.162C588.777 498.94 578.71 472.639 551.483 459.762C541.646 455.086 532.028 450.22 522.629 445.164C461.538 412.296 409.705 371.379 367.13 322.412C318.005 265.912 268.88 209.412 219.755 152.912C193.555 122.779 164.296 95.3053 131.979 70.4911C123.899 64.2875 115.629 58.2502 107.167 52.3791Z" fill="url(#paint5_linear_66_17)"/>
<circle cx="585.5" cy="660.5" r="52.5" fill="url(#paint6_radial_66_17)" fill-opacity="0.68"/>
<ellipse cx="586" cy="660.5" rx="37" ry="37.5" fill="url(#paint7_radial_66_17)" fill-opacity="0.68"/>
<path d="M622.671 547.867C624.261 542.143 630.566 539.171 635.993 541.587C640.898 543.771 643.104 549.518 640.92 554.423L622.988 594.698C621.951 597.027 619.641 598.527 617.091 598.527C612.823 598.527 609.73 594.458 610.872 590.345L622.671 547.867Z" fill="url(#paint8_linear_66_17)"/>
<path d="M520.262 801.483C518.894 804.417 515.407 805.686 512.473 804.318C509.428 802.898 508.198 799.215 509.777 796.25L546.66 727.03C548.618 723.354 554.213 725.096 553.738 729.234C553.692 729.637 553.581 730.031 553.409 730.399L520.262 801.483Z" fill="url(#paint9_linear_66_17)"/>
<path d="M683.514 669.247C689.038 671.598 690.663 678.653 686.725 683.184C683.521 686.869 677.936 687.26 674.251 684.056L659.718 671.422C657.33 669.347 657.046 665.74 659.08 663.316C660.72 661.361 663.446 660.708 665.795 661.707L683.514 669.247Z" fill="url(#paint10_linear_66_17)"/>
<path d="M644.307 738.89C646.36 743.726 645.018 749.336 640.998 752.719C632.654 759.743 620.031 752.853 621.425 742.036L623.703 724.355C624.026 721.843 625.658 719.691 627.99 718.701C631.615 717.162 635.802 718.854 637.341 722.48L644.307 738.89Z" fill="url(#paint11_linear_66_17)"/>
<path d="M502.344 589.191C500.497 586.911 500.849 583.566 503.129 581.719C505.582 579.732 509.216 580.31 510.932 582.96L524.396 603.751C525.569 605.562 525.094 607.977 523.322 609.209C521.601 610.404 519.25 610.069 517.932 608.441L502.344 589.191Z" fill="url(#paint12_linear_66_17)"/>
<path d="M791.638 553.94C796.892 551.282 803.296 553.687 805.502 559.146C807.582 564.296 805.094 570.158 799.945 572.238L719.95 604.558C717.023 605.741 713.671 604.618 712.047 601.911C710.131 598.718 711.328 594.569 714.651 592.888L791.638 553.94Z" fill="url(#paint13_linear_66_17)"/>
<path d="M406.21 781.723C400.856 790.934 387.891 791.822 381.331 783.426C375.551 776.028 377.879 765.201 386.189 760.832L405.596 750.629C409.53 748.561 414.39 749.772 416.894 753.444C418.792 756.228 418.922 759.854 417.229 762.767L406.21 781.723Z" fill="url(#paint14_linear_66_17)"/>
<path d="M401.48 670.603C395.895 670.7 391.288 666.251 391.191 660.666C391.088 654.789 396 650.062 401.869 650.391L486.616 655.134C490.324 655.342 493.224 658.409 493.224 662.123C493.224 665.941 490.164 669.055 486.347 669.121L401.48 670.603Z" fill="url(#paint15_linear_66_17)"/>
</g>
<defs>
<linearGradient id="paint0_linear_66_17" x1="3262.37" y1="659.336" x2="2846.37" y2="1117.34" gradientUnits="userSpaceOnUse">
<stop offset="0.2"/>
<stop offset="1" stop-color="#595959"/>
</linearGradient>
<linearGradient id="paint1_linear_66_17" x1="3290.65" y1="636.642" x2="3707.65" y2="229.642" gradientUnits="userSpaceOnUse">
<stop offset="0.2"/>
<stop offset="1" stop-color="#595959"/>
</linearGradient>
<linearGradient id="paint2_linear_66_17" x1="3291.33" y1="658.622" x2="3708.33" y2="1020.62" gradientUnits="userSpaceOnUse">
<stop offset="0.2"/>
<stop offset="1" stop-color="#595959"/>
</linearGradient>
<linearGradient id="paint3_linear_66_17" x1="3261.61" y1="637.309" x2="2941.61" y2="230.309" gradientUnits="userSpaceOnUse">
<stop offset="0.2"/>
<stop offset="1" stop-color="#595959"/>
</linearGradient>
<linearGradient id="paint4_linear_66_17" x1="709.373" y1="796.667" x2="1128.37" y2="1266.67" gradientUnits="userSpaceOnUse">
<stop/>
<stop offset="1" stop-color="#787878"/>
</linearGradient>
<linearGradient id="paint5_linear_66_17" x1="472.623" y1="528.328" x2="79.6227" y2="76.3281" gradientUnits="userSpaceOnUse">
<stop/>
<stop offset="1" stop-color="#787878"/>
</linearGradient>
<radialGradient id="paint6_radial_66_17" cx="0" cy="0" r="1" gradientUnits="userSpaceOnUse" gradientTransform="translate(585.5 660.5) rotate(90) scale(52.5)">
<stop offset="0.567308" stop-color="#FF2410"/>
<stop offset="1" stop-color="#FF1500"/>
</radialGradient>
<radialGradient id="paint7_radial_66_17" cx="0" cy="0" r="1" gradientUnits="userSpaceOnUse" gradientTransform="translate(586 660.5) rotate(90) scale(37.5 37)">
<stop offset="0.591346" stop-color="#F7FF10"/>
<stop offset="1" stop-color="#FAA42B"/>
</radialGradient>
<linearGradient id="paint8_linear_66_17" x1="635.282" y1="541.271" x2="611.691" y2="594.256" gradientUnits="userSpaceOnUse">
<stop stop-color="#FF5D5D"/>
<stop offset="1" stop-color="#FFE580"/>
</linearGradient>
<linearGradient id="paint9_linear_66_17" x1="512.328" y1="804.25" x2="548.211" y2="727.298" gradientUnits="userSpaceOnUse">
<stop stop-color="#FF5D5D"/>
<stop offset="1" stop-color="#FFE580"/>
</linearGradient>
<linearGradient id="paint10_linear_66_17" x1="687.813" y1="681.932" x2="662.304" y2="659.758" gradientUnits="userSpaceOnUse">
<stop stop-color="#FF5D5D"/>
<stop offset="1" stop-color="#FFE580"/>
</linearGradient>
<linearGradient id="paint11_linear_66_17" x1="642.597" y1="749.22" x2="629.391" y2="718.108" gradientUnits="userSpaceOnUse">
<stop stop-color="#FF5D5D"/>
<stop offset="1" stop-color="#FFE580"/>
</linearGradient>
<linearGradient id="paint12_linear_66_17" x1="503.36" y1="581.532" x2="524.631" y2="607.798" gradientUnits="userSpaceOnUse">
<stop stop-color="#FF5D5D"/>
<stop offset="1" stop-color="#FFE580"/>
</linearGradient>
<linearGradient id="paint13_linear_66_17" x1="805.336" y1="558.735" x2="710.934" y2="596.876" gradientUnits="userSpaceOnUse">
<stop stop-color="#FF5D5D"/>
<stop offset="1" stop-color="#FFE580"/>
</linearGradient>
<linearGradient id="paint14_linear_66_17" x1="382.631" y1="785.09" x2="418.269" y2="757.246" gradientUnits="userSpaceOnUse">
<stop stop-color="#FF5D5D"/>
<stop offset="1" stop-color="#FFE580"/>
</linearGradient>
<linearGradient id="paint15_linear_66_17" x1="391.069" y1="653.662" x2="492.926" y2="651.884" gradientUnits="userSpaceOnUse">
<stop stop-color="#FF5D5D"/>
<stop offset="1" stop-color="#FFE580"/>
</linearGradient>
<clipPath id="clip0_66_17">
<rect width="4992" height="1343" fill="white"/>
</clipPath>
</defs>
</svg>
