<svg width="4481" height="1209" viewBox="0 0 4481 1209" fill="none" xmlns="http://www.w3.org/2000/svg">
<path d="M2182.19 1015.74C2177.98 1023.76 2175.55 1032.91 2176.41 1042.07C2177.27 1051.22 2181.25 1059.55 2187.77 1065.47C2194.29 1071.39 2202.96 1074.56 2212.15 1074.53C2221.35 1074.51 2230.23 1071.22 2237.81 1066.26C2237.81 1066.26 2237.81 1066.26 2237.81 1066.26C2246.7 1060.4 2255.39 1054.37 2263.89 1048.16C2297.89 1023.31 2328.75 995.62 2356.48 965.087C2408.48 907.837 2460.48 850.587 2512.48 793.337C2557.55 743.72 2612.09 702.711 2676.11 670.308C2685.96 665.323 2696.03 660.542 2706.33 655.965C2735.12 643.233 2746.23 616.032 2744.01 586.52C2741.72 556.946 2725.08 526.391 2698.96 502.669C2672.85 478.947 2640.84 465.319 2611.18 465.874C2581.59 466.492 2555.58 480.157 2545.67 510.035C2542.1 520.725 2538.31 531.21 2534.29 541.492C2508.17 608.323 2472.58 666.546 2427.52 716.163C2375.52 773.413 2323.52 830.663 2271.52 887.913C2243.78 918.446 2219.18 951.823 2197.71 988.044C2192.34 997.099 2187.17 1006.33 2182.19 1015.74Z" fill="url(#paint0_linear_78_179)"/>
<path d="M3098.24 180.883C3102.79 173.094 3105.7 164.126 3105.36 154.979C3105.04 145.837 3101.58 137.348 3095.47 131.091C3089.37 124.834 3080.96 121.172 3071.83 120.623C3062.7 120.069 3053.66 122.754 3045.76 127.117C3045.76 127.117 3045.76 127.117 3045.76 127.117C3036.97 132.009 3028.35 137.089 3019.93 142.359C2986.22 163.439 2955.46 187.545 2927.66 214.679C2875.54 265.554 2823.41 316.429 2771.29 367.304C2726.11 411.395 2672 446.326 2608.94 472.095C2599.24 476.06 2589.32 479.807 2579.2 483.338C2549.15 493.752 2536.36 520.175 2536.86 549.817C2537.42 579.531 2552.41 611.263 2577.34 636.8C2602.26 662.336 2633.62 678.097 2663.31 679.379C2692.93 680.591 2719.66 668.455 2730.8 638.662C2730.8 638.662 2730.8 638.662 2730.8 638.662C2734.58 628.626 2738.56 618.807 2742.76 609.205C2770.05 546.791 2806.29 493.538 2851.46 449.446C2903.59 398.571 2955.71 347.696 3007.84 296.821C3035.64 269.688 3060.48 239.528 3082.37 206.341C3087.85 198.044 3093.13 189.558 3098.24 180.883Z" fill="url(#paint1_linear_78_179)"/>
<path d="M3047.37 973.367C3055.54 977.133 3064.69 979.224 3073.73 978.12C3082.77 977.021 3090.89 972.9 3096.58 966.342C3102.28 959.784 3105.22 951.166 3105.03 942.062C3104.86 932.953 3101.5 924.187 3096.63 916.633C3096.63 916.633 3096.63 916.633 3096.63 916.633C3091.41 908.603 3086.02 900.773 3080.45 893.143C3058.2 862.622 3033.17 835.294 3005.37 811.161C2953.25 765.911 2901.12 720.661 2849 675.411C2803.82 636.194 2767.04 587.31 2738.65 528.76C2734.28 519.752 2730.11 510.515 2726.14 501.05C2713.77 471.393 2686.44 460.775 2656.89 463.762C2627.28 466.829 2596.69 484.624 2573.05 511.858C2549.41 539.093 2536.09 571.878 2537.21 601.628C2538.4 631.299 2552.76 656.871 2583.86 664.95C2583.86 664.95 2583.86 664.95 2583.86 664.95C2593.79 667.551 2603.52 670.382 2613.05 673.44C2675.01 693.323 2728.58 722.872 2773.75 762.089C2825.88 807.339 2878 852.589 2930.13 897.839C2957.93 921.972 2988.5 942.912 3021.85 960.657C3030.18 965.094 3038.69 969.33 3047.37 973.367Z" fill="url(#paint2_linear_78_179)"/>
<path d="M2335.53 130.782C2328.16 125.697 2319.59 122.004 2310.55 121.418C2301.51 120.828 2292.84 123.327 2286.07 128.648C2279.3 133.97 2274.82 141.811 2273.27 150.729C2271.7 159.652 2273.27 168.856 2276.47 177.218C2276.47 177.218 2276.47 177.218 2276.47 177.218C2279.72 185.635 2283.19 193.889 2286.86 201.98C2301.54 234.341 2319.55 264.089 2340.88 291.222C2380.88 342.097 2420.88 392.972 2460.88 443.847C2495.55 487.939 2520.15 539.943 2534.69 599.859C2536.93 609.077 2538.93 618.482 2540.69 628.075C2546.5 660.119 2571.26 675.762 2600.91 678.343C2630.64 680.855 2664.34 668.902 2693.07 646.311C2721.81 623.72 2741.38 593.79 2745.95 564.305C2750.44 534.888 2741.08 507.133 2711.31 493.925C2702.4 489.951 2693.74 485.789 2685.31 481.441C2630.51 453.174 2585.78 416.994 2551.12 372.903C2511.12 322.028 2471.12 271.153 2431.12 220.278C2409.78 193.144 2385.12 168.625 2357.14 146.72C2350.15 141.244 2342.94 135.931 2335.53 130.782Z" fill="url(#paint3_linear_78_179)"/>
<mask id="path-5-outside-1_78_179" maskUnits="userSpaceOnUse" x="377" y="104" width="1789" height="999" fill="black">
<rect fill="white" x="377" y="104" width="1789" height="999"/>
<path d="M644.082 631.113C635.618 631.113 628.457 628.997 622.598 624.766C616.413 620.534 609.089 614.512 600.625 606.699C592.161 598.887 582.721 589.284 572.305 577.891C568.398 573.333 566.445 569.264 566.445 565.684C566.445 562.103 568.398 558.034 572.305 553.477C592.487 530.69 610.879 513.926 627.48 503.184C631.387 500.579 636.921 499.277 644.082 499.277C666.217 499.277 685.26 490.977 701.211 474.375C717.487 457.773 725.299 430.918 724.648 393.809C724.323 353.77 714.395 325.775 694.863 309.824C675.658 293.874 649.29 285.898 615.762 285.898H592.324C570.84 285.898 556.191 290.456 548.379 299.57C540.566 308.685 536.66 324.31 536.66 346.445V839.121C536.66 848.887 534.544 855.723 530.312 859.629C526.406 863.21 519.57 865 509.805 865H405.801C396.035 865 389.036 863.21 384.805 859.629C380.898 855.723 378.945 848.887 378.945 839.121V295.664C378.945 263.112 381.875 237.396 387.734 218.516C393.919 199.31 405.638 185.638 422.891 177.5C440.469 169.036 466.022 164.805 499.551 164.805H615.762C709.186 164.805 778.359 183.197 823.281 219.98C868.203 256.439 890.664 312.428 890.664 387.949C890.664 444.59 878.783 490.814 855.02 526.621C831.582 562.428 800.983 588.796 763.223 605.723C725.788 622.65 686.074 631.113 644.082 631.113ZM1120.64 457.773H1122.6C1147.01 390.065 1190.96 356.211 1254.43 356.211C1262.57 356.211 1269.24 356.699 1274.45 357.676C1279.66 358.327 1283.24 358.978 1285.2 359.629C1290.08 361.257 1292.52 365 1292.52 370.859V488.535C1292.52 498.626 1286.66 501.393 1274.94 496.836C1271.04 495.208 1265.34 493.581 1257.85 491.953C1250.69 490 1240.6 489.023 1227.58 489.023C1194.05 489.023 1167.85 501.393 1148.96 526.133C1130.08 550.547 1120.64 583.913 1120.64 626.23V839.121C1120.64 848.887 1118.53 855.723 1114.3 859.629C1110.39 863.21 1103.55 865 1093.79 865H993.203C983.438 865 976.439 863.21 972.207 859.629C968.301 855.723 966.348 848.887 966.348 839.121V429.941C966.348 422.129 967.975 416.107 971.23 411.875C978.066 402.76 986.204 393.483 995.645 384.043C1005.41 374.603 1017.29 364.512 1031.29 353.77C1033.89 351.816 1036.5 350.514 1039.1 349.863C1041.71 349.212 1043.98 348.887 1045.94 348.887C1050.49 348.887 1055.05 350.514 1059.61 353.77C1086.63 374.928 1105.51 392.995 1116.25 407.969C1119.18 411.875 1120.64 416.432 1120.64 421.641V457.773ZM1605.51 877.207C1523.48 877.207 1458.54 855.397 1410.68 811.777C1362.83 768.158 1338.91 703.216 1338.91 616.953C1338.91 528.411 1363.65 462.331 1413.12 418.711C1462.93 374.766 1529.34 352.793 1612.34 352.793C1692.42 352.793 1756.55 374.44 1804.73 417.734C1852.9 460.703 1876.99 524.18 1876.99 608.164C1876.99 695.729 1852.9 762.461 1804.73 808.359C1756.55 854.258 1690.14 877.207 1605.51 877.207ZM1610.39 759.043C1646.2 759.043 1673.22 747.975 1691.45 725.84C1709.67 703.379 1718.79 665.13 1718.79 611.094C1718.79 559.661 1709.51 523.529 1690.96 502.695C1672.73 481.536 1645.55 470.957 1609.41 470.957C1574.58 470.957 1547.08 482.35 1526.89 505.137C1507.04 527.598 1497.11 564.219 1497.11 615C1497.11 668.06 1506.55 705.332 1525.43 726.816C1544.64 748.301 1572.96 759.043 1610.39 759.043ZM1968.3 202.891C1968.3 198.659 1969.44 195.078 1971.72 192.148C1974.32 188.893 1977.74 184.661 1981.97 179.453C1991.09 169.036 2001.5 158.294 2013.22 147.227C2025.27 135.833 2037.31 124.928 2049.36 114.512C2056.84 108.327 2062.54 105.234 2066.45 105.234C2070.35 105.234 2076.21 108.327 2084.02 114.512C2109.41 136.322 2131.55 157.969 2150.43 179.453C2154.34 184.336 2157.59 188.405 2160.2 191.66C2163.12 194.915 2164.59 198.659 2164.59 202.891C2164.59 207.122 2163.12 210.866 2160.2 214.121C2157.59 217.051 2154.17 221.283 2149.94 226.816C2141.15 236.908 2130.9 247.487 2119.18 258.555C2107.79 269.622 2096.07 280.365 2084.02 290.781C2079.79 294.688 2076.37 297.292 2073.77 298.594C2071.17 299.57 2068.72 300.059 2066.45 300.059C2064.17 300.059 2061.73 299.57 2059.12 298.594C2056.84 297.292 2053.26 294.688 2048.38 290.781C2035.36 280.365 2023.31 269.622 2012.25 258.555C2001.18 247.161 1991.09 236.257 1981.97 225.84C1977.74 220.632 1974.32 216.562 1971.72 213.633C1969.44 210.703 1968.3 207.122 1968.3 202.891ZM1988.81 826.426V390.879C1988.81 381.113 1990.76 374.44 1994.67 370.859C1998.9 366.953 2005.9 365 2015.66 365H2116.25C2126.02 365 2132.85 366.953 2136.76 370.859C2140.99 374.44 2143.11 381.113 2143.11 390.879V856.211C2143.11 906.667 2136.27 947.682 2122.6 979.258C2108.93 1011.16 2091.67 1036.22 2070.84 1054.45C2050.01 1073.01 2028.85 1087.66 2007.36 1098.4C1995.64 1104.26 1985.39 1101.98 1976.6 1091.56L1917.03 1018.81C1911.82 1012.62 1909.22 1007.25 1909.22 1002.7C1909.22 998.464 1912.64 994.069 1919.47 989.512C1926.63 984.629 1935.59 977.142 1946.33 967.051C1957.4 956.96 1967.16 940.846 1975.62 918.711C1984.41 896.901 1988.81 866.139 1988.81 826.426Z"/>
</mask>
<path d="M644.082 631.113C635.618 631.113 628.457 628.997 622.598 624.766C616.413 620.534 609.089 614.512 600.625 606.699C592.161 598.887 582.721 589.284 572.305 577.891C568.398 573.333 566.445 569.264 566.445 565.684C566.445 562.103 568.398 558.034 572.305 553.477C592.487 530.69 610.879 513.926 627.48 503.184C631.387 500.579 636.921 499.277 644.082 499.277C666.217 499.277 685.26 490.977 701.211 474.375C717.487 457.773 725.299 430.918 724.648 393.809C724.323 353.77 714.395 325.775 694.863 309.824C675.658 293.874 649.29 285.898 615.762 285.898H592.324C570.84 285.898 556.191 290.456 548.379 299.57C540.566 308.685 536.66 324.31 536.66 346.445V839.121C536.66 848.887 534.544 855.723 530.312 859.629C526.406 863.21 519.57 865 509.805 865H405.801C396.035 865 389.036 863.21 384.805 859.629C380.898 855.723 378.945 848.887 378.945 839.121V295.664C378.945 263.112 381.875 237.396 387.734 218.516C393.919 199.31 405.638 185.638 422.891 177.5C440.469 169.036 466.022 164.805 499.551 164.805H615.762C709.186 164.805 778.359 183.197 823.281 219.98C868.203 256.439 890.664 312.428 890.664 387.949C890.664 444.59 878.783 490.814 855.02 526.621C831.582 562.428 800.983 588.796 763.223 605.723C725.788 622.65 686.074 631.113 644.082 631.113ZM1120.64 457.773H1122.6C1147.01 390.065 1190.96 356.211 1254.43 356.211C1262.57 356.211 1269.24 356.699 1274.45 357.676C1279.66 358.327 1283.24 358.978 1285.2 359.629C1290.08 361.257 1292.52 365 1292.52 370.859V488.535C1292.52 498.626 1286.66 501.393 1274.94 496.836C1271.04 495.208 1265.34 493.581 1257.85 491.953C1250.69 490 1240.6 489.023 1227.58 489.023C1194.05 489.023 1167.85 501.393 1148.96 526.133C1130.08 550.547 1120.64 583.913 1120.64 626.23V839.121C1120.64 848.887 1118.53 855.723 1114.3 859.629C1110.39 863.21 1103.55 865 1093.79 865H993.203C983.438 865 976.439 863.21 972.207 859.629C968.301 855.723 966.348 848.887 966.348 839.121V429.941C966.348 422.129 967.975 416.107 971.23 411.875C978.066 402.76 986.204 393.483 995.645 384.043C1005.41 374.603 1017.29 364.512 1031.29 353.77C1033.89 351.816 1036.5 350.514 1039.1 349.863C1041.71 349.212 1043.98 348.887 1045.94 348.887C1050.49 348.887 1055.05 350.514 1059.61 353.77C1086.63 374.928 1105.51 392.995 1116.25 407.969C1119.18 411.875 1120.64 416.432 1120.64 421.641V457.773ZM1605.51 877.207C1523.48 877.207 1458.54 855.397 1410.68 811.777C1362.83 768.158 1338.91 703.216 1338.91 616.953C1338.91 528.411 1363.65 462.331 1413.12 418.711C1462.93 374.766 1529.34 352.793 1612.34 352.793C1692.42 352.793 1756.55 374.44 1804.73 417.734C1852.9 460.703 1876.99 524.18 1876.99 608.164C1876.99 695.729 1852.9 762.461 1804.73 808.359C1756.55 854.258 1690.14 877.207 1605.51 877.207ZM1610.39 759.043C1646.2 759.043 1673.22 747.975 1691.45 725.84C1709.67 703.379 1718.79 665.13 1718.79 611.094C1718.79 559.661 1709.51 523.529 1690.96 502.695C1672.73 481.536 1645.55 470.957 1609.41 470.957C1574.58 470.957 1547.08 482.35 1526.89 505.137C1507.04 527.598 1497.11 564.219 1497.11 615C1497.11 668.06 1506.55 705.332 1525.43 726.816C1544.64 748.301 1572.96 759.043 1610.39 759.043ZM1968.3 202.891C1968.3 198.659 1969.44 195.078 1971.72 192.148C1974.32 188.893 1977.74 184.661 1981.97 179.453C1991.09 169.036 2001.5 158.294 2013.22 147.227C2025.27 135.833 2037.31 124.928 2049.36 114.512C2056.84 108.327 2062.54 105.234 2066.45 105.234C2070.35 105.234 2076.21 108.327 2084.02 114.512C2109.41 136.322 2131.55 157.969 2150.43 179.453C2154.34 184.336 2157.59 188.405 2160.2 191.66C2163.12 194.915 2164.59 198.659 2164.59 202.891C2164.59 207.122 2163.12 210.866 2160.2 214.121C2157.59 217.051 2154.17 221.283 2149.94 226.816C2141.15 236.908 2130.9 247.487 2119.18 258.555C2107.79 269.622 2096.07 280.365 2084.02 290.781C2079.79 294.688 2076.37 297.292 2073.77 298.594C2071.17 299.57 2068.72 300.059 2066.45 300.059C2064.17 300.059 2061.73 299.57 2059.12 298.594C2056.84 297.292 2053.26 294.688 2048.38 290.781C2035.36 280.365 2023.31 269.622 2012.25 258.555C2001.18 247.161 1991.09 236.257 1981.97 225.84C1977.74 220.632 1974.32 216.562 1971.72 213.633C1969.44 210.703 1968.3 207.122 1968.3 202.891ZM1988.81 826.426V390.879C1988.81 381.113 1990.76 374.44 1994.67 370.859C1998.9 366.953 2005.9 365 2015.66 365H2116.25C2126.02 365 2132.85 366.953 2136.76 370.859C2140.99 374.44 2143.11 381.113 2143.11 390.879V856.211C2143.11 906.667 2136.27 947.682 2122.6 979.258C2108.93 1011.16 2091.67 1036.22 2070.84 1054.45C2050.01 1073.01 2028.85 1087.66 2007.36 1098.4C1995.64 1104.26 1985.39 1101.98 1976.6 1091.56L1917.03 1018.81C1911.82 1012.62 1909.22 1007.25 1909.22 1002.7C1909.22 998.464 1912.64 994.069 1919.47 989.512C1926.63 984.629 1935.59 977.142 1946.33 967.051C1957.4 956.96 1967.16 940.846 1975.62 918.711C1984.41 896.901 1988.81 866.139 1988.81 826.426Z" fill="white"/>
<path d="M622.598 624.766L623.183 623.955L623.173 623.947L623.162 623.94L622.598 624.766ZM572.305 577.891L571.545 578.541L571.556 578.554L571.567 578.565L572.305 577.891ZM572.305 553.477L571.556 552.814L571.551 552.82L571.545 552.826L572.305 553.477ZM627.48 503.184L628.024 504.023L628.035 504.016L627.48 503.184ZM701.211 474.375L700.497 473.675L700.49 473.682L701.211 474.375ZM724.648 393.809L723.648 393.817L723.649 393.826L724.648 393.809ZM694.863 309.824L694.224 310.594L694.231 310.599L694.863 309.824ZM530.312 859.629L530.988 860.366L530.991 860.364L530.312 859.629ZM384.805 859.629L384.098 860.336L384.127 860.365L384.159 860.392L384.805 859.629ZM387.734 218.516L386.782 218.209L386.779 218.219L387.734 218.516ZM422.891 177.5L423.317 178.404L423.324 178.401L422.891 177.5ZM823.281 219.98L822.648 220.754L822.651 220.757L823.281 219.98ZM855.02 526.621L854.186 526.068L854.183 526.073L855.02 526.621ZM763.223 605.723L762.814 604.81L762.811 604.811L763.223 605.723ZM644.082 631.113V630.113C635.792 630.113 628.844 628.044 623.183 623.955L622.598 624.766L622.012 625.576C628.07 629.951 635.445 632.113 644.082 632.113V631.113ZM622.598 624.766L623.162 623.94C617.033 619.746 609.748 613.759 601.303 605.964L600.625 606.699L599.947 607.434C608.429 615.264 615.793 621.321 622.033 625.591L622.598 624.766ZM600.625 606.699L601.303 605.964C592.866 598.176 583.446 588.595 573.043 577.216L572.305 577.891L571.567 578.565C581.996 589.973 591.457 599.597 599.947 607.434L600.625 606.699ZM572.305 577.891L573.064 577.24C569.216 572.751 567.445 568.91 567.445 565.684H566.445H565.445C565.445 569.619 567.581 573.916 571.545 578.541L572.305 577.891ZM566.445 565.684H567.445C567.445 562.457 569.216 558.617 573.064 554.127L572.305 553.477L571.545 552.826C567.581 557.451 565.445 561.749 565.445 565.684H566.445ZM572.305 553.477L573.053 554.14C593.204 531.389 611.528 514.697 628.024 504.023L627.48 503.184L626.937 502.344C610.23 513.154 591.77 529.992 571.556 552.814L572.305 553.477ZM627.48 503.184L628.035 504.016C631.712 501.565 637.021 500.277 644.082 500.277V499.277V498.277C636.82 498.277 631.062 499.594 626.926 502.352L627.48 503.184ZM644.082 499.277V500.277C666.502 500.277 685.801 491.857 701.932 475.068L701.211 474.375L700.49 473.682C684.719 490.096 665.933 498.277 644.082 498.277V499.277ZM701.211 474.375L701.925 475.075C718.474 458.195 726.301 431.014 725.648 393.791L724.648 393.809L723.649 393.826C724.298 430.822 716.5 457.352 700.497 473.675L701.211 474.375ZM724.648 393.809L725.648 393.8C725.322 353.638 715.365 325.276 695.496 309.05L694.863 309.824L694.231 310.599C713.424 326.274 723.324 353.901 723.648 393.817L724.648 393.809ZM694.863 309.824L695.502 309.055C676.064 292.911 649.443 284.898 615.762 284.898V285.898V286.898C649.137 286.898 675.252 294.836 694.224 310.594L694.863 309.824ZM615.762 285.898V284.898H592.324V285.898V286.898H615.762V285.898ZM592.324 285.898V284.898C570.764 284.898 555.728 289.46 547.62 298.92L548.379 299.57L549.138 300.221C556.655 291.452 570.916 286.898 592.324 286.898V285.898ZM548.379 299.57L547.62 298.92C539.566 308.316 535.66 324.249 535.66 346.445H536.66H537.66C537.66 324.371 541.567 309.054 549.138 300.221L548.379 299.57ZM536.66 346.445H535.66V839.121H536.66H537.66V346.445H536.66ZM536.66 839.121H535.66C535.66 848.792 533.556 855.274 529.634 858.894L530.312 859.629L530.991 860.364C535.532 856.172 537.66 848.981 537.66 839.121H536.66ZM530.312 859.629L529.637 858.892C526.018 862.209 519.508 864 509.805 864V865V866C519.632 866 526.795 864.21 530.988 860.366L530.312 859.629ZM509.805 865V864H405.801V865V866H509.805V865ZM405.801 865V864C396.109 864 389.408 862.214 385.451 858.866L384.805 859.629L384.159 860.392C388.665 864.205 395.961 866 405.801 866V865ZM384.805 859.629L385.512 858.922C381.893 855.303 379.945 848.809 379.945 839.121H378.945H377.945C377.945 848.964 379.903 856.142 384.098 860.336L384.805 859.629ZM378.945 839.121H379.945V295.664H378.945H377.945V839.121H378.945ZM378.945 295.664H379.945C379.945 263.156 382.873 237.554 388.689 218.812L387.734 218.516L386.779 218.219C380.877 237.237 377.945 263.067 377.945 295.664H378.945ZM387.734 218.516L388.686 218.822C394.792 199.863 406.331 186.417 423.317 178.404L422.891 177.5L422.464 176.596C404.945 184.859 393.047 198.757 386.783 218.209L387.734 218.516ZM422.891 177.5L423.324 178.401C440.703 170.034 466.079 165.805 499.551 165.805V164.805V163.805C465.965 163.805 440.235 168.039 422.457 176.599L422.891 177.5ZM499.551 164.805V165.805H615.762V164.805V163.805H499.551V164.805ZM615.762 164.805V165.805C709.087 165.805 777.985 184.183 822.648 220.754L823.281 219.98L823.915 219.207C778.734 182.211 709.286 163.805 615.762 163.805V164.805ZM823.281 219.98L822.651 220.757C867.272 256.971 889.664 312.631 889.664 387.949H890.664H891.664C891.664 312.226 869.135 255.907 823.911 219.204L823.281 219.98ZM890.664 387.949H889.664C889.664 444.455 877.811 490.469 854.186 526.068L855.02 526.621L855.853 527.174C879.754 491.158 891.664 444.725 891.664 387.949H890.664ZM855.02 526.621L854.183 526.073C830.846 561.726 800.393 587.964 762.814 604.81L763.223 605.723L763.632 606.635C801.573 589.627 832.318 563.13 855.856 527.169L855.02 526.621ZM763.223 605.723L762.811 604.811C725.508 621.679 685.935 630.113 644.082 630.113V631.113V632.113C686.213 632.113 726.067 623.621 763.635 606.634L763.223 605.723ZM1120.64 457.773H1119.64V458.773H1120.64V457.773ZM1122.6 457.773V458.773H1123.3L1123.54 458.113L1122.6 457.773ZM1274.45 357.676L1274.27 358.659L1274.3 358.664L1274.33 358.668L1274.45 357.676ZM1285.2 359.629L1285.51 358.68L1285.2 359.629ZM1274.94 496.836L1274.56 497.759L1274.57 497.764L1274.58 497.768L1274.94 496.836ZM1257.85 491.953L1257.59 492.918L1257.61 492.925L1257.64 492.93L1257.85 491.953ZM1148.96 526.133L1149.76 526.745L1149.76 526.739L1148.96 526.133ZM1114.3 859.629L1114.97 860.366L1114.98 860.364L1114.3 859.629ZM972.207 859.629L971.5 860.336L971.529 860.365L971.561 860.392L972.207 859.629ZM971.23 411.875L972.023 412.485L972.03 412.475L971.23 411.875ZM995.645 384.043L994.95 383.324L994.943 383.33L994.937 383.336L995.645 384.043ZM1031.29 353.77L1030.69 352.969L1030.68 352.976L1031.29 353.77ZM1059.61 353.77L1060.23 352.982L1060.21 352.969L1060.19 352.956L1059.61 353.77ZM1116.25 407.969L1115.44 408.552L1115.44 408.56L1115.45 408.569L1116.25 407.969ZM1120.64 457.773V458.773H1122.6V457.773V456.773H1120.64V457.773ZM1122.6 457.773L1123.54 458.113C1135.7 424.385 1152.69 399.174 1174.48 382.394C1196.25 365.62 1222.88 357.211 1254.43 357.211V356.211V355.211C1222.51 355.211 1195.43 363.729 1173.26 380.809C1151.09 397.883 1133.91 423.453 1121.66 457.434L1122.6 457.773ZM1254.43 356.211V357.211C1262.54 357.211 1269.14 357.698 1274.27 358.659L1274.45 357.676L1274.64 356.693C1269.35 355.701 1262.6 355.211 1254.43 355.211V356.211ZM1274.45 357.676L1274.33 358.668C1279.54 359.32 1283.03 359.962 1284.88 360.578L1285.2 359.629L1285.51 358.68C1283.45 357.994 1279.78 357.334 1274.58 356.684L1274.45 357.676ZM1285.2 359.629L1284.88 360.578C1287.14 361.331 1288.77 362.549 1289.85 364.203C1290.94 365.869 1291.52 368.064 1291.52 370.859H1292.52H1293.52C1293.52 367.795 1292.88 365.189 1291.53 363.111C1290.16 361.022 1288.13 359.554 1285.51 358.68L1285.2 359.629ZM1292.52 370.859H1291.52V488.535H1292.52H1293.52V370.859H1292.52ZM1292.52 488.535H1291.52C1291.52 493.433 1290.1 496.138 1287.7 497.274C1285.17 498.47 1281.12 498.166 1275.3 495.904L1274.94 496.836L1274.58 497.768C1280.48 500.063 1285.22 500.655 1288.55 499.083C1292.01 497.452 1293.52 493.728 1293.52 488.535H1292.52ZM1274.94 496.836L1275.33 495.913C1271.34 494.251 1265.57 492.608 1258.06 490.976L1257.85 491.953L1257.64 492.93C1265.11 494.554 1270.73 496.166 1274.56 497.759L1274.94 496.836ZM1257.85 491.953L1258.11 490.988C1250.83 489.001 1240.63 488.023 1227.58 488.023V489.023V490.023C1240.57 490.023 1250.55 490.999 1257.59 492.918L1257.85 491.953ZM1227.58 489.023V488.023C1193.77 488.023 1167.26 500.517 1148.17 525.526L1148.96 526.133L1149.76 526.739C1168.43 502.269 1194.33 490.023 1227.58 490.023V489.023ZM1148.96 526.133L1148.17 525.521C1129.12 550.165 1119.64 583.772 1119.64 626.23H1120.64H1121.64C1121.64 584.053 1131.05 550.929 1149.76 526.745L1148.96 526.133ZM1120.64 626.23H1119.64V839.121H1120.64H1121.64V626.23H1120.64ZM1120.64 839.121H1119.64C1119.64 848.792 1117.54 855.274 1113.62 858.894L1114.3 859.629L1114.98 860.364C1119.52 856.172 1121.64 848.981 1121.64 839.121H1120.64ZM1114.3 859.629L1113.62 858.892C1110 862.209 1103.49 864 1093.79 864V865V866C1103.62 866 1110.78 864.21 1114.97 860.366L1114.3 859.629ZM1093.79 865V864H993.203V865V866H1093.79V865ZM993.203 865V864C983.512 864 976.81 862.214 972.853 858.866L972.207 859.629L971.561 860.392C976.067 864.205 983.363 866 993.203 866V865ZM972.207 859.629L972.914 858.922C969.296 855.303 967.348 848.809 967.348 839.121H966.348H965.348C965.348 848.964 967.306 856.142 971.5 860.336L972.207 859.629ZM966.348 839.121H967.348V429.941H966.348H965.348V839.121H966.348ZM966.348 429.941H967.348C967.348 422.251 968.952 416.477 972.023 412.485L971.23 411.875L970.438 411.265C966.998 415.736 965.348 422.007 965.348 429.941H966.348ZM971.23 411.875L972.03 412.475C978.834 403.404 986.939 394.162 996.352 384.75L995.645 384.043L994.937 383.336C985.469 392.804 977.299 402.117 970.43 411.275L971.23 411.875ZM995.645 384.043L996.34 384.762C1006.07 375.355 1017.92 365.288 1031.9 354.563L1031.29 353.77L1030.68 352.976C1016.66 363.735 1004.75 373.851 994.95 383.324L995.645 384.043ZM1031.29 353.77L1031.89 354.57C1034.41 352.68 1036.89 351.446 1039.34 350.833L1039.1 349.863L1038.86 348.893C1036.1 349.583 1033.38 350.953 1030.69 352.97L1031.29 353.77ZM1039.1 349.863L1039.34 350.833C1041.9 350.195 1044.09 349.887 1045.94 349.887V348.887V347.887C1043.88 347.887 1041.52 348.229 1038.86 348.893L1039.1 349.863ZM1045.94 348.887V349.887C1050.24 349.887 1054.6 351.421 1059.03 354.583L1059.61 353.77L1060.19 352.956C1055.5 349.608 1050.75 347.887 1045.94 347.887V348.887ZM1059.61 353.77L1058.99 354.557C1085.99 375.698 1104.78 393.695 1115.44 408.552L1116.25 407.969L1117.06 407.386C1106.24 392.295 1087.27 374.158 1060.23 352.982L1059.61 353.77ZM1116.25 407.969L1115.45 408.569C1118.24 412.29 1119.64 416.633 1119.64 421.641H1120.64H1121.64C1121.64 416.231 1120.12 411.46 1117.05 407.369L1116.25 407.969ZM1120.64 421.641H1119.64V457.773H1120.64H1121.64V421.641H1120.64ZM1413.12 418.711L1413.79 419.461L1413.79 419.461L1413.12 418.711ZM1804.73 417.734L1804.06 418.478L1804.06 418.481L1804.73 417.734ZM1804.73 808.359L1804.04 807.635L1804.73 808.359ZM1691.45 725.84L1692.22 726.476L1692.22 726.47L1691.45 725.84ZM1690.96 502.695L1690.2 503.348L1690.2 503.354L1690.21 503.36L1690.96 502.695ZM1526.89 505.137L1526.15 504.474L1526.15 504.474L1526.89 505.137ZM1525.43 726.816L1524.68 727.477L1524.68 727.483L1525.43 726.816ZM1605.51 877.207V876.207C1523.66 876.207 1458.98 854.449 1411.36 811.038L1410.68 811.777L1410.01 812.516C1458.09 856.345 1523.3 878.207 1605.51 878.207V877.207ZM1410.68 811.777L1411.36 811.038C1363.78 767.665 1339.91 703.033 1339.91 616.953H1338.91H1337.91C1337.91 703.399 1361.89 768.65 1410.01 812.516L1410.68 811.777ZM1338.91 616.953H1339.91C1339.91 528.595 1364.59 462.832 1413.79 419.461L1413.12 418.711L1412.46 417.961C1362.7 461.829 1337.91 528.228 1337.91 616.953H1338.91ZM1413.12 418.711L1413.79 419.461C1463.37 375.714 1529.52 353.793 1612.34 353.793V352.793V351.793C1529.16 351.793 1462.49 373.817 1412.46 417.961L1413.12 418.711ZM1612.34 352.793V353.793C1692.24 353.793 1756.11 375.385 1804.06 418.478L1804.73 417.734L1805.39 416.991C1756.99 373.495 1692.61 351.793 1612.34 351.793V352.793ZM1804.73 417.734L1804.06 418.481C1851.97 461.207 1875.99 524.374 1875.99 608.164H1876.99H1877.99C1877.99 523.986 1853.84 460.2 1805.39 416.988L1804.73 417.734ZM1876.99 608.164H1875.99C1875.99 695.546 1851.96 761.98 1804.04 807.635L1804.73 808.359L1805.42 809.083C1853.85 762.942 1877.99 695.912 1877.99 608.164H1876.99ZM1804.73 808.359L1804.04 807.635C1756.09 853.312 1689.96 876.207 1605.51 876.207V877.207V878.207C1690.33 878.207 1757.01 855.204 1805.42 809.083L1804.73 808.359ZM1610.39 759.043V760.043C1646.42 760.043 1673.75 748.898 1692.22 726.476L1691.45 725.84L1690.67 725.204C1672.68 747.053 1645.98 758.043 1610.39 758.043V759.043ZM1691.45 725.84L1692.22 726.47C1710.68 703.731 1719.79 665.186 1719.79 611.094H1718.79H1717.79C1717.79 665.075 1708.67 703.026 1690.67 725.21L1691.45 725.84ZM1718.79 611.094H1719.79C1719.79 559.6 1710.51 523.149 1691.7 502.03L1690.96 502.695L1690.21 503.36C1708.51 523.909 1717.79 559.723 1717.79 611.094H1718.79ZM1690.96 502.695L1691.71 502.043C1673.24 480.602 1645.75 469.957 1609.41 469.957V470.957V471.957C1645.35 471.957 1672.21 482.471 1690.2 503.348L1690.96 502.695ZM1609.41 470.957V469.957C1574.34 469.957 1546.55 481.441 1526.15 504.474L1526.89 505.137L1527.64 505.8C1547.61 483.26 1574.82 471.957 1609.41 471.957V470.957ZM1526.89 505.137L1526.15 504.474C1506.05 527.208 1496.11 564.131 1496.11 615H1497.11H1498.11C1498.11 564.307 1508.03 527.987 1527.64 505.799L1526.89 505.137ZM1497.11 615H1496.11C1496.11 668.119 1505.55 705.707 1524.68 727.477L1525.43 726.816L1526.18 726.156C1507.55 704.957 1498.11 668.001 1498.11 615H1497.11ZM1525.43 726.816L1524.68 727.483C1544.13 749.239 1572.76 760.043 1610.39 760.043V759.043V758.043C1573.15 758.043 1545.14 747.363 1526.18 726.15L1525.43 726.816ZM1971.72 192.148L1970.94 191.524L1970.93 191.534L1971.72 192.148ZM1981.97 179.453L1981.22 178.795L1981.21 178.808L1981.2 178.823L1981.97 179.453ZM2013.22 147.227L2013.91 147.954L2013.91 147.953L2013.22 147.227ZM2049.36 114.512L2048.72 113.741L2048.71 113.748L2048.7 113.755L2049.36 114.512ZM2084.02 114.512L2084.68 113.753L2084.66 113.74L2084.64 113.728L2084.02 114.512ZM2150.43 179.453L2151.21 178.828L2151.2 178.81L2151.18 178.793L2150.43 179.453ZM2160.2 191.66L2159.41 192.285L2159.43 192.308L2159.45 192.329L2160.2 191.66ZM2160.2 214.121L2159.45 213.452L2159.45 213.457L2160.2 214.121ZM2149.94 226.816L2150.7 227.473L2150.72 227.449L2150.74 227.424L2149.94 226.816ZM2119.18 258.555L2118.49 257.828L2118.48 257.837L2119.18 258.555ZM2084.02 290.781L2083.37 290.025L2083.36 290.035L2083.35 290.046L2084.02 290.781ZM2073.77 298.594L2074.12 299.53L2074.17 299.512L2074.22 299.488L2073.77 298.594ZM2059.12 298.594L2058.62 299.462L2058.69 299.502L2058.77 299.53L2059.12 298.594ZM2048.38 290.781L2049 290L2048.38 290.781ZM2012.25 258.555L2011.53 259.251L2011.53 259.257L2011.54 259.262L2012.25 258.555ZM1981.97 225.84L1981.2 226.47L1981.21 226.485L1981.22 226.498L1981.97 225.84ZM1971.72 213.633L1970.93 214.247L1970.95 214.273L1970.97 214.297L1971.72 213.633ZM1994.67 370.859L1995.34 371.597L1995.35 371.594L1994.67 370.859ZM2136.76 370.859L2136.05 371.566L2136.08 371.596L2136.11 371.623L2136.76 370.859ZM2122.6 979.258L2121.68 978.86L2121.68 978.864L2122.6 979.258ZM2070.84 1054.45L2070.18 1053.7L2070.17 1053.71L2070.84 1054.45ZM1976.6 1091.56L1975.83 1092.2L1975.83 1092.2L1975.84 1092.21L1976.6 1091.56ZM1917.03 1018.81L1917.81 1018.18L1917.8 1018.16L1917.03 1018.81ZM1919.47 989.512L1920.03 990.344L1920.04 990.338L1919.47 989.512ZM1946.33 967.051L1945.65 966.312L1945.65 966.317L1945.64 966.322L1946.33 967.051ZM1975.62 918.711L1974.7 918.337L1974.69 918.345L1974.69 918.354L1975.62 918.711ZM1968.3 202.891H1969.3C1969.3 198.849 1970.38 195.492 1972.51 192.762L1971.72 192.148L1970.93 191.534C1968.5 194.664 1967.3 198.469 1967.3 202.891H1968.3ZM1971.72 192.148L1972.5 192.773C1975.1 189.521 1978.52 185.291 1982.75 180.084L1981.97 179.453L1981.2 178.823C1976.96 184.032 1973.54 188.266 1970.94 191.524L1971.72 192.148ZM1981.97 179.453L1982.73 180.112C1991.82 169.722 2002.21 159.003 2013.91 147.954L2013.22 147.227L2012.54 146.5C2000.8 157.586 1990.36 168.351 1981.22 178.795L1981.97 179.453ZM2013.22 147.227L2013.91 147.953C2025.94 136.57 2037.98 125.675 2050.01 115.268L2049.36 114.512L2048.7 113.755C2036.65 124.182 2024.59 135.097 2012.54 146.5L2013.22 147.227ZM2049.36 114.512L2049.99 115.283C2053.71 112.213 2056.95 109.937 2059.72 108.433C2062.51 106.919 2064.73 106.234 2066.45 106.234V105.234V104.234C2064.25 104.234 2061.68 105.095 2058.77 106.675C2055.84 108.263 2052.49 110.625 2048.72 113.741L2049.36 114.512ZM2066.45 105.234V106.234C2068.16 106.234 2070.43 106.922 2073.3 108.438C2076.16 109.945 2079.52 112.224 2083.4 115.296L2084.02 114.512L2084.64 113.728C2080.71 110.614 2077.24 108.255 2074.24 106.669C2071.25 105.093 2068.64 104.234 2066.45 104.234V105.234ZM2084.02 114.512L2083.37 115.27C2108.73 137.055 2130.83 158.669 2149.68 180.113L2150.43 179.453L2151.18 178.793C2132.27 157.268 2110.1 135.589 2084.68 113.753L2084.02 114.512ZM2150.43 179.453L2149.65 180.078C2150.11 180.661 2150.64 181.313 2151.08 181.871C2151.35 182.205 2151.52 182.411 2151.78 182.739C2151.78 182.748 2151.79 182.756 2151.8 182.765C2151.81 182.774 2151.81 182.783 2151.82 182.792C2151.83 182.806 2151.85 182.832 2151.86 182.846C2151.88 182.873 2151.93 182.925 2151.95 182.953C2151.99 183.007 2152.08 183.111 2152.12 183.165C2152.14 183.192 2152.18 183.244 2152.2 183.271C2152.21 183.28 2152.22 183.289 2152.22 183.298C2152.23 183.307 2152.24 183.315 2152.25 183.324C2152.26 183.338 2152.28 183.364 2152.29 183.377C2152.3 183.386 2152.3 183.395 2152.31 183.403C2152.32 183.412 2152.32 183.421 2152.33 183.43C2152.34 183.438 2152.34 183.447 2152.35 183.456C2152.36 183.465 2152.37 183.474 2152.37 183.482C2152.39 183.501 2152.44 183.569 2152.46 183.587C2152.5 183.641 2152.58 183.744 2152.62 183.797C2152.65 183.823 2152.69 183.874 2152.71 183.901C2152.71 183.91 2152.74 183.944 2152.75 183.953C2152.76 183.961 2152.76 183.97 2152.77 183.979C2152.78 183.987 2152.78 183.996 2152.79 184.005C2152.8 184.013 2152.8 184.022 2152.81 184.03C2152.82 184.039 2152.82 184.048 2152.83 184.056C2152.84 184.07 2152.86 184.095 2152.87 184.108C2152.89 184.134 2152.93 184.185 2152.96 184.211C2152.97 184.224 2152.99 184.25 2153 184.263C2153 184.272 2153.01 184.28 2153.02 184.289C2153.02 184.297 2153.03 184.306 2153.04 184.314C2153.04 184.323 2153.05 184.332 2153.06 184.34C2153.07 184.349 2153.07 184.357 2153.08 184.366C2153.09 184.379 2153.11 184.404 2153.12 184.417C2153.37 184.73 2153.52 184.921 2153.77 185.228C2154.18 185.738 2154.63 186.307 2155.02 186.792C2155.25 187.082 2155.4 187.261 2155.62 187.545C2155.63 187.557 2155.65 187.58 2155.66 187.592C2155.67 187.603 2155.69 187.626 2155.7 187.638C2155.71 187.654 2155.76 187.714 2155.77 187.73C2155.81 187.777 2155.88 187.868 2155.92 187.915C2155.99 188.008 2156.14 188.188 2156.21 188.279C2156.25 188.325 2156.32 188.414 2156.35 188.46C2156.36 188.468 2156.37 188.475 2156.37 188.483C2156.38 188.49 2156.38 188.497 2156.39 188.505C2156.4 188.512 2156.4 188.52 2156.41 188.527C2156.41 188.535 2156.42 188.542 2156.43 188.55C2156.43 188.558 2156.46 188.587 2156.46 188.595C2156.47 188.602 2156.47 188.61 2156.48 188.617C2156.49 188.625 2156.49 188.632 2156.5 188.639C2156.51 188.651 2156.63 188.806 2156.64 188.818C2156.68 188.863 2156.75 188.95 2156.78 188.995C2157 189.263 2157.13 189.428 2157.34 189.691C2157.69 190.128 2158.08 190.614 2158.41 191.026C2158.42 191.04 2158.46 191.093 2158.47 191.107C2158.48 191.117 2158.5 191.137 2158.5 191.147C2158.51 191.157 2158.53 191.177 2158.54 191.188C2158.56 191.218 2158.54 191.197 2158.57 191.228C2158.57 191.234 2158.58 191.241 2158.58 191.248C2158.59 191.254 2158.6 191.261 2158.6 191.268C2158.62 191.288 2158.65 191.328 2158.66 191.348C2158.7 191.388 2158.76 191.467 2158.79 191.507C2158.8 191.521 2158.84 191.572 2158.86 191.586C2158.86 191.596 2158.88 191.616 2158.89 191.626C2158.89 191.632 2158.9 191.639 2158.9 191.645C2158.91 191.652 2158.91 191.658 2158.92 191.665C2158.92 191.672 2158.93 191.678 2158.93 191.685C2158.94 191.691 2158.94 191.698 2158.95 191.704C2158.96 191.711 2158.98 191.737 2158.98 191.743C2159 191.763 2159.03 191.802 2159.04 191.822C2159.07 191.849 2159.15 191.95 2159.17 191.977C2159.23 192.056 2159.35 192.208 2159.41 192.285L2160.2 191.66L2160.98 191.035C2160.98 191.035 2160.85 190.883 2160.85 190.882C2160.81 190.824 2160.78 190.787 2160.73 190.728C2160.69 190.679 2160.71 190.7 2160.67 190.65C2160.62 190.596 2160.65 190.627 2160.61 190.572C2160.61 190.572 2160.48 190.416 2160.48 190.416C2160.43 190.356 2160.28 190.159 2160.23 190.098C2160.23 190.098 2160.1 189.939 2160.1 189.938C2160.07 189.907 2160.06 189.888 2160.03 189.858C2160.03 189.851 2160.02 189.844 2160.02 189.837C2160.01 189.831 2160.01 189.824 2160 189.817C2160 189.81 2159.99 189.804 2159.99 189.797C2159.98 189.79 2159.97 189.783 2159.97 189.777C2159.93 189.725 2159.95 189.747 2159.9 189.695C2159.9 189.689 2159.89 189.682 2159.89 189.675C2159.88 189.668 2159.88 189.661 2159.87 189.655C2159.87 189.648 2159.86 189.641 2159.86 189.634C2159.85 189.627 2159.84 189.621 2159.84 189.614C2159.84 189.614 2159.71 189.45 2159.71 189.45C2159.66 189.388 2159.49 189.182 2159.44 189.119C2159.4 189.066 2159.35 189.004 2159.31 188.951C2159.3 188.944 2159.3 188.937 2159.29 188.93C2159.29 188.923 2159.28 188.916 2159.28 188.909C2159.27 188.902 2159.26 188.895 2159.26 188.888C2159.25 188.881 2159.25 188.874 2159.24 188.867C2159.24 188.86 2159.23 188.853 2159.22 188.846C2159.22 188.839 2159.21 188.832 2159.21 188.825C2159.2 188.818 2159.2 188.811 2159.19 188.804C2159.19 188.797 2159.18 188.789 2159.17 188.782C2159.11 188.702 2159.17 188.778 2159.11 188.698C2159.1 188.691 2159.09 188.683 2159.09 188.676C2159.08 188.669 2159.08 188.662 2159.07 188.655C2159.07 188.648 2159.06 188.641 2159.05 188.634C2159.05 188.627 2159.04 188.62 2159.04 188.613C2158.99 188.558 2158.94 188.496 2158.9 188.441C2158.85 188.377 2158.68 188.162 2158.62 188.096C2158.62 188.089 2158.61 188.081 2158.61 188.074C2158.6 188.067 2158.6 188.059 2158.59 188.052C2158.55 188 2158.6 188.061 2158.55 188.009C2158.54 187.986 2158.5 187.943 2158.48 187.921C2158.48 187.91 2158.42 187.845 2158.41 187.833C2158.41 187.828 2158.38 187.795 2158.38 187.789C2158.35 187.75 2158.38 187.784 2158.34 187.745C2158.33 187.723 2158.29 187.679 2158.27 187.657C2158.26 187.646 2158.21 187.58 2158.2 187.568C2158.2 187.563 2158.17 187.529 2158.17 187.524C2158.14 187.484 2158.16 187.519 2158.13 187.479C2158.11 187.457 2158.08 187.413 2158.06 187.39C2158.01 187.323 2157.83 187.099 2157.77 187.03C2157.76 187.01 2157.75 187.005 2157.74 186.985C2157.68 186.913 2157.76 187.011 2157.7 186.939C2157.66 186.887 2157.67 186.9 2157.63 186.848C2157.62 186.837 2157.56 186.769 2157.55 186.757C2157.54 186.737 2157.53 186.731 2157.52 186.711C2157.46 186.638 2157.54 186.738 2157.48 186.665C2157.44 186.613 2157.45 186.626 2157.41 186.573C2157.35 186.5 2157.43 186.6 2157.37 186.527C2157.36 186.52 2157.36 186.512 2157.35 186.504C2157.34 186.496 2157.34 186.489 2157.33 186.481C2157.3 186.434 2157.22 186.343 2157.18 186.296C2157.15 186.251 2157.18 186.294 2157.15 186.249C2157.14 186.241 2157.13 186.234 2157.13 186.226C2157.12 186.218 2157.12 186.21 2157.11 186.203C2157.1 186.195 2157.1 186.187 2157.09 186.179C2157.08 186.171 2157.08 186.164 2157.07 186.156C2157.05 186.126 2157.06 186.139 2157.04 186.109C2157.03 186.101 2157.02 186.094 2157.02 186.086C2157.01 186.078 2157 186.07 2157 186.062C2156.99 186.054 2156.99 186.047 2156.98 186.039C2156.97 186.031 2156.97 186.023 2156.96 186.015C2156.94 185.986 2156.95 185.998 2156.92 185.968C2156.92 185.961 2156.91 185.953 2156.9 185.945C2156.9 185.937 2156.89 185.929 2156.88 185.921C2156.85 185.874 2156.77 185.781 2156.73 185.732C2156.71 185.702 2156.72 185.715 2156.7 185.685C2156.69 185.677 2156.68 185.669 2156.68 185.661C2156.67 185.653 2156.66 185.645 2156.66 185.638C2156.66 185.634 2156.62 185.593 2156.62 185.59C2156.6 185.56 2156.61 185.573 2156.58 185.542C2156.58 185.534 2156.57 185.526 2156.56 185.518C2156.56 185.51 2156.55 185.503 2156.54 185.495C2156.54 185.492 2156.51 185.45 2156.51 185.447C2156.48 185.416 2156.49 185.429 2156.47 185.399C2156.46 185.391 2156.45 185.383 2156.45 185.375C2156.44 185.367 2156.43 185.359 2156.43 185.351C2156.39 185.302 2156.31 185.208 2156.27 185.158C2156.26 185.143 2156.25 185.125 2156.24 185.11C2156.23 185.102 2156.22 185.094 2156.22 185.086C2156.21 185.078 2156.2 185.07 2156.2 185.062C2156.17 185.028 2156.19 185.047 2156.16 185.013C2156.15 184.998 2156.13 184.98 2156.12 184.965C2156.11 184.949 2155.98 184.785 2155.96 184.77C2155.92 184.72 2155.85 184.624 2155.81 184.574C2155.77 184.524 2155.77 184.525 2155.73 184.475C2155.72 184.467 2155.66 184.384 2155.65 184.376C2155.64 184.368 2155.64 184.36 2155.63 184.352C2155.62 184.343 2155.62 184.335 2155.61 184.327C2155.57 184.277 2155.61 184.328 2155.57 184.277C2155.53 184.227 2155.53 184.229 2155.49 184.178C2155.45 184.127 2155.37 184.029 2155.33 183.978C2155.29 183.927 2155.29 183.929 2155.25 183.878C2155.21 183.827 2155.25 183.879 2155.21 183.828C2155.17 183.777 2155.21 183.829 2155.17 183.777C2155.16 183.769 2155.16 183.761 2155.15 183.752C2155.14 183.744 2155.14 183.735 2155.13 183.727C2155.09 183.676 2155.13 183.728 2155.09 183.677C2155.05 183.625 2155.05 183.627 2155.01 183.575C2154.97 183.524 2154.89 183.424 2154.85 183.372C2154.8 183.32 2154.81 183.322 2154.76 183.27C2154.75 183.254 2154.74 183.235 2154.72 183.219C2154.69 183.183 2154.71 183.203 2154.68 183.168C2154.67 183.152 2154.53 182.979 2154.52 182.962C2154.48 182.91 2154.39 182.808 2154.35 182.755C2154.31 182.702 2154.31 182.704 2154.27 182.651C2154.26 182.635 2154.24 182.616 2154.23 182.599C2154.2 182.563 2154.21 182.584 2154.19 182.547C2154.12 182.461 2154.17 182.529 2154.1 182.443C2154.09 182.423 2154.03 182.358 2154.02 182.338C2153.92 182.218 2153.95 182.248 2153.85 182.128C2153.83 182.107 2153.78 182.042 2153.77 182.022C2153.74 181.988 2153.75 182.003 2153.72 181.969C2153.72 181.96 2153.71 181.951 2153.7 181.942C2153.69 181.934 2153.69 181.925 2153.68 181.916C2153.61 181.828 2153.67 181.897 2153.6 181.81C2153.58 181.789 2153.53 181.723 2153.51 181.703C2153.41 181.581 2153.44 181.612 2153.34 181.489C2153.32 181.469 2153.27 181.402 2153.25 181.382C2153.23 181.348 2153.24 181.362 2153.21 181.328C2153.2 181.319 2153.2 181.31 2153.19 181.301C2153.18 181.292 2153.17 181.283 2153.17 181.274C2153.1 181.185 2153.15 181.255 2153.08 181.166C2153.06 181.145 2153.01 181.078 2152.99 181.058C2152.89 180.934 2152.92 180.964 2152.82 180.84C2152.74 180.743 2152.72 180.719 2152.64 180.621C2152.64 180.612 2152.63 180.603 2152.62 180.594C2152.62 180.585 2152.61 180.576 2152.6 180.566C2152.59 180.557 2152.59 180.548 2152.58 180.539C2152.57 180.53 2152.56 180.521 2152.56 180.512C2152.54 180.487 2152.53 180.481 2152.51 180.456C2152.51 180.447 2152.5 180.438 2152.49 180.429C2152.48 180.42 2152.48 180.411 2152.47 180.401C2152.37 180.275 2152.39 180.307 2152.29 180.18C2152.21 180.082 2152.19 180.057 2152.11 179.958C2152.11 179.954 2152.07 179.907 2152.07 179.902C2152.06 179.893 2152.05 179.884 2152.05 179.874C2152.04 179.865 2152.03 179.856 2152.02 179.846C2152.01 179.821 2152 179.815 2151.98 179.79C2151.97 179.781 2151.97 179.772 2151.96 179.762C2151.95 179.753 2151.94 179.744 2151.94 179.734C2151.83 179.606 2151.86 179.638 2151.76 179.51C2151.68 179.409 2151.66 179.384 2151.57 179.284C2151.57 179.274 2151.56 179.265 2151.55 179.255C2151.54 179.246 2151.54 179.237 2151.53 179.227C2151.49 179.177 2151.52 179.221 2151.48 179.17C2151.48 179.163 2151.44 179.121 2151.44 179.114C2151.43 179.104 2151.42 179.095 2151.42 179.085C2151.41 179.076 2151.4 179.066 2151.39 179.057C2151.29 178.927 2151.31 178.959 2151.21 178.828L2150.43 179.453ZM2160.2 191.66L2159.45 192.329C2162.22 195.408 2163.59 198.915 2163.59 202.891H2164.59H2165.59C2165.59 198.402 2164.03 194.423 2160.94 190.991L2160.2 191.66ZM2164.59 202.891H2163.59C2163.59 206.866 2162.22 210.374 2159.45 213.452L2160.2 214.121L2160.94 214.79C2164.03 211.358 2165.59 207.379 2165.59 202.891H2164.59ZM2160.2 214.121L2159.45 213.457C2156.82 216.414 2153.38 220.668 2149.15 226.209L2149.94 226.816L2150.74 227.424C2154.96 221.897 2158.36 217.688 2160.94 214.785L2160.2 214.121ZM2149.94 226.816L2149.19 226.16C2140.42 236.222 2130.19 246.778 2118.49 257.828L2119.18 258.555L2119.87 259.282C2131.6 248.196 2141.88 237.593 2150.7 227.473L2149.94 226.816ZM2119.18 258.555L2118.48 257.837C2107.1 268.892 2095.4 279.621 2083.37 290.025L2084.02 290.781L2084.68 291.538C2096.74 281.108 2108.47 270.353 2119.88 259.272L2119.18 258.555ZM2084.02 290.781L2083.35 290.046C2079.13 293.938 2075.8 296.463 2073.32 297.699L2073.77 298.594L2074.22 299.488C2076.95 298.121 2080.45 295.437 2084.7 291.516L2084.02 290.781ZM2073.77 298.594L2073.42 297.657C2070.9 298.601 2068.58 299.059 2066.45 299.059V300.059V301.059C2068.87 301.059 2071.43 300.54 2074.12 299.53L2073.77 298.594ZM2066.45 300.059V299.059C2064.31 299.059 2061.99 298.601 2059.47 297.657L2059.12 298.594L2058.77 299.53C2061.46 300.54 2064.02 301.059 2066.45 301.059V300.059ZM2059.12 298.594L2059.62 297.726C2057.41 296.466 2053.89 293.906 2049 290L2048.38 290.781L2047.75 291.562C2052.64 295.469 2056.27 298.117 2058.62 299.462L2059.12 298.594ZM2048.38 290.781L2049 290C2036.01 279.605 2023.99 268.888 2012.95 257.848L2012.25 258.555L2011.54 259.262C2022.63 270.357 2034.71 281.124 2047.75 291.562L2048.38 290.781ZM2012.25 258.555L2012.96 257.858C2001.91 246.475 1991.83 235.583 1982.73 225.181L1981.97 225.84L1981.22 226.498C1990.35 236.93 2000.45 247.848 2011.53 259.251L2012.25 258.555ZM1981.97 225.84L1982.75 225.209C1978.51 219.996 1975.08 215.914 1972.47 212.968L1971.72 213.633L1970.97 214.297C1973.56 217.211 1976.97 221.267 1981.2 226.47L1981.97 225.84ZM1971.72 213.633L1972.51 213.019C1970.38 210.289 1969.3 206.933 1969.3 202.891H1968.3H1967.3C1967.3 207.312 1968.5 211.117 1970.93 214.247L1971.72 213.633ZM1988.81 826.426H1989.81V390.879H1988.81H1987.81V826.426H1988.81ZM1988.81 390.879H1989.81C1989.81 381.177 1991.76 374.879 1995.34 371.597L1994.67 370.859L1993.99 370.122C1989.76 374.001 1987.81 381.049 1987.81 390.879H1988.81ZM1994.67 370.859L1995.35 371.594C1999.3 367.943 2005.99 366 2015.66 366V365V364C2005.81 364 1998.5 365.963 1993.99 370.125L1994.67 370.859ZM2015.66 365V366H2116.25V365V364H2015.66V365ZM2116.25 365V366C2125.94 366 2132.43 367.948 2136.05 371.566L2136.76 370.859L2137.46 370.152C2133.27 365.958 2126.09 364 2116.25 364V365ZM2136.76 370.859L2136.11 371.623C2140 374.91 2142.11 381.195 2142.11 390.879H2143.11H2144.11C2144.11 381.031 2141.98 373.971 2137.4 370.096L2136.76 370.859ZM2143.11 390.879H2142.11V856.211H2143.11H2144.11V390.879H2143.11ZM2143.11 856.211H2142.11C2142.11 906.588 2135.28 947.455 2121.68 978.86L2122.6 979.258L2123.52 979.655C2137.26 947.91 2144.11 906.745 2144.11 856.211H2143.11ZM2122.6 979.258L2121.68 978.864C2108.05 1010.66 2090.88 1035.59 2070.18 1053.7L2070.84 1054.45L2071.5 1055.21C2092.47 1036.86 2109.8 1011.66 2123.52 979.652L2122.6 979.258ZM2070.84 1054.45L2070.17 1053.71C2049.4 1072.21 2028.31 1086.81 2006.92 1097.5L2007.36 1098.4L2007.81 1099.29C2029.39 1088.51 2050.62 1073.8 2071.5 1055.2L2070.84 1054.45ZM2007.36 1098.4L2006.92 1097.5C2001.21 1100.36 1995.95 1101.19 1991.1 1100.11C1986.24 1099.03 1981.66 1096.01 1977.37 1090.92L1976.6 1091.56L1975.84 1092.21C1980.33 1097.53 1985.27 1100.86 1990.67 1102.06C1996.07 1103.26 2001.8 1102.3 2007.81 1099.29L2007.36 1098.4ZM1976.6 1091.56L1977.38 1090.93L1917.8 1018.18L1917.03 1018.81L1916.26 1019.44L1975.83 1092.2L1976.6 1091.56ZM1917.03 1018.81L1917.8 1018.16C1912.63 1012.03 1910.22 1006.89 1910.22 1002.7H1909.22H1908.22C1908.22 1007.61 1911.01 1013.21 1916.27 1019.45L1917.03 1018.81ZM1909.22 1002.7H1910.22C1910.22 999.013 1913.22 994.88 1920.03 990.344L1919.47 989.512L1918.92 988.68C1912.05 993.258 1908.22 997.914 1908.22 1002.7H1909.22ZM1919.47 989.512L1920.04 990.338C1927.26 985.413 1936.26 977.885 1947.01 967.78L1946.33 967.051L1945.64 966.322C1934.92 976.398 1926.01 983.845 1918.91 988.685L1919.47 989.512ZM1946.33 967.051L1947 967.79C1958.23 957.55 1968.07 941.273 1976.56 919.068L1975.62 918.711L1974.69 918.354C1966.25 940.42 1956.56 956.37 1945.65 966.312L1946.33 967.051ZM1975.62 918.711L1976.55 919.085C1985.41 897.102 1989.81 866.191 1989.81 826.426H1988.81H1987.81C1987.81 866.087 1983.42 896.701 1974.7 918.337L1975.62 918.711Z" fill="url(#paint4_linear_78_179)" mask="url(#path-5-outside-1_78_179)"/>
<mask id="path-7-outside-2_78_179" maskUnits="userSpaceOnUse" x="2982" y="347" width="1129" height="532" fill="black">
<rect fill="white" x="2982" y="347" width="1129" height="532"/>
<path d="M3249.66 877.207C3167.63 877.207 3102.69 855.397 3054.84 811.777C3006.99 768.158 2983.06 703.216 2983.06 616.953C2983.06 528.411 3007.8 462.331 3057.28 418.711C3107.09 374.766 3173.49 352.793 3256.5 352.793C3336.58 352.793 3400.71 374.44 3448.88 417.734C3497.06 460.703 3521.15 524.18 3521.15 608.164C3521.15 695.729 3497.06 762.461 3448.88 808.359C3400.71 854.258 3334.3 877.207 3249.66 877.207ZM3254.55 759.043C3290.35 759.043 3317.37 747.975 3335.6 725.84C3353.83 703.379 3362.95 665.13 3362.95 611.094C3362.95 559.661 3353.67 523.529 3335.11 502.695C3316.88 481.536 3289.7 470.957 3253.57 470.957C3218.74 470.957 3191.23 482.35 3171.05 505.137C3151.19 527.598 3141.27 564.219 3141.27 615C3141.27 668.06 3150.71 705.332 3169.59 726.816C3188.79 748.301 3217.11 759.043 3254.55 759.043ZM4109.53 553.965V839.121C4109.53 848.887 4107.41 855.723 4103.18 859.629C4099.27 863.21 4092.44 865 4082.67 865H3982.09C3972.32 865 3965.32 863.21 3961.09 859.629C3957.18 855.723 3955.23 848.887 3955.23 839.121V579.355C3955.23 543.874 3947.74 517.995 3932.77 501.719C3917.8 485.443 3897.45 477.305 3871.73 477.305C3846.02 477.305 3826.16 482.839 3812.16 493.906C3798.49 504.974 3787.91 518.971 3780.43 535.898V839.121C3780.43 848.887 3778.31 855.723 3774.08 859.629C3770.17 863.21 3763.34 865 3753.57 865H3652.98C3643.22 865 3636.22 863.21 3631.99 859.629C3628.08 855.723 3626.13 848.887 3626.13 839.121V429.941C3626.13 422.129 3627.76 416.107 3631.01 411.875C3637.85 402.76 3645.99 393.483 3655.43 384.043C3665.19 374.603 3677.07 364.512 3691.07 353.77C3695.3 350.514 3699.37 348.887 3703.28 348.887C3706.86 348.887 3710.93 350.514 3715.48 353.77C3729.16 364.512 3740.88 374.766 3750.64 384.531C3760.41 394.297 3769.03 404.388 3776.52 414.805H3778.96C3784.49 407.643 3792.8 399.342 3803.86 389.902C3814.93 380.137 3830.39 371.51 3850.25 364.023C3870.43 356.536 3896.15 352.793 3927.4 352.793C3958 352.793 3987.13 358.978 4014.8 371.348C4042.47 383.717 4065.09 404.551 4082.67 433.848C4100.58 463.145 4109.53 503.184 4109.53 553.965Z"/>
</mask>
<path d="M3249.66 877.207C3167.63 877.207 3102.69 855.397 3054.84 811.777C3006.99 768.158 2983.06 703.216 2983.06 616.953C2983.06 528.411 3007.8 462.331 3057.28 418.711C3107.09 374.766 3173.49 352.793 3256.5 352.793C3336.58 352.793 3400.71 374.44 3448.88 417.734C3497.06 460.703 3521.15 524.18 3521.15 608.164C3521.15 695.729 3497.06 762.461 3448.88 808.359C3400.71 854.258 3334.3 877.207 3249.66 877.207ZM3254.55 759.043C3290.35 759.043 3317.37 747.975 3335.6 725.84C3353.83 703.379 3362.95 665.13 3362.95 611.094C3362.95 559.661 3353.67 523.529 3335.11 502.695C3316.88 481.536 3289.7 470.957 3253.57 470.957C3218.74 470.957 3191.23 482.35 3171.05 505.137C3151.19 527.598 3141.27 564.219 3141.27 615C3141.27 668.06 3150.71 705.332 3169.59 726.816C3188.79 748.301 3217.11 759.043 3254.55 759.043ZM4109.53 553.965V839.121C4109.53 848.887 4107.41 855.723 4103.18 859.629C4099.27 863.21 4092.44 865 4082.67 865H3982.09C3972.32 865 3965.32 863.21 3961.09 859.629C3957.18 855.723 3955.23 848.887 3955.23 839.121V579.355C3955.23 543.874 3947.74 517.995 3932.77 501.719C3917.8 485.443 3897.45 477.305 3871.73 477.305C3846.02 477.305 3826.16 482.839 3812.16 493.906C3798.49 504.974 3787.91 518.971 3780.43 535.898V839.121C3780.43 848.887 3778.31 855.723 3774.08 859.629C3770.17 863.21 3763.34 865 3753.57 865H3652.98C3643.22 865 3636.22 863.21 3631.99 859.629C3628.08 855.723 3626.13 848.887 3626.13 839.121V429.941C3626.13 422.129 3627.76 416.107 3631.01 411.875C3637.85 402.76 3645.99 393.483 3655.43 384.043C3665.19 374.603 3677.07 364.512 3691.07 353.77C3695.3 350.514 3699.37 348.887 3703.28 348.887C3706.86 348.887 3710.93 350.514 3715.48 353.77C3729.16 364.512 3740.88 374.766 3750.64 384.531C3760.41 394.297 3769.03 404.388 3776.52 414.805H3778.96C3784.49 407.643 3792.8 399.342 3803.86 389.902C3814.93 380.137 3830.39 371.51 3850.25 364.023C3870.43 356.536 3896.15 352.793 3927.4 352.793C3958 352.793 3987.13 358.978 4014.8 371.348C4042.47 383.717 4065.09 404.551 4082.67 433.848C4100.58 463.145 4109.53 503.184 4109.53 553.965Z" fill="white"/>
<path d="M3057.28 418.711L3057.94 419.461L3057.94 419.461L3057.28 418.711ZM3448.88 417.734L3448.21 418.478L3448.22 418.481L3448.88 417.734ZM3448.88 808.359L3448.19 807.635L3448.88 808.359ZM3335.6 725.84L3336.37 726.476L3336.38 726.47L3335.6 725.84ZM3335.11 502.695L3334.36 503.348L3334.36 503.354L3334.37 503.36L3335.11 502.695ZM3171.05 505.137L3170.3 504.474L3170.3 504.474L3171.05 505.137ZM3169.59 726.816L3168.83 727.477L3168.84 727.483L3169.59 726.816ZM3249.66 877.207V876.207C3167.81 876.207 3103.14 854.449 3055.51 811.038L3054.84 811.777L3054.17 812.516C3102.25 856.345 3167.45 878.207 3249.66 878.207V877.207ZM3054.84 811.777L3055.51 811.038C3007.93 767.665 2984.06 703.033 2984.06 616.953H2983.06H2982.06C2982.06 703.399 3006.04 768.65 3054.17 812.516L3054.84 811.777ZM2983.06 616.953H2984.06C2984.06 528.595 3008.75 462.832 3057.94 419.461L3057.28 418.711L3056.62 417.961C3006.86 461.829 2982.06 528.228 2982.06 616.953H2983.06ZM3057.28 418.711L3057.94 419.461C3107.52 375.714 3173.67 353.793 3256.5 353.793V352.793V351.793C3173.31 351.793 3106.65 373.817 3056.62 417.961L3057.28 418.711ZM3256.5 352.793V353.793C3336.39 353.793 3400.26 375.385 3448.21 418.478L3448.88 417.734L3449.55 416.991C3401.15 373.495 3336.76 351.793 3256.5 351.793V352.793ZM3448.88 417.734L3448.22 418.481C3496.12 461.207 3520.15 524.374 3520.15 608.164H3521.15H3522.15C3522.15 523.986 3498 460.2 3449.55 416.988L3448.88 417.734ZM3521.15 608.164H3520.15C3520.15 695.546 3496.11 761.98 3448.19 807.635L3448.88 808.359L3449.57 809.083C3498 762.942 3522.15 695.912 3522.15 608.164H3521.15ZM3448.88 808.359L3448.19 807.635C3400.25 853.312 3334.12 876.207 3249.66 876.207V877.207V878.207C3334.48 878.207 3401.16 855.204 3449.57 809.083L3448.88 808.359ZM3254.55 759.043V760.043C3290.57 760.043 3317.91 748.898 3336.37 726.476L3335.6 725.84L3334.83 725.204C3316.84 747.053 3290.14 758.043 3254.55 758.043V759.043ZM3335.6 725.84L3336.38 726.47C3354.83 703.731 3363.95 665.186 3363.95 611.094H3362.95H3361.95C3361.95 665.075 3352.83 703.026 3334.83 725.21L3335.6 725.84ZM3362.95 611.094H3363.95C3363.95 559.6 3354.67 523.149 3335.86 502.03L3335.11 502.695L3334.37 503.36C3352.67 523.909 3361.95 559.723 3361.95 611.094H3362.95ZM3335.11 502.695L3335.87 502.043C3317.4 480.602 3289.9 469.957 3253.57 469.957V470.957V471.957C3289.5 471.957 3316.37 482.471 3334.36 503.348L3335.11 502.695ZM3253.57 470.957V469.957C3218.5 469.957 3190.7 481.441 3170.3 504.474L3171.05 505.137L3171.8 505.8C3191.76 483.26 3218.98 471.957 3253.57 471.957V470.957ZM3171.05 505.137L3170.3 504.474C3150.2 527.208 3140.27 564.131 3140.27 615H3141.27H3142.27C3142.27 564.307 3152.18 527.987 3171.8 505.799L3171.05 505.137ZM3141.27 615H3140.27C3140.27 668.119 3149.7 705.707 3168.83 727.477L3169.59 726.816L3170.34 726.156C3151.71 704.957 3142.27 668.001 3142.27 615H3141.27ZM3169.59 726.816L3168.84 727.483C3188.29 749.239 3216.92 760.043 3254.55 760.043V759.043V758.043C3217.31 758.043 3189.29 747.363 3170.33 726.15L3169.59 726.816ZM4103.18 859.629L4103.86 860.366L4103.86 860.364L4103.18 859.629ZM3961.09 859.629L3960.38 860.336L3960.41 860.365L3960.44 860.392L3961.09 859.629ZM3812.16 493.906L3811.54 493.122L3811.53 493.129L3812.16 493.906ZM3780.43 535.898L3779.51 535.494L3779.43 535.687V535.898H3780.43ZM3774.08 859.629L3774.75 860.366L3774.76 860.364L3774.08 859.629ZM3631.99 859.629L3631.28 860.336L3631.31 860.365L3631.34 860.392L3631.99 859.629ZM3631.01 411.875L3631.8 412.485L3631.81 412.475L3631.01 411.875ZM3655.43 384.043L3654.73 383.324L3654.72 383.33L3654.72 383.336L3655.43 384.043ZM3691.07 353.77L3691.68 354.563L3691.68 354.562L3691.07 353.77ZM3715.48 353.77L3716.1 352.983L3716.08 352.969L3716.07 352.956L3715.48 353.77ZM3776.52 414.805L3775.71 415.388L3776.01 415.805H3776.52V414.805ZM3778.96 414.805V415.805H3779.45L3779.75 415.416L3778.96 414.805ZM3803.86 389.902L3804.51 390.663L3804.52 390.658L3804.52 390.652L3803.86 389.902ZM3850.25 364.023L3849.9 363.086L3849.9 363.088L3850.25 364.023ZM4014.8 371.348L4015.21 370.435L4014.8 371.348ZM4082.67 433.848L4081.81 434.362L4081.82 434.369L4082.67 433.848ZM4109.53 553.965H4108.53V839.121H4109.53H4110.53V553.965H4109.53ZM4109.53 839.121H4108.53C4108.53 848.792 4106.42 855.274 4102.5 858.894L4103.18 859.629L4103.86 860.364C4108.4 856.172 4110.53 848.981 4110.53 839.121H4109.53ZM4103.18 859.629L4102.5 858.892C4098.89 862.209 4092.38 864 4082.67 864V865V866C4092.5 866 4099.66 864.21 4103.86 860.366L4103.18 859.629ZM4082.67 865V864H3982.09V865V866H4082.67V865ZM3982.09 865V864C3972.39 864 3965.69 862.214 3961.74 858.866L3961.09 859.629L3960.44 860.392C3964.95 864.205 3972.25 866 3982.09 866V865ZM3961.09 859.629L3961.8 858.922C3958.18 855.303 3956.23 848.809 3956.23 839.121H3955.23H3954.23C3954.23 848.964 3956.19 856.142 3960.38 860.336L3961.09 859.629ZM3955.23 839.121H3956.23V579.355H3955.23H3954.23V839.121H3955.23ZM3955.23 579.355H3956.23C3956.23 543.767 3948.73 517.586 3933.51 501.042L3932.77 501.719L3932.03 502.396C3946.76 518.403 3954.23 543.981 3954.23 579.355H3955.23ZM3932.77 501.719L3933.51 501.042C3918.31 484.526 3897.68 476.305 3871.73 476.305V477.305V478.305C3897.22 478.305 3917.28 486.36 3932.03 502.396L3932.77 501.719ZM3871.73 477.305V476.305C3845.89 476.305 3825.78 481.865 3811.54 493.122L3812.16 493.906L3812.78 494.691C3826.54 483.813 3846.15 478.305 3871.73 478.305V477.305ZM3812.16 493.906L3811.53 493.129C3797.73 504.302 3787.06 518.43 3779.51 535.494L3780.43 535.898L3781.34 536.303C3788.77 519.513 3799.25 505.646 3812.79 494.683L3812.16 493.906ZM3780.43 535.898H3779.43V839.121H3780.43H3781.43V535.898H3780.43ZM3780.43 839.121H3779.43C3779.43 848.792 3777.32 855.274 3773.4 858.894L3774.08 859.629L3774.76 860.364C3779.3 856.172 3781.43 848.981 3781.43 839.121H3780.43ZM3774.08 859.629L3773.4 858.892C3769.78 862.209 3763.27 864 3753.57 864V865V866C3763.4 866 3770.56 864.21 3774.75 860.366L3774.08 859.629ZM3753.57 865V864H3652.98V865V866H3753.57V865ZM3652.98 865V864C3643.29 864 3636.59 862.214 3632.63 858.866L3631.99 859.629L3631.34 860.392C3635.85 864.205 3643.14 866 3652.98 866V865ZM3631.99 859.629L3632.7 858.922C3629.08 855.303 3627.13 848.809 3627.13 839.121H3626.13H3625.13C3625.13 848.964 3627.09 856.142 3631.28 860.336L3631.99 859.629ZM3626.13 839.121H3627.13V429.941H3626.13H3625.13V839.121H3626.13ZM3626.13 429.941H3627.13C3627.13 422.251 3628.73 416.477 3631.8 412.485L3631.01 411.875L3630.22 411.265C3626.78 415.736 3625.13 422.007 3625.13 429.941H3626.13ZM3631.01 411.875L3631.81 412.475C3638.61 403.404 3646.72 394.162 3656.13 384.75L3655.43 384.043L3654.72 383.336C3645.25 392.804 3637.08 402.117 3630.21 411.275L3631.01 411.875ZM3655.43 384.043L3656.12 384.762C3665.85 375.355 3677.7 365.288 3691.68 354.563L3691.07 353.77L3690.46 352.976C3676.44 363.735 3664.53 373.851 3654.73 383.324L3655.43 384.043ZM3691.07 353.77L3691.68 354.562C3695.8 351.393 3699.66 349.887 3703.28 349.887V348.887V347.887C3699.08 347.887 3694.8 349.636 3690.46 352.977L3691.07 353.77ZM3703.28 348.887V349.887C3706.56 349.887 3710.43 351.386 3714.9 354.583L3715.48 353.77L3716.07 352.956C3711.43 349.643 3707.15 347.887 3703.28 347.887V348.887ZM3715.48 353.77L3714.87 354.556C3728.51 365.279 3740.2 375.507 3749.93 385.238L3750.64 384.531L3751.35 383.824C3741.55 374.024 3729.8 363.744 3716.1 352.983L3715.48 353.77ZM3750.64 384.531L3749.93 385.238C3759.66 394.969 3768.25 405.019 3775.71 415.388L3776.52 414.805L3777.33 414.221C3769.81 403.757 3761.15 393.625 3751.35 383.824L3750.64 384.531ZM3776.52 414.805V415.805H3778.96V414.805V413.805H3776.52V414.805ZM3778.96 414.805L3779.75 415.416C3785.23 408.332 3793.47 400.082 3804.51 390.663L3803.86 389.902L3803.21 389.142C3792.12 398.603 3783.76 406.955 3778.17 414.193L3778.96 414.805ZM3803.86 389.902L3804.52 390.652C3815.47 380.994 3830.81 372.421 3850.6 364.959L3850.25 364.023L3849.9 363.088C3829.97 370.6 3814.39 379.28 3803.2 389.153L3803.86 389.902ZM3850.25 364.023L3850.6 364.961C3870.63 357.529 3896.22 353.793 3927.4 353.793V352.793V351.793C3896.08 351.793 3870.23 355.543 3849.9 363.086L3850.25 364.023ZM3927.4 352.793V353.793C3957.86 353.793 3986.85 359.949 4014.39 372.261L4014.8 371.348L4015.21 370.435C3987.41 358.007 3958.14 351.793 3927.4 351.793V352.793ZM4014.8 371.348L4014.39 372.261C4041.85 384.536 4064.33 405.218 4081.81 434.362L4082.67 433.848L4083.53 433.333C4065.86 403.884 4043.09 382.899 4015.21 370.435L4014.8 371.348ZM4082.67 433.848L4081.82 434.369C4099.59 463.451 4108.53 503.285 4108.53 553.965H4109.53H4110.53C4110.53 503.082 4101.56 462.838 4083.53 433.326L4082.67 433.848Z" fill="url(#paint5_linear_78_179)" mask="url(#path-7-outside-2_78_179)"/>
<defs>
<linearGradient id="paint0_linear_78_179" x1="2626.37" y1="583.336" x2="2210.37" y2="1041.34" gradientUnits="userSpaceOnUse">
<stop offset="0.2" stop-color="white"/>
<stop offset="1" stop-color="#A6A6A6"/>
</linearGradient>
<linearGradient id="paint1_linear_78_179" x1="2654.65" y1="560.642" x2="3071.65" y2="153.642" gradientUnits="userSpaceOnUse">
<stop offset="0.2" stop-color="white"/>
<stop offset="1" stop-color="#A6A6A6"/>
</linearGradient>
<linearGradient id="paint2_linear_78_179" x1="2655.33" y1="582.622" x2="3072.33" y2="944.622" gradientUnits="userSpaceOnUse">
<stop offset="0.2" stop-color="white"/>
<stop offset="1" stop-color="#A6A6A6"/>
</linearGradient>
<linearGradient id="paint3_linear_78_179" x1="2625.61" y1="561.309" x2="2305.61" y2="154.309" gradientUnits="userSpaceOnUse">
<stop offset="0.2" stop-color="white"/>
<stop offset="1" stop-color="#A6A6A6"/>
</linearGradient>
<linearGradient id="paint4_linear_78_179" x1="2210" y1="472.5" x2="0" y2="472.5" gradientUnits="userSpaceOnUse">
<stop offset="0.2" stop-color="white"/>
<stop offset="1" stop-color="#A6A6A6"/>
</linearGradient>
<linearGradient id="paint5_linear_78_179" x1="4481" y1="472.5" x2="2944" y2="472.5" gradientUnits="userSpaceOnUse">
<stop offset="0.2" stop-color="white"/>
<stop offset="1" stop-color="#A6A6A6"/>
</linearGradient>
</defs>
</svg>
