<svg width="1024" height="1024" viewBox="0 0 1024 1024" fill="none" xmlns="http://www.w3.org/2000/svg">
<path d="M51.193 929.743C46.98 937.76 44.5524 946.915 45.4131 956.071C46.2683 965.223 50.2547 973.549 56.7737 979.47C63.2927 985.392 71.9624 988.561 81.1541 988.535C90.3513 988.514 99.2304 985.219 106.807 980.257C106.807 980.257 106.807 980.257 106.807 980.257C115.697 974.401 124.392 968.367 132.89 962.156C166.885 937.31 197.75 909.62 225.483 879.087C277.483 821.837 329.483 764.587 381.483 707.337C426.55 657.72 481.092 616.711 545.111 584.308C554.96 579.323 565.034 574.542 575.331 569.965C604.121 557.233 615.229 530.032 613.007 500.52C610.716 470.946 594.082 440.391 567.965 416.669C541.848 392.947 509.838 379.319 480.18 379.874C450.591 380.492 424.581 394.157 414.669 424.035C411.1 434.725 407.306 445.21 403.289 455.492C377.174 522.323 341.584 580.546 296.517 630.163C244.517 687.413 192.517 744.663 140.517 801.913C112.784 832.446 88.1813 865.823 66.7097 902.044C61.3418 911.099 56.1696 920.332 51.193 929.743Z" fill="url(#paint0_linear_78_123)"/>
<path d="M967.238 94.883C971.791 87.0937 974.696 78.1256 974.363 68.9788C974.036 59.8372 970.579 51.3479 964.472 45.0908C958.365 38.8337 949.962 35.1716 940.831 34.6227C931.695 34.0685 922.659 36.7545 914.762 41.117C914.762 41.117 914.762 41.117 914.762 41.117C905.965 46.0086 897.354 51.0893 888.926 56.3592C855.218 77.4389 824.464 101.545 796.664 128.679C744.539 179.554 692.414 230.429 640.289 281.304C595.114 325.395 540.997 360.326 477.939 386.095C468.238 390.06 458.325 393.807 448.2 397.338C418.146 407.752 405.364 434.175 405.857 463.817C406.419 493.531 421.414 525.263 446.338 550.8C471.262 576.336 502.621 592.097 532.312 593.379C561.934 594.591 588.659 582.455 599.8 552.662C599.8 552.662 599.8 552.662 599.8 552.662C603.575 542.626 607.562 532.807 611.761 523.205C639.053 460.791 675.286 407.538 720.461 363.446C772.586 312.571 824.711 261.696 876.836 210.821C904.636 183.688 929.482 153.528 951.374 120.341C956.846 112.044 962.135 103.558 967.238 94.883Z" fill="url(#paint1_linear_78_123)"/>
<path d="M916.374 887.367C924.539 891.133 933.689 893.224 942.733 892.12C951.772 891.021 959.892 886.9 965.585 880.342C971.277 873.784 974.216 865.166 974.035 856.062C973.858 846.953 970.502 838.187 965.626 830.633C965.626 830.633 965.626 830.633 965.626 830.633C960.409 822.603 955.018 814.773 949.455 807.143C927.2 776.622 902.173 749.294 874.373 725.161C822.248 679.911 770.123 634.661 717.998 589.411C672.823 550.194 636.04 501.31 607.649 442.76C603.281 433.752 599.112 424.515 595.141 415.05C582.773 385.393 555.438 374.775 525.893 377.762C496.281 380.829 465.692 398.624 442.05 425.858C418.407 453.093 405.087 485.878 406.211 515.628C407.404 545.299 421.758 570.871 452.858 578.95C452.858 578.95 452.858 578.95 452.858 578.95C462.788 581.551 472.519 584.382 482.051 587.44C544.01 607.323 597.577 636.872 642.752 676.089C694.877 721.339 747.002 766.589 799.127 811.839C826.927 835.972 857.5 856.912 890.845 874.657C899.182 879.094 907.691 883.33 916.374 887.367Z" fill="url(#paint2_linear_78_123)"/>
<path d="M204.531 44.7818C197.16 39.6966 188.585 36.0043 179.545 35.4182C170.511 34.828 161.836 37.3269 155.067 42.6483C148.299 47.9697 143.824 55.8105 142.266 64.7291C140.702 73.6517 142.267 82.856 145.469 91.2182C145.469 91.2182 145.469 91.2182 145.469 91.2182C148.725 99.6354 152.188 107.889 155.859 115.98C170.542 148.341 188.55 178.089 209.884 205.222C249.884 256.097 289.884 306.972 329.884 357.847C364.55 401.939 389.154 453.943 403.693 513.859C405.93 523.077 407.929 532.482 409.689 542.075C415.499 574.119 440.264 589.762 469.908 592.343C499.64 594.855 533.342 582.902 562.075 560.311C590.807 537.72 610.376 507.79 614.95 478.305C619.437 448.888 610.079 421.133 580.311 407.925C571.405 403.951 562.737 399.789 554.307 395.441C499.513 367.174 454.783 330.994 420.116 286.903C380.116 236.028 340.116 185.153 300.116 134.278C278.783 107.144 254.125 82.6253 226.141 60.7203C219.146 55.2441 211.942 49.9313 204.531 44.7818Z" fill="url(#paint3_linear_78_123)"/>
<defs>
<linearGradient id="paint0_linear_78_123" x1="495.37" y1="497.336" x2="79.3701" y2="955.336" gradientUnits="userSpaceOnUse">
<stop offset="0.2" stop-color="white"/>
<stop offset="1" stop-color="#A6A6A6"/>
</linearGradient>
<linearGradient id="paint1_linear_78_123" x1="523.651" y1="474.642" x2="940.651" y2="67.6422" gradientUnits="userSpaceOnUse">
<stop offset="0.2" stop-color="white"/>
<stop offset="1" stop-color="#A6A6A6"/>
</linearGradient>
<linearGradient id="paint2_linear_78_123" x1="524.328" y1="496.622" x2="941.328" y2="858.622" gradientUnits="userSpaceOnUse">
<stop offset="0.2" stop-color="white"/>
<stop offset="1" stop-color="#A6A6A6"/>
</linearGradient>
<linearGradient id="paint3_linear_78_123" x1="494.607" y1="475.309" x2="174.607" y2="68.309" gradientUnits="userSpaceOnUse">
<stop offset="0.2" stop-color="white"/>
<stop offset="1" stop-color="#A6A6A6"/>
</linearGradient>
</defs>
</svg>
